<svg version="1.2" xmlns="http://www.w3.org/2000/svg" viewBox="0 0 1069 520" width="1069" height="520">
	<title>CHARGED_UP_Logo_Horiz_RGB_FullColorReverse-ai</title>
	<style>
		.s0 { fill: #fcb513 } 
		.s1 { fill: #000000 } 
		.s2 { fill: #68bfdd } 
		.s3 { fill: #ffffff } 
		.s4 { fill: #ce202f } 
	</style>
	<g id="Layer 2">
	</g>
	<g id="Layer 1">
		<g id="&lt;Group&gt;">
			<g id="&lt;Group&gt;">
				<path id="&lt;Path&gt;" class="s0" d="m24.9 232.2l958.5-228.7c43.3-10.4 84.9 22.5 84.9 67.1v247.6c0 13.6-9.9 25.2-23.4 27.1l-1008 147.1c-19.2 2.8-36.5-12.1-36.5-31.5v-197.7c0-14.8 10.2-27.6 24.5-31z"/>
			</g>
			<g id="&lt;Group&gt;">
				<g id="&lt;Group&gt;">
					<path id="&lt;Compound Path&gt;" class="s1" d="m108 326.1v-27.9c-0.1-6.7-5-11.6-11.3-10.2-6.2 1.3-11.2 8.5-11.2 15.2v96.9c0 6.7 5 11 11.3 9.7 6.2-1.3 11.2-7.7 11.2-14.4v-28.3l30.6-6.4v32c0.1 26.7-17.7 51.8-45.5 57.5l-1.9 0.3c-30.9 6.3-47.5-15.4-47.5-45.1v-97.7c0-26.3 19.9-52.5 47.7-58.8l1.6-0.4c33.9-7.7 45.8 18.3 45.8 44.9l0.1 26z"/>
				</g>
				<g id="&lt;Group&gt;">
					<path id="&lt;Compound Path&gt;" class="s1" d="m240.5 417l-29 5.8-0.2-78.9-16.8 3.6 0.1 78.8-42.2 8.5-0.2-182.9c0-7.7 5.3-14.3 12.7-16l28.8-6.5 0.1 79.5 16.8-3.7-0.1-79.6 42.7-9.7 0.4 185c0 7.8-5.5 14.5-13.1 16.1z"/>
				</g>
				<g id="&lt;Group&gt;">
					<path id="&lt;Compound Path&gt;" fill-rule="evenodd" class="s1" d="m319.6 401l-2.6-21.6-20.9 4.3-2.2 22.4-29.6 6.1 25.7-204.7 37.7-8.5 32.5 193.7zm-15.3-92.2l-6.1 49.8 14.7-3.1-6-46.7c-0.2-1.5-2.4-1.5-2.6 0z"/>
				</g>
				<g id="&lt;Group&gt;">
					<path id="&lt;Compound Path&gt;" fill-rule="evenodd" class="s1" d="m367.3 190l52.1-11.8c27.7-6.3 43.4 13.3 43.5 40.7 0.2 29.5-5.7 38.4-17.9 46.7v0.7c12.2 3.3 19.1 12.4 18.9 26.5-0.8 40.8-0.8 44.7-0.4 52.7 0.4 11.9 4.8 25.4 4.8 25.4l-38.4 7.7c-3.8-4.4-5.4-17.7-5.5-27.2l0.2-48.9c-0.1-6.3-3.8-10-9.5-8.8l-7.4 1.6 0.3 87.8-40 8.1zm43.6 70c8.8-2.6 13.7-10.7 13.7-20.8v-6.3c-0.1-12.6-4.5-17.5-13.8-15.5l-4.1 0.9 0.2 42.5z"/>
				</g>
				<g id="&lt;Group&gt;">
					<path id="&lt;Compound Path&gt;" class="s1" d="m574.8 349.3l-21.5 4.4-4.1-7.7c-4.1 6.1-15.6 15.2-27.8 17.6-15 3.1-44.1-2.3-44.3-61l-0.4-78.7c-0.2-44.2 28.4-68.7 49.3-73.4l2.2-0.5c24.3-5.5 43.2 18.6 43.3 44.6l0.1 25.6-29 6.3-0.1-22c0-8.5-6.3-14.2-13.5-12.6-6.9 1.5-13.1 10-13 18.5l0.5 102c0 6.3 5 10.6 10.3 9.5 5.7-1.2 10.3-7.5 10.3-13.8l-0.1-19.1-10 2.1-0.2-35 47.5-10.2z"/>
				</g>
				<g id="&lt;Group&gt;">
					<path id="&lt;Compound Path&gt;" class="s1" d="m630.7 216.3l30.6-6.7 0.3 38.4-30.4 6.5 0.2 41.1 41-8.5 0.2 42.4-65.5 13.3c-9 1.8-17.3-5-17.4-14.1l-1-177.2c0-6.8 4.7-12.7 11.3-14.2l71.3-16.2 0.3 43.8-41.2 9.2z"/>
				</g>
				<g id="&lt;Group&gt;">
					<path id="&lt;Compound Path&gt;" fill-rule="evenodd" class="s1" d="m783 240.1c0.7 46.5-25.4 72.2-50.1 77.2l-47.2 9.6-1.3-208.8 56.1-12.7c21.5-4.9 41.3 9.6 41.7 56.2zm-58.2 40.1c8.7-1.8 18.4-7.8 18.3-18l-0.7-102.5c-0.1-13.4-7.6-13.2-18.5-10.8z"/>
				</g>
			</g>
			<g id="&lt;Group&gt;">
				<path id="&lt;Compound Path&gt;" class="s1" d="m867.1 187.3c0.1 11 5.2 15.8 13 14.2 7.8-1.6 12.7-8.5 12.6-19.6l-1.3-110.7 30.6-6.9 1.4 119c0.2 29.2-17.4 56.5-46.7 62.4l-1.9 0.4c-32.5 6.5-49.3-17.6-49.5-50.1l-1.1-100.1c-0.1-5.5 3.7-10.3 9.1-11.5l32.5-7.4z"/>
			</g>
			<g id="&lt;Group&gt;">
				<path id="&lt;Compound Path&gt;" fill-rule="evenodd" class="s1" d="m1034.5 101.5c0.3 35.2-15 62.8-42.8 68.8l-11.7 2.5v77.6c0 14.5-10.4 26.9-24.6 29.6l-94.9 17.6-30.1 51.7-501.7 79.3c-2.4 0.7-3.6-2.9-1.1-3.7l473.4-98.3 31.6-55.3 107-22.6-1.1-188.4 52.1-11.8c27.7-6.3 43.5 14.5 43.9 53zm-38.3 11.8l-0.1-6.7c-0.1-13.4-4.6-18.8-13.9-16.7l-4.1 0.9 0.4 45.4 4.1-0.9c8.7-2.7 13.7-11.2 13.6-22z"/>
			</g>
			<path id="&lt;Path&gt;" class="s2" d="m934.4 266l-93.2 15.5-29.8 53.1-118.2 25.3c-0.8 0.2-0.6 1.2 0.2 1.1l128.1-18.6 29.8-51.9 83.4-23.4c0.7-0.2 0.4-1.2-0.3-1.1z"/>
			<g id="&lt;Group&gt;">
				<path id="&lt;Compound Path&gt;" fill-rule="evenodd" class="s3" d="m557.9 477.5h-4.2v8.2h-4.3v-21.8h8.5c4.5 0 7.2 3.1 7.2 6.8 0 3.7-2.7 6.8-7.2 6.8zm-0.3-9.8h-3.9v6h3.9c2 0 3.2-1.2 3.2-3 0-1.8-1.2-3-3.2-3z"/>
				<path id="&lt;Compound Path&gt;" fill-rule="evenodd" class="s3" d="m581.8 485.7l-4.3-8.7h-3.1v8.7h-4.2v-21.8h8.5c4.5 0 7.1 3 7.1 6.7 0 3-1.9 4.9-4 5.7l4.9 9.4zm-3.3-18h-4v5.8h4c1.8 0 3.1-1.2 3.1-2.9 0-1.7-1.3-2.9-3.1-2.9z"/>
				<path id="&lt;Compound Path&gt;" class="s3" d="m591.7 485.7v-21.8h14.4v3.8h-10.1v5.1h8.6v3.8h-8.6v5.3h10.1v3.8z"/>
				<path id="&lt;Compound Path&gt;" class="s3" d="m617.8 485.9c-3.3 0-5.8-0.7-8-2.9l2.8-2.7c1.4 1.3 3.2 1.8 5.3 1.8 2.5 0 3.8-1 3.8-2.7 0-0.8-0.2-1.4-0.6-1.8-0.5-0.4-1-0.7-2-0.8l-2.6-0.4c-1.9-0.2-3.3-0.8-4.2-1.8q-1.6-1.5-1.6-4.3c0-3.9 2.9-6.6 7.6-6.6 3 0 5.2 0.8 7 2.6l-2.7 2.6c-1.3-1.3-3-1.5-4.4-1.5-2.3 0-3.4 1.3-3.4 2.8 0 0.5 0.2 1.1 0.6 1.5 0.5 0.4 1.2 0.8 2.1 0.9l2.5 0.4c2 0.2 3.3 0.8 4.2 1.6 1.2 1.2 1.7 2.7 1.7 4.7 0 4.2-3.5 6.6-8.1 6.6z"/>
				<path id="&lt;Compound Path&gt;" class="s3" d="m631.4 485.7v-21.8h14.4v3.8h-10.1v5.1h8.6v3.8h-8.6v5.3h10.1v3.8z"/>
				<path id="&lt;Compound Path&gt;" class="s3" d="m664.4 485.7l-8.6-13.4v13.4h-4.3v-21.8h3.8l8.6 13.4v-13.4h4.3v21.8z"/>
				<path id="&lt;Compound Path&gt;" class="s3" d="m683.1 467.7v18h-4.2v-18h-5.7v-3.8h15.6v3.8z"/>
				<path id="&lt;Compound Path&gt;" class="s3" d="m693.8 485.7v-21.8h14.4v3.8h-10.1v5.1h8.6v3.8h-8.6v5.3h10.1v3.8z"/>
				<path id="&lt;Compound Path&gt;" fill-rule="evenodd" class="s3" d="m727.5 483.6c-1.4 1.5-3.5 2.1-5.7 2.1h-7.9v-21.8h7.9c2.2 0 4.3 0.6 5.7 2.1 2.5 2.4 2.2 5.4 2.2 8.7 0 3.3 0.3 6.5-2.2 8.9zm-3-14.6c-0.7-0.8-1.7-1.3-3.1-1.3h-3.2v14.2h3.2c1.4 0 2.4-0.5 3.1-1.3 0.8-1 1-2.6 1-5.9 0-3.3-0.2-4.7-1-5.7z"/>
				<path id="&lt;Compound Path&gt;" fill-rule="evenodd" class="s3" d="m753.4 485.7h-9.2v-21.8h8.8c4.3 0 6.7 2.4 6.7 6.1 0 2.4-1.6 4-2.7 4.5 1.4 0.6 3 2 3 4.9 0 4.1-2.7 6.3-6.6 6.3zm-0.7-18h-4.2v5h4.2c1.8 0 2.8-1 2.8-2.5 0-1.5-1-2.5-2.8-2.5zm0.2 8.8h-4.4v5.4h4.4c2 0 2.9-1.2 2.9-2.7 0-1.5-0.9-2.7-2.9-2.7z"/>
				<path id="&lt;Compound Path&gt;" class="s3" d="m774.3 476.8v8.9h-4.3v-8.9l-6.5-12.9h4.6l4.1 8.8 4-8.8h4.6z"/>
			</g>
			<g id="&lt;Group&gt;">
				<path id="&lt;Compound Path&gt;" class="s1" d="m876.8 334.7l2-2.9c1.3 1 2.7 1.5 4.5 1.2 1.4-0.2 2.2-0.9 2.2-1.9v-0.1c0-0.9-0.5-1.3-3-1.6-3-0.3-5-0.9-4.9-4.2 0.1-3 2.4-5.5 5.5-6.2 2.2-0.4 4.1 0 5.6 1l-1.8 3.2c-1.4-0.8-2.7-1.1-4-0.9-1.2 0.3-1.9 1.1-2 1.9 0 1.1 0.7 1.4 3.3 1.6 3 0.3 4.7 1.3 4.7 4.3-0.1 3.4-2.5 5.7-5.8 6.2-2.3 0.4-4.6-0.1-6.3-1.6z"/>
				<path id="&lt;Compound Path&gt;" class="s1" d="m892.1 317.4l3.6-0.7 3.8 6.6 4.3-8.3 3.6-0.8-0.6 18.2-3.3 0.5 0.4-11.7-4.6 8.4h-0.1l-4-6.7-0.3 11.3-3.3 0.6z"/>
			</g>
			<g id="&lt;Group&gt;">
				<g id="&lt;Group&gt;">
					<path id="&lt;Compound Path&gt;" class="s3" d="m824.5 512.1c0 3.4 0.8 5.9 3.5 5.9 1.1 0 2.1-0.6 2.5-1.4v-2.3l-1.8-0.2v-1.6h6.5v1.6l-1.3 0.1v5.4h-1.7c-0.1-0.4-0.3-0.8-0.8-0.8-0.7 0-1.7 1-3.9 1-4.1 0-6.8-2.3-6.8-7.6 0-5.2 3.2-7.8 7.3-7.8 1.9 0 2.7 0.8 3.4 0.8 0.3 0 0.4-0.2 0.6-0.6h1.4l0.2 4.9h-1.6c-0.6-2.5-1.7-3.4-3.7-3.4-2.6 0-3.8 2.2-3.8 6z"/>
					<path id="&lt;Compound Path&gt;" fill-rule="evenodd" class="s3" d="m841.5 508.7c2.7 0 4.6 1.4 4.6 4.7 0 0.2 0 0.8 0 1.1h-6.4c0 2 0.4 3.5 2.4 3.5 1.3 0 1.9-0.8 2.4-1.9l1.5 0.5c-0.6 2-2.2 3.2-4.5 3.2-3.4 0-5.3-2.2-5.3-5.4 0-3.7 2.3-5.7 5.3-5.7zm1.3 4.4v-0.4c0-1.9-0.3-2.8-1.4-2.8-1.3 0-1.7 1.4-1.7 3.2z"/>
					<path id="&lt;Compound Path&gt;" class="s3" d="m851.6 508.8l0.1 2h0.1c0.6-1.1 1.5-2.1 3.6-2.1 2.1 0 3.3 0.9 3.3 3.4v5.8l1.4 0.2v1.4h-5.7v-1.4l1-0.2v-5.4c0-1.1-0.1-1.9-1.3-1.9-1.1 0-2 0.7-2 2.4v4.9l1.1 0.2v1.4h-5.7v-1.4l1.3-0.2v-7.3l-1.3-0.2v-1.5z"/>
					<path id="&lt;Compound Path&gt;" fill-rule="evenodd" class="s3" d="m866.3 508.7c2.8 0 4.6 1.4 4.6 4.7 0 0.2 0 0.8 0 1.1h-6.4c0 2 0.5 3.5 2.4 3.5 1.3 0 1.9-0.8 2.4-1.9l1.5 0.5c-0.6 2-2.2 3.2-4.4 3.2-3.5 0-5.3-2.2-5.3-5.4 0-3.7 2.2-5.7 5.2-5.7zm1.3 4.4v-0.4c0-1.9-0.3-2.8-1.4-2.8-1.2 0-1.6 1.4-1.7 3.2z"/>
					<path id="&lt;Compound Path&gt;" class="s3" d="m881.1 511.1h5.2v-4.7l-1.4-0.1v-1.6h6.3v1.6l-1.4 0.1v11.4l1.4 0.1v1.6h-6.3v-1.6l1.4-0.1v-4.9h-5.2v4.9l1.4 0.1v1.6h-6.3v-1.6l1.4-0.1v-11.4l-1.4-0.1v-1.6h6.3v1.6l-1.4 0.1z"/>
					<path id="&lt;Compound Path&gt;" fill-rule="evenodd" class="s3" d="m898.5 514v-1.5c0-1.7-0.4-2.6-1.9-2.6-0.6 0-1.2 0.1-1.2 0.7q0 0.1 0 0.3h0.8c0.1 0.2 0.2 0.5 0.2 0.8 0 0.8-0.6 1.5-1.7 1.5-1.1 0-1.6-0.8-1.6-1.7 0-1.7 1.5-2.8 4.2-2.8 2.9 0 4.5 0.9 4.5 4v4.4c0 0.7 0 1.1 0.5 1.1 0.1 0 0.4-0.1 0.7-0.2l0.3 1.1c-0.4 0.3-1.4 0.7-2.4 0.7-1.4 0-2-0.6-2.2-1.6-0.4 0.7-1.2 1.6-3 1.6-1.7 0-3.1-0.8-3.1-2.8 0-2.3 1.6-3 4.4-3zm0 2.4v-1.3h-0.8c-1.4 0-1.8 0.5-1.8 1.6 0 1 0.4 1.5 1.2 1.5 0.7 0 1.4-0.5 1.4-1.8z"/>
					<path id="&lt;Compound Path&gt;" fill-rule="evenodd" class="s3" d="m910.1 514v-1.5c0-1.7-0.4-2.6-1.9-2.6-0.6 0-1.2 0.1-1.2 0.7q0 0.1 0 0.3h0.8c0.1 0.2 0.2 0.5 0.2 0.8 0 0.8-0.6 1.5-1.7 1.5-1.1 0-1.6-0.8-1.6-1.7 0-1.7 1.5-2.8 4.3-2.8 2.8 0 4.4 0.9 4.4 4v4.4c0 0.7 0 1.1 0.5 1.1 0.2 0 0.4-0.1 0.7-0.2l0.3 1.1c-0.4 0.3-1.4 0.7-2.4 0.7-1.4 0-2-0.6-2.2-1.6-0.4 0.7-1.2 1.6-3 1.6-1.7 0-3.1-0.8-3.1-2.8 0-2.3 1.6-3 4.4-3zm0 2.4v-1.3h-0.8c-1.4 0-1.8 0.5-1.8 1.6 0 1 0.4 1.5 1.2 1.5 0.7 0 1.4-0.5 1.4-1.8z"/>
					<path id="&lt;Compound Path&gt;" class="s3" d="m915.8 516.1h1.3c0.4 1.3 1.5 2.2 3.1 2.2q1.8 0 1.8-1.2c0-0.9-0.9-1.1-2.1-1.3-1.8-0.3-4-0.7-4-3.5 0-2.2 1.7-3.6 3.9-3.6 1 0 1.6 0.2 2 0.5q0.3 0.1 0.5 0.1c0.3 0 0.3-0.2 0.4-0.5h1.1v3.3h-1.3c-0.5-1.4-1.3-2-2.6-2-0.8 0-1.6 0.3-1.6 1.1 0 0.8 0.9 1 2.1 1.2 1.7 0.4 4 0.8 4 3.7 0 2.3-1.5 3.7-3.9 3.7-1.3 0-2-0.4-2.6-0.7q-0.2-0.1-0.4-0.1c-0.2 0-0.3 0.2-0.4 0.6h-1.3z"/>
					<path id="&lt;Compound Path&gt;" class="s3" d="m940.5 504.7l0.2 3.8h-0.6c-0.6-2.6-1.3-3.1-3.6-3.1h-2.5v6.3h1.3c1.8 0 2.3-0.7 2.6-2.6h0.5v6.3h-0.5c-0.4-2.3-0.7-2.9-2.9-2.9h-1v6.3l2.9 0.1v0.6h-6.5v-0.6l1.8-0.1v-13.3l-1.8-0.2v-0.6z"/>
					<path id="&lt;Compound Path&gt;" fill-rule="evenodd" class="s3" d="m946.5 508.8c3 0 4.6 2.2 4.6 5.4 0 3.4-1.9 5.6-4.8 5.6-2.9 0-4.6-2.2-4.6-5.5 0-3.3 1.9-5.5 4.8-5.5zm-0.1 0.9c-2.4 0-2.9 2.3-2.9 4.5 0 2.2 0.5 4.6 2.9 4.6 2.4 0 2.9-2.2 2.9-4.5 0-2.1-0.5-4.6-2.9-4.6z"/>
					<path id="&lt;Compound Path&gt;" class="s3" d="m955.4 516.3c0 1.5 0.5 2.3 2.2 2.3 1.7 0 3.1-1.1 3.1-3.1v-5.6l-1.6-0.2v-0.7l3.1-0.1v9.8l1.4 0.1v0.7h-2.7l-0.1-1.7c-0.7 1-1.9 2-3.7 2-2.2 0-3.2-1.2-3.2-3.5v-6.4l-1.5-0.2v-0.7l3-0.1z"/>
					<path id="&lt;Compound Path&gt;" class="s3" d="m968 508.9l0.1 2c0.7-1 1.9-2.1 3.8-2.1 2.3 0 3.1 1.2 3.1 3.7v6.2l1.5 0.1v0.7h-4.5v-0.7l1.5-0.1v-6.3c0-1.7-0.4-2.5-2.2-2.5-1.6 0-3.1 1.2-3.1 2.9v5.9l1.6 0.1v0.7h-4.5v-0.7l1.3-0.1v-8.8l-1.3-0.2v-0.7z"/>
					<path id="&lt;Compound Path&gt;" fill-rule="evenodd" class="s3" d="m985.5 510.1v-5.6l-1.7-0.1v-0.7l3.3-0.1v15.1l1.5 0.1v0.7h-3l-0.1-1.6c-0.5 0.9-1.6 1.9-3.4 1.9-2.8 0-4.1-2.2-4.1-5.3 0-3.7 1.8-5.7 4.5-5.7 1.2 0 2.2 0.3 3 1.3zm0 5.7v-3.3c0-2-1.4-2.7-2.7-2.7-2.3 0-3.1 1.8-3.1 4.4 0 2.1 0.5 4.4 2.8 4.4 1.6 0 3-1.2 3-2.8z"/>
					<path id="&lt;Compound Path&gt;" fill-rule="evenodd" class="s3" d="m996.1 514v-1.4c0-1.9-0.4-3-2.2-3-0.6 0-2 0.1-2 1q0 0.1 0.1 0.2h0.6c0.1 0.3 0.2 0.6 0.2 0.8 0 0.7-0.5 1-1.1 1-0.6 0-1.1-0.4-1.1-1.2 0-1.5 1.4-2.6 3.6-2.6 2.5 0 3.5 1.1 3.5 4v4.9c0 1 0.2 1.3 0.7 1.3q0.4 0 0.7-0.2l0.2 0.7c-0.4 0.2-0.8 0.3-1.3 0.3-1 0-1.6-0.4-1.8-1.5-0.7 1-2 1.5-3.1 1.5-1.6 0-3-0.7-3-2.7 0-2.3 2-3.1 4.6-3.1zm0 2.5v-1.7h-1.4c-2.1 0-2.9 0.9-2.9 2.1 0 1.3 0.6 1.9 1.9 1.9 1.1 0 2.4-0.8 2.4-2.3z"/>
					<path id="&lt;Compound Path&gt;" class="s3" d="m1001.2 509.9h-1.6v-0.9h1.6v-2.8l1.3-0.4h0.2v3.2h2.4v0.9h-2.4v7.2c0 1.2 0.4 1.7 1.2 1.7 0.8 0 1.2-0.3 1.6-1.6l0.7 0.3c-0.4 1.6-1.3 2.3-2.5 2.3-1.7 0-2.5-0.9-2.5-2.4z"/>
					<path id="&lt;Compound Path&gt;" class="s3" d="m1010.6 508.9v9.8l1.6 0.1v0.7h-4.7v-0.7l1.6-0.1v-8.8l-1.7-0.2v-0.7zm-1-4.8c0.6 0 1.1 0.3 1.1 1.2 0 0.7-0.4 1-1 1-0.8 0-1.1-0.4-1.1-1 0-0.7 0.3-1.2 1-1.2z"/>
					<path id="&lt;Compound Path&gt;" fill-rule="evenodd" class="s3" d="m1018.5 508.8c3.1 0 4.6 2.2 4.6 5.4 0 3.4-1.8 5.6-4.7 5.6-3 0-4.6-2.2-4.6-5.5 0-3.3 1.9-5.5 4.7-5.5zm-0.1 0.9c-2.4 0-2.9 2.3-2.9 4.5 0 2.2 0.5 4.6 3 4.6 2.3 0 2.9-2.2 2.9-4.5 0-2.1-0.5-4.6-3-4.6z"/>
					<path id="&lt;Compound Path&gt;" class="s3" d="m1027.7 508.9l0.1 2c0.7-1 1.9-2.1 3.8-2.1 2.3 0 3.2 1.2 3.2 3.7v6.2l1.4 0.1v0.7h-4.5v-0.7l1.5-0.1v-6.3c0-1.7-0.4-2.5-2.2-2.5-1.6 0-3.1 1.2-3.1 2.9v5.9l1.6 0.1v0.7h-4.5v-0.7l1.4-0.1v-8.8l-1.4-0.2v-0.7z"/>
				</g>
				<g id="&lt;Group&gt;">
					<path id="&lt;Path&gt;" class="s4" d="m873.8 436.3l-17.6 30.4h-35.6l-6.4 11.1 35.6 0.1-7.5 12.8h13l31.4-54.4z"/>
					<path id="&lt;Path&gt;" class="s4" d="m899.9 436.3l-17.6 30.4h-9.5l-6.4 11.1 9.5 0.1-7.5 12.8h13l31.4-54.4z"/>
					<path id="&lt;Path&gt;" class="s4" d="m919 436.3l-31.5 54.4h12.9l31.5-54.4z"/>
					<path id="&lt;Path&gt;" class="s4" d="m956.4 436.3l-22.7 39.3v-36.3l-10.9 18.7v8.7h-5l-6.5 11.1 11.5 0.1v12.8h15.1l31.5-54.4z"/>
					<path id="&lt;Path&gt;" class="s4" d="m1001.4 447.8h35.4l6.8-11.5h-47.2c-2.2 0-4.3 1.2-5.4 3.1l-12.8 21.9c-1.9 3.2 0.4 7.2 4.2 7.2h16.9l-5.7 9.5c-0.5 0.9-1.5 1.5-2.6 1.5h-19.5v-40l-10.9 18.7v8.4 0.1h-5l-6.5 11.1 11.5 0.1v12.8h8.3 27.1c2.3 0 4.3-1.2 5.5-3.1l13.5-23.1c1.8-3.2-0.5-7.3-4.2-7.3h-16.4l4.8-8.1c0.5-0.8 1.3-1.3 2.2-1.3z"/>
				</g>
			</g>
		</g>
	</g>
</svg>