<?xml version="1.0" encoding="utf-8"?>
<!-- Generator: Adobe Illustrator 27.2.0, SVG Export Plug-In . SVG Version: 6.00 Build 0)  -->
<svg version="1.1" xmlns="http://www.w3.org/2000/svg" xmlns:xlink="http://www.w3.org/1999/xlink" x="0px" y="0px"
	 viewBox="0 0 367 360" style="enable-background:new 0 0 367 360;" xml:space="preserve">
<style type="text/css">
	.st0{fill:#FFCB05;}
	.st1{fill:#FFFFFF;}
</style>
<g id="Master_M_and_U-M_line">
	<polygon class="st0" points="187.2,175.4 147.1,120.5 147.1,160.4 163,160.4 163,199.9 89.2,199.9 89.2,160.4 104.2,160.4 
		104.2,99.1 89.2,99.1 89.2,59.7 147.2,59.7 187.2,114.9 227.2,59.7 285.2,59.7 285.2,99.1 270.2,99.1 270.2,160.4 285.2,160.4 
		285.2,199.9 211.4,199.9 211.4,160.4 227.3,160.4 227.3,120.5 187.2,175.4 	"/>
	<path class="st1" d="M236.1,225.5 M312.9,316.5v-0.8c1-0.1,1.8-0.1,1.8-1c0-0.3-0.1-0.6-0.2-0.9l-0.4-1.5h-5.1l-0.5,1.3
		c-0.1,0.3-0.2,0.6-0.2,0.9c0,1,1.1,1.1,2,1.1v0.8h-6v-0.8c1.5-0.1,2-0.4,2.6-1.9l4-10.8l-0.2-0.4c1.7-0.6,2.2-0.8,2.9-1.3
		c0.3,1,0.3,1.1,0.6,2.2l3.2,9.9c0.6,1.8,0.8,2.2,2.4,2.4v0.8H312.9L312.9,316.5z M311.6,304.8l-2.1,6.1h4.2L311.6,304.8
		L311.6,304.8z M260.7,313.3c-0.7,1-2.2,3.6-6.2,3.6c-4.4,0-7.2-3.2-7.2-7.5c0-4,2.4-7.9,7.3-7.9c2.6,0,4,1.1,4.8,1.8l1-0.9l0.1,4.4
		l-0.7,0.1c-0.3-0.9-0.6-1.6-1.6-2.6c-0.5-0.5-1.5-1.4-3.1-1.4c-2.6,0-4.7,2.2-4.7,5.9c0,3.2,1.7,6.2,5.1,6.2c2.5,0,3.5-1.4,4.3-2.5
		L260.7,313.3L260.7,313.3z M263.2,316.5v-0.8c1.7-0.1,1.7-0.5,1.7-1.9c0-0.5,0-1,0-1.5v-6.1c0-1,0-1.9-0.1-2.4
		c-0.1-0.9-0.5-1-1.6-1.1v-0.8h6.3v0.8c-1.2,0.1-1.7,0.2-1.8,1c-0.1,0.5-0.1,1.5-0.1,2.4v2c1.3,0.1,2.2,0.1,3.4,0.1
		c1.2,0,2.2,0,3.5-0.1v-2.5c0-2.7,0-2.8-2-2.9v-0.8h6.3v0.8c-1.7,0.2-1.7,0.2-1.7,3v6.2c0,0.6,0,2.4,0.1,2.9c0.1,0.7,0.5,0.9,1.6,1
		v0.8h-6.3v-0.8c1.5-0.2,1.9-0.2,2-1.2c0-0.4,0-1,0-2v-2.7c-1.2,0-2.1-0.1-3.3-0.1c-1.3,0-2.3,0-3.5,0.1v2.7c0,3,0.1,3,2,3.2v0.8
		H263.2L263.2,316.5z M281.2,316.5v-0.8c1.4-0.2,1.7-0.4,1.8-1.9V312v-5.9c0-3,0-3.1-1.8-3.4v-0.8h6.1v0.8c-1.7,0.2-1.7,0.2-1.7,3.4
		v5.9c0,0.5,0,2.2,0.1,2.6c0.1,0.9,0.5,1.1,1.6,1.2v0.8H281.2L281.2,316.5z M239.6,316.5v-0.8c1.4-0.2,1.7-0.4,1.7-1.9V312v-5.9
		c0-3,0-3.1-1.7-3.4v-0.8h6.1v0.8c-1.7,0.2-1.7,0.2-1.7,3.4v5.9c0,0.5,0,2.2,0.1,2.6c0.1,0.9,0.5,1.1,1.7,1.2v0.8H239.6L239.6,316.5
		z M230.4,316.5v-0.8c1.9-0.1,1.9-0.2,1.9-2.9v-7.4l-5.1,11.2h-1.3l-4.7-11.4l-0.1,8.6c0,1.4,0.2,1.7,1.7,1.8v0.8h-5.1v-0.8
		c1.2-0.1,1.6-0.2,1.7-1.2c0.1-0.4,0.1-1.6,0.1-2.4l0.2-6.1c0-0.5,0-1.2,0-1.7c0-1.4-0.3-1.6-1.6-1.6v-0.8h4.6l4.6,11.1l5-11.1h4.4
		v0.9c-1.7,0.1-1.8,0.3-1.7,2.6v6c0,1,0,2.2,0.1,3c0.1,1.1,0.5,1.3,1.7,1.4v0.8H230.4L230.4,316.5z M320.7,316.5v-0.8
		c1.2-0.1,1.7-0.1,1.8-0.9c0.2-1,0.3-9.6,0.3-11.1c-0.8-0.7-1.1-0.9-2.1-1v-0.8h4.4c1.2,1.7,1.5,2.1,3.6,4.8l4.1,5v-6.5
		c0-2.3-0.1-2.4-2.4-2.5v-0.8h5.8v0.8c-1.6,0-1.7,0.3-1.8,2.7l-0.2,11.3h-0.9l-1.3-1.6c-0.7-0.8-1.3-1.7-2-2.5l-5.8-7.1v7.6
		c0,2.4,0.2,2.4,2.4,2.7v0.8H320.7L320.7,316.5z M198.8,309.2c0,5-3.4,7.7-7.3,7.7c-4.3,0-7.6-3.1-7.6-7.7c0-4,2.7-7.6,7.4-7.6
		C195.7,301.6,198.8,304.8,198.8,309.2L198.8,309.2z M191.4,315.5c0.8,0,2-0.4,2.9-1.8c1-1.6,1.3-3,1.2-4.9
		c-0.1-1.9-0.6-3.5-1.7-4.7c-0.5-0.5-1.4-1.2-2.6-1.2c-1.2,0-2.1,0.8-2.6,1.3c-1,1.2-1.5,2.8-1.5,4.7c0,1.9,0.3,3.4,1.3,4.9
		C189.5,315.2,190.6,315.5,191.4,315.5L191.4,315.5z M200.2,315.7v0.8h6.1v-0.8c-1.5-0.2-1.7-0.3-1.8-1.9l0-4.2h1.6
		c1.6,0,2.5,0.1,2.6,1.8h0.7v-4.8h-0.7c-0.1,1.6-0.5,1.7-2.3,1.7h-1.9v-5.1c0.5-0.1,0.8-0.1,1.8-0.1c2.8,0,3.8,0,4.2,2.2h0.7
		l-0.2-3.6h-10.7v0.8c1.1,0.1,1.5,0.2,1.7,0.9c0.1,0.4,0.1,2.1,0.1,2.6v5.1c0,0.4,0,2.2-0.1,2.5
		C201.9,315.4,201.7,315.6,200.2,315.7L200.2,315.7z M74.6,316.4v-0.8c1.4-0.2,1.7-0.4,1.8-1.9v-1.9V306c0-3,0-3.1-1.8-3.4v-0.8h6.1
		v0.8c-1.7,0.2-1.7,0.2-1.7,3.4v5.9c0,0.5,0,2.2,0.1,2.6c0.1,0.9,0.5,1.1,1.6,1.2v0.8H74.6L74.6,316.4z M139,316.4v-0.8
		c1.4-0.2,1.7-0.4,1.7-1.9v-1.9V306c0-3,0-3.1-1.7-3.4v-0.8h6.1v0.8c-1.7,0.2-1.7,0.2-1.7,3.4v5.9c0,0.5,0,2.2,0.1,2.6
		c0.1,0.9,0.5,1.1,1.7,1.2v0.8H139L139,316.4z M56.8,316.4v-0.8c1.2-0.1,1.6-0.1,1.8-0.9c0.2-1,0.3-9.7,0.3-11.2
		c-0.8-0.7-1.1-0.9-2.1-1v-0.8h4.4c1.2,1.8,1.5,2.2,3.6,4.8l4.1,5v-6.6c0-2.3-0.1-2.4-2.4-2.5v-0.8h5.8v0.8c-1.6,0-1.7,0.4-1.8,2.7
		l-0.2,11.3h-0.9l-1.3-1.6c-0.7-0.8-1.3-1.6-2-2.5l-5.8-7.1v7.6c0,2.4,0.2,2.4,2.4,2.7v0.8H56.8L56.8,316.4z M126.9,311.9l0.7-0.1
		c0.8,2.4,2.2,3.7,4.3,3.7c1.5,0,2.9-0.7,2.9-2.2c0-1.6-1.6-2.3-2.3-2.6c-0.6-0.2-1.2-0.4-1.8-0.6c-1.2-0.4-3.5-1.4-3.5-4.2
		c0-2.7,2.2-4.3,4.7-4.3c1,0,2.1,0.2,3.3,1l0.9-0.6l0.5,4.3l-0.7,0.1c-0.3-0.9-0.4-1.4-1-2.2c-0.7-0.9-1.7-1.3-2.8-1.3
		c-1.6,0-2.5,0.8-2.5,1.9c0,1.7,1.7,2.3,3.3,2.9c0.8,0.3,1.5,0.5,2.1,0.8c1.2,0.7,2.1,2,2.1,3.7c0,2.5-2.1,4.6-5.1,4.6
		c-2,0-3.2-0.8-3.8-1.2l-1.2-0.9L126.9,311.9L126.9,311.9z M150.9,316.4v-0.6c1.3,0,1.7-0.5,1.7-1.7v-10.7h-1.8
		c-1.6,0-2.7-0.1-2.9,2.5h-0.8l0.1-4.1h13.3l0.1,4.1h-0.8c-0.1-2.6-1.2-2.5-2.9-2.5h-1.8v10.7c0,1.2,0.4,1.7,1.7,1.7v0.6H150.9
		L150.9,316.4z M45.6,301.8v0.8c-1.9,0.1-1.9,0.2-2,3.3v3.4c0,1.8,0.1,3.3,1,4.7c0.8,1.1,2,1.2,2.7,1.2c2.1,0,3.2-1.1,3.8-2.8
		c0.4-1.4,0.4-3.9,0.4-5.6c0-0.5,0-2.3,0-2.8c-0.1-1.3-0.8-1.4-2.1-1.5v-0.8H55v0.8c-1.4,0-1.6,0.3-1.7,1.7c0,0.4-0.2,4.4-0.2,5
		c0,1.1-0.1,2.2-0.4,3.3c-1,3.9-4.8,4.1-5.8,4.1c-0.8,0-2.5-0.1-3.8-1c-2.2-1.5-2.2-3.7-2.2-6v-3.3c0-1.6,0-2.3-0.1-2.6
		c-0.1-0.9-0.6-1.1-1.7-1.2v-0.8H45.6L45.6,301.8z M97.5,301.8v0.8c-1.4,0.2-1.6,0.6-2.8,3.5l-4.5,10.6h-0.8l-4-10.8
		c-1-2.8-1.1-3.1-2.6-3.3v-0.8h6.9v0.8c-1.2,0.1-1.9,0.1-1.9,0.9c0,0.4,0.1,0.8,0.5,2l2.5,7.4l3-7.7c0.2-0.5,0.4-1.2,0.4-1.5
		c0-1.1-1-1.1-2-1.1v-0.8H97.5L97.5,301.8z M166.7,316.4v-0.8c1.1-0.1,1.6-0.2,1.9-0.5c0.3-0.3,0.3-0.7,0.4-2.3v-2.6l-3.9-6
		c-1.1-1.6-1.1-1.6-2.5-1.7v-0.8h7.6v0.8c-1.5,0.1-2.2,0.1-2.2,0.8c0,0.4,0.3,0.8,0.6,1.5l2.2,3.7l2.1-3.7c0.4-0.7,0.6-1.2,0.6-1.5
		c0-0.7-0.6-0.7-1.6-0.8v-0.8h5.7v0.8c-1.5,0.1-1.9,0.5-3.6,3.2l-2.3,3.8v3c0,2.7,0,2.8,2.2,3v0.8H166.7L166.7,316.4z M110,316.4
		c0-1.1,0.2-2.8,0.3-3.8h-0.7c-0.5,2.6-2,2.5-4.1,2.5c-2,0-2.3-0.5-2.3-1.5v-4.1h1.6c1.8,0,2.3,0.2,2.3,1.8h0.7v-4.8H107
		c-0.1,1.3-0.4,1.7-2.3,1.7h-1.6v-5.2h1.8c2.5,0,3.4,0.2,3.7,2.2h0.7l-0.1-3.5H98.8v0.8c1.1,0.1,1.5,0.2,1.6,0.9
		c0.1,0.4,0.1,2.1,0.1,2.7v5.1c0,0.4,0,2.2,0,2.5c0,1.6-0.2,1.8-1.7,1.9v0.8H110L110,316.4z M303.5,310.1v0.8
		c-1.3,0.1-1.3,0.5-1.4,3.2v1.1c-1.1,0.7-2.7,1.7-5.6,1.7c-5,0-7.4-3.8-7.4-7.6c0-4.7,3.1-7.7,7.1-7.7c2.5,0,3.9,1,5.1,1.7l0.8-0.9
		l0.1,4.6l-0.6,0.1c-0.3-0.9-0.7-1.9-1.9-3c-0.5-0.5-1.4-1.1-2.9-1.1c-2.6,0-4.7,2.2-4.7,6.4c0,3.3,1.6,6.2,4.5,6.2
		c1.6,0,2.5-1.1,2.6-1.2c0.3-0.4,0.3-0.7,0.3-1.4c-0.1-1.9-0.3-1.9-1.9-2.1v-0.8H303.5L303.5,310.1z M116.8,308.6
		c0.4,0.1,1,0.1,1.4,0.1c1.7,0,2.9-1.3,3-2.4c0.1-1.7-0.8-3.2-3.5-3.2c-0.4,0-0.6,0-0.9,0.1V308.6L116.8,308.6z M116.8,311.8
		c0,3.3,0,3.8,1.8,3.9v0.8h-6.1v-0.8c1.6-0.1,1.7-0.4,1.8-2c0-0.6,0-1.3,0-1.9v-5.3c0-1.8,0-2.4-0.1-2.9c-0.1-0.8-0.5-0.9-1.7-1
		v-0.8l6.6,0c3.6,0,4.7,1.7,4.7,3.8c0,1.4-0.9,3.2-2.9,3.8l2.6,4.5c0.9,1.7,1.4,2.1,2.6,2.3v0.5c-0.3,0-0.6,0-1,0
		c-2.7,0-3.9-0.9-5-3.4l-0.8-1.7c-0.9-1.9-1.1-1.8-2.5-1.8L116.8,311.8L116.8,311.8z M116.8,311.8 M76.5,286.4 M109.2,286.4
		 M138.6,286.2 M145.8,286.4 M169.8,286.4 M182.6,286.4 M202.1,286.4 M243.2,286.4 M267.3,286.4 M296.6,286.2"/>
</g>
<g id="CoE">
	<g>
		<path class="st1" d="M102.6,247.4v-28h9.4l4.4,19h0.1l4.7-19h9.1v28h-5.7v-21.6h-0.1l-5.4,21.6h-5.6l-5.1-21.6h-0.1v21.6H102.6z"
			/>
		<path class="st1" d="M135,247.4v-28h5.9v28H135z"/>
		<path class="st1" d="M145.5,233.4c0-7.4,0-14.5,9.7-14.5c6,0,8.4,3.3,8.1,9.3h-5.7c0-3.7-0.7-5.1-2.4-5.1c-3.3,0-3.7,3.1-3.7,10.3
			c0,7.2,0.4,10.3,3.7,10.3c2.7,0,2.6-3.5,2.7-5.7h5.8c0,7.5-3,9.9-8.5,9.9C145.5,247.9,145.5,240.7,145.5,233.4z"/>
		<path class="st1" d="M180.1,230.6v-11.2h5.9v28h-5.9v-12.5h-6.7v12.5h-5.9v-28h5.9v11.2H180.1z"/>
		<path class="st1" d="M191,247.4v-28h5.9v28H191z"/>
		<path class="st1" d="M214.6,228c0-2.6-0.4-4.9-3.5-4.9c-3.6,0-3.6,4.9-3.6,10.4c0,8.8,0.9,10.3,4.2,10.3c1,0,2-0.2,2.9-0.5V237
			h-3.2v-4.3h9v14.2c-1.6,0.3-5.6,0.9-7.9,0.9c-9.9,0-11-4.1-11-14.7c0-7.1,0.3-14.2,9.9-14.2c5.7,0,9.3,3.2,9,9.1H214.6z"/>
		<path class="st1" d="M223.4,247.4l7.8-28h7.7l7.6,28h-6.2l-1.6-6.2h-8l-1.6,6.2H223.4z M234.6,224.8L234.6,224.8l-2.8,12.1h5.6
			L234.6,224.8z"/>
		<path class="st1" d="M249.2,247.4v-28h7.9l7.4,19.4h0.1v-19.4h5.5v28h-7.7l-7.6-20.5h-0.1v20.5H249.2z"/>
		<path class="st1" d="M75.7,286.2v-28H91v4.3h-9.4v6.9h8.7v4.3h-8.7v8.2h9.7v4.3H75.7z"/>
		<path class="st1" d="M95.2,286.2v-28h7.9l7.4,19.4h0.1v-19.4h5.5v28h-7.7l-7.6-20.5h-0.1v20.5H95.2z"/>
		<path class="st1" d="M133.8,266.8c0-2.6-0.4-4.9-3.5-4.9c-3.6,0-3.6,4.9-3.6,10.4c0,8.8,0.9,10.3,4.2,10.3c1,0,2-0.2,2.9-0.5v-6.2
			h-3.2v-4.3h9v14.2c-1.6,0.3-5.6,0.9-7.9,0.9c-9.9,0-11-4.1-11-14.7c0-7.1,0.3-14.2,9.9-14.2c5.7,0,9.3,3.2,9,9.1H133.8z"/>
		<path class="st1" d="M144.7,286.2v-28h5.9v28H144.7z"/>
		<path class="st1" d="M155.5,286.2v-28h7.9l7.4,19.4h0.1v-19.4h5.5v28h-7.7l-7.6-20.5H161v20.5H155.5z"/>
		<path class="st1" d="M181.3,286.2v-28h15.3v4.3h-9.4v6.9h8.7v4.3h-8.7v8.2h9.7v4.3H181.3z"/>
		<path class="st1" d="M200.7,286.2v-28H216v4.3h-9.4v6.9h8.7v4.3h-8.7v8.2h9.7v4.3H200.7z"/>
		<path class="st1" d="M225.8,286.2H220v-28h10.8c4,0,6.6,2.6,6.6,7.3c0,3.6-1.4,6.2-5.2,6.9v0.1c1.3,0.2,5.1,0.5,5.1,5.5
			c0,1.8,0.1,7.1,0.7,8.2h-5.7c-0.8-1.7-0.6-3.6-0.6-5.4c0-3.3,0.3-6.2-4.2-6.2h-1.5V286.2z M225.8,270.3h2.6c2.3,0,3-2.3,3-4.1
			c0-2.7-1.1-3.7-3-3.7h-2.6V270.3z"/>
		<path class="st1" d="M241.7,286.2v-28h5.9v28H241.7z"/>
		<path class="st1" d="M252.5,286.2v-28h7.9l7.4,19.4h0.1v-19.4h5.5v28h-7.7l-7.6-20.5H258v20.5H252.5z"/>
		<path class="st1" d="M291.1,266.8c0-2.6-0.4-4.9-3.5-4.9c-3.6,0-3.6,4.9-3.6,10.4c0,8.8,0.9,10.3,4.2,10.3c1,0,2-0.2,2.9-0.5v-6.2
			h-3.2v-4.3h9v14.2c-1.6,0.3-5.6,0.9-7.9,0.9c-9.9,0-11-4.1-11-14.7c0-7.1,0.3-14.2,9.9-14.2c5.7,0,9.3,3.2,9,9.1H291.1z"/>
	</g>
</g>
</svg>
