<?xml version="1.0" encoding="UTF-8" standalone="no"?>
<svg
   xmlns:dc="http://purl.org/dc/elements/1.1/"
   xmlns:cc="http://creativecommons.org/ns#"
   xmlns:rdf="http://www.w3.org/1999/02/22-rdf-syntax-ns#"
   xmlns:svg="http://www.w3.org/2000/svg"
   xmlns="http://www.w3.org/2000/svg"
   viewBox="0 0 189.33333 74.666664"
   height="74.666664"
   width="189.33333"
   xml:space="preserve"
   id="svg2"
   version="1.1"><metadata
     id="metadata8"><rdf:RDF><cc:Work
         rdf:about=""><dc:format>image/svg+xml</dc:format><dc:type
           rdf:resource="http://purl.org/dc/dcmitype/StillImage" /></cc:Work></rdf:RDF></metadata><defs
     id="defs6" /><g
     transform="matrix(1.3333333,0,0,-1.3333333,0,74.666667)"
     id="g10"><g
       transform="scale(0.1)"
       id="g12"><path
         id="path14"
         style="fill:#ffffff;fill-opacity:1;fill-rule:nonzero;stroke:none"
         d="m 980.699,8.94922 v 1.71098 c 2.153,0.1601 3.832,0.3203 3.832,2.0703 0,0.6289 -0.191,1.3281 -0.351,1.8789 l -0.981,3.2812 h -11.211 l -0.968,-2.7695 c -0.2,-0.6719 -0.43,-1.293 -0.43,-1.9609 0,-2.2618 2.379,-2.4219 4.332,-2.5 V 8.94922 H 961.84 v 1.71098 c 3.32,0.1601 4.41,0.8203 5.621,4.1406 l 8.59,23.5976 -0.5,0.7813 c 3.711,1.2109 4.719,1.7617 6.328,2.9297 0.621,-2.1485 0.699,-2.418 1.402,-4.6875 l 7.071,-21.6016 c 1.25,-3.832 1.839,-4.7695 5.199,-5.1211 V 8.94922 Z m -2.847,25.49998 -4.653,-13.1601 h 9.141 z M 867.148,16.0195 c -1.41,-2.2695 -4.769,-7.92966 -13.558,-7.92966 -9.57,0 -15.781,7.07036 -15.781,16.35936 0,8.6016 5.281,17.0703 16.019,17.0703 5.621,0 8.633,-2.3789 10.473,-3.8203 l 2.148,1.9922 0.192,-9.6133 -1.411,-0.3086 c -0.539,1.8711 -1.359,3.3516 -3.429,5.5821 -0.981,1.0586 -3.321,3.1289 -6.641,3.1289 -5.781,0 -10.281,-4.6914 -10.281,-12.9297 0,-7 3.711,-13.5625 11.062,-13.5625 5.579,0 7.688,3.0898 9.329,5.4726 z M 872.5,8.94922 v 1.71098 c 3.629,0.3203 3.672,1.1015 3.672,4.1406 0.039,1.1406 0.039,2.2695 0.039,3.3984 v 13.3203 c 0,2.0703 0,4.1407 -0.16,5.1211 -0.153,1.9102 -1.051,2.1875 -3.551,2.3789 v 1.7188 h 13.629 v -1.7188 c -2.649,-0.2304 -3.668,-0.3476 -3.981,-2.0703 -0.199,-1.0508 -0.269,-3.3984 -0.269,-5.3086 v -4.3711 c 2.73,-0.1601 4.68,-0.1992 7.34,-0.1992 2.691,0 4.84,0.0781 7.543,0.1992 v 5.3516 c -0.043,5.7773 -0.082,6.0078 -4.422,6.3984 v 1.7188 h 13.789 V 39.0195 C 902.422,38.5898 902.422,38.5508 902.422,32.5 V 19.1016 c 0,-1.25 0.078,-5.2735 0.199,-6.211 0.231,-1.6797 1.168,-1.9922 3.508,-2.2304 V 8.94922 H 892.34 v 1.71098 c 3.211,0.3593 4.07,0.4687 4.34,2.6601 0.082,0.9414 0.082,2.1094 0.082,4.4102 v 5.8593 c -2.5,0.0821 -4.614,0.1993 -7.231,0.1993 -2.73,0 -4.883,-0.0782 -7.652,-0.1993 v -5.8593 c 0.07,-6.6016 0.152,-6.6016 4.25,-7.0313 V 8.94922 Z m 39.262,0 v 1.71098 c 3.117,0.4296 3.707,0.789 3.789,4.1093 v 16.9493 c -0.082,6.6015 -0.082,6.8007 -3.789,7.3007 v 1.7188 h 13.199 v -1.7188 c -3.711,-0.3476 -3.711,-0.5 -3.711,-7.3007 V 18.8711 c 0,-1.1406 0.039,-4.6914 0.121,-5.6328 0.231,-1.9492 1.129,-2.3789 3.59,-2.5781 V 8.94922 Z m -90.59,0 v 1.71098 c 3.129,0.4296 3.75,0.789 3.789,4.1093 v 16.9493 c -0.039,6.6015 -0.039,6.8007 -3.789,7.3007 v 1.7188 h 13.207 v -1.7188 c -3.758,-0.3476 -3.758,-0.5 -3.758,-7.3007 V 18.8711 c 0,-1.1406 0.078,-4.6914 0.16,-5.6328 0.239,-1.9492 1.129,-2.3789 3.598,-2.5781 V 8.94922 Z m -20.043,0 v 1.71098 c 4.031,0.2812 4.031,0.4687 4.07,6.3281 V 33.0117 L 794.059,8.55078 h -2.77 L 781.09,33.3594 780.859,14.6484 c 0,-3.1289 0.352,-3.707 3.711,-3.9492 V 8.94922 h -11.019 v 1.74998 c 2.539,0.1211 3.558,0.4727 3.719,2.6211 0.109,0.8594 0.23,3.5586 0.308,5.3086 l 0.434,13.2813 c 0.039,1.0586 0.039,2.5781 0.039,3.7109 0,3.168 -0.629,3.3984 -3.481,3.3984 v 1.7188 h 10 l 9.918,-24.0977 10.903,24.0977 h 9.687 v -1.8672 c -3.789,-0.2422 -3.828,-0.6328 -3.789,-5.5898 V 20.1992 c 0,-2.1875 0.039,-4.8906 0.16,-6.5273 0.192,-2.3008 1.09,-2.7305 3.629,-2.9727 V 8.98047 h -13.949 z m 196.492,0 v 1.71098 c 2.609,0.1601 3.629,0.1992 3.979,2 0.43,2.1093 0.59,20.9687 0.59,24.289 -1.72,1.6016 -2.46,1.9219 -4.569,2.0703 v 1.7188 h 9.569 c 2.65,-3.7891 3.2,-4.6094 7.89,-10.4297 l 8.9,-11.0078 v 14.25 c -0.03,5.039 -0.19,5.3203 -5.23,5.4687 v 1.7188 h 12.54 v -1.7188 c -3.48,-0.039 -3.79,-0.7382 -3.83,-5.9297 l -0.43,-24.53902 h -1.91 l -2.85,3.55862 c -1.45,1.8008 -2.89,3.5898 -4.34,5.3515 l -12.54,15.5079 V 16.4805 c 0,-5.1094 0.35,-5.3086 5.2,-5.7813 V 8.94922 Z M 732.379,24.8789 c 0,-10.9687 -7.5,-16.71874 -15.93,-16.71874 -9.258,0 -16.449,6.67964 -16.449,16.80074 0,8.668 5.82,16.5196 16.02,16.4883 9.64,-0.039 16.359,-6.9179 16.359,-16.5703 z M 716.48,11.0898 c 1.801,0.0391 4.34,0.8985 6.29,3.9493 2.269,3.4414 2.742,6.5625 2.621,10.7422 -0.161,4.0976 -1.289,7.6171 -3.629,10.1171 -1.024,1.0899 -3.012,2.6524 -5.711,2.6211 -2.61,0 -4.571,-1.6797 -5.582,-2.8203 -2.27,-2.539 -3.278,-6.0898 -3.278,-10.1875 0,-4.1406 0.539,-7.3125 2.887,-10.6719 2.07,-2.9609 4.613,-3.75 6.402,-3.75 z m 19.071,-0.3906 V 8.94922 h 13.199 v 1.74998 c -3.281,0.3203 -3.711,0.6719 -3.828,4.1016 l 0.039,9.1094 h 3.519 c 3.551,0 5.469,-0.3594 5.661,-3.9102 h 1.558 v 10.5117 h -1.558 c -0.161,-3.4414 -1.09,-3.7929 -5,-3.7929 h -4.18 v 11.0117 c 1.129,0.1601 1.758,0.1601 3.789,0.1601 6.211,0 8.199,0.0391 9.059,-4.9218 h 1.57 l -0.469,7.7695 h -23.359 v -1.7188 c 2.301,-0.1914 3.32,-0.3476 3.629,-1.8281 0.23,-0.9805 0.23,-4.4922 0.23,-5.7812 V 20.2305 c 0,-0.8203 -0.031,-4.6797 -0.07,-5.4297 -0.078,-3.4297 -0.512,-3.7813 -3.789,-4.1016 z M 462.27,9.17969 v 1.71871 c 3.121,0.3907 3.71,0.7422 3.781,4.1016 v 16.9102 c -0.071,6.6406 -0.071,6.8398 -3.781,7.3515 v 1.7188 h 13.199 v -1.7188 c -3.707,-0.3515 -3.707,-0.5117 -3.707,-7.3515 V 19.1016 c 0,-1.1328 0,-4.6914 0.117,-5.6211 0.23,-1.961 1.133,-2.3907 3.59,-2.5821 V 9.17969 Z m 140.07,0 v 1.71871 c 3.09,0.3907 3.75,0.7422 3.75,4.1016 v 16.9102 c 0,6.6406 0,6.8398 -3.75,7.3515 v 1.7188 h 13.211 v -1.7188 c -3.75,-0.3515 -3.75,-0.5117 -3.75,-7.3515 V 19.1016 c 0,-1.1328 0.039,-4.6914 0.109,-5.6211 0.238,-1.961 1.141,-2.3907 3.641,-2.5821 V 9.17969 Z m -178.789,0 v 1.71871 c 2.621,0.1211 3.597,0.1914 3.949,1.9922 0.469,2.1094 0.59,20.9805 0.621,24.2578 -1.75,1.6407 -2.461,1.9102 -4.57,2.1133 v 1.7188 h 9.539 c 2.648,-3.7891 3.238,-4.6524 7.93,-10.4688 l 8.859,-10.9804 V 33.75 c -0.039,5.0781 -0.149,5.3086 -5.231,5.5117 v 1.7188 h 12.543 v -1.7188 c -3.48,-0.0429 -3.793,-0.7812 -3.832,-5.9414 L 452.93,8.75 h -1.91 l -2.821,3.5898 c -1.437,1.8008 -2.89,3.6016 -4.328,5.3594 l -12.582,15.5 V 16.7188 c 0,-5.1172 0.391,-5.3086 5.231,-5.7774 V 9.17969 Z m 152.5,9.92191 1.648,0.1601 c 1.75,-5.1601 4.641,-7.9726 9.449,-7.9726 3.364,0 6.332,1.4414 6.332,4.8398 0,3.6406 -3.441,5.043 -5,5.7109 -1.25,0.461 -2.582,0.8907 -3.871,1.3985 -2.621,0.9414 -7.5,2.9726 -7.5,9.1406 0,5.9414 4.692,9.2617 10.121,9.2617 2.11,0 4.571,-0.3906 7.301,-2.1523 l 1.949,1.4101 1.02,-9.4492 -1.559,-0.3203 c -0.589,2.0703 -0.98,3.0117 -2.23,4.7305 -1.52,1.9492 -3.672,2.8906 -6.211,2.8906 -3.359,0 -5.352,-1.6406 -5.352,-4.1406 0,-3.7891 3.75,-5.0781 7.301,-6.25 1.801,-0.5899 3.281,-1.0899 4.571,-1.8399 2.539,-1.4804 4.609,-4.289 4.609,-8.0781 0,-5.5117 -4.527,-10.04296 -11.207,-10.04296 -4.332,0 -6.992,1.72266 -8.242,2.49996 l -2.66,1.9102 z M 628.32,9.17969 v 1.37111 c 2.93,0.0703 3.75,1.0898 3.75,3.6289 v 23.4414 h -3.949 c -3.59,0 -5.973,0.1094 -6.242,-5.5508 h -1.68 l 0.27,8.9102 h 28.871 l 0.269,-8.9102 h -1.679 c -0.27,5.6602 -2.66,5.5508 -6.25,5.5508 h -3.95 V 14.1797 c 0,-2.5391 0.821,-3.5899 3.719,-3.6289 V 9.17969 Z M 399.219,40.9805 V 39.2617 C 395,38.9805 395,38.8281 394.922,32.0313 v -7.461 c 0,-3.8711 0.117,-7.1914 2.148,-10.1601 1.641,-2.3789 4.379,-2.6485 5.782,-2.6485 4.57,0 7.07,2.3399 8.168,6.0899 0.89,2.9687 0.929,8.5586 0.929,12.2265 0,1.1719 0,4.961 -0.039,5.9727 -0.191,2.9297 -1.68,2.9687 -4.531,3.25 v 1.7187 h 12.109 v -1.7187 c -2.968,0.039 -3.59,-0.6719 -3.789,-3.832 -0.039,-0.7383 -0.39,-9.5704 -0.429,-10.9375 -0.11,-2.4219 -0.231,-4.8008 -0.782,-7.1094 -2.148,-8.55081 -10.468,-8.98049 -12.687,-8.98049 -1.762,0 -5.391,0.26953 -8.36,2.25779 -4.691,3.1719 -4.769,7.9727 -4.769,13.0899 v 7.1914 c -0.043,3.4297 -0.043,5 -0.121,5.7812 -0.27,1.9883 -1.25,2.3789 -3.629,2.5 v 1.7188 z m 112.73,0 v -1.7188 c -3.078,-0.4336 -3.469,-1.2929 -6.09,-7.6211 L 496.172,8.55078 h -1.723 l -8.668,23.43752 c -2.191,6.0625 -2.422,6.8008 -5.621,7.2734 v 1.7188 h 15.07 v -1.7188 c -2.57,-0.082 -4.21,-0.1601 -4.21,-1.9922 0,-0.9414 0.191,-1.6797 1.05,-4.3789 l 5.551,-16.1289 6.481,16.7188 c 0.429,1.1289 0.937,2.539 0.937,3.3593 0,2.3008 -2.23,2.379 -4.219,2.4219 v 1.7188 z M 662.66,9.17969 v 1.71871 c 2.5,0.2735 3.43,0.3516 4.059,0.9805 0.742,0.6992 0.742,1.5195 0.781,5 v 5.582 l -8.441,13.1289 c -2.297,3.4297 -2.34,3.5118 -5.387,3.6719 v 1.7578 h 16.527 v -1.7578 c -3.32,-0.082 -4.808,-0.1601 -4.808,-1.6836 0,-0.8984 0.589,-1.8789 1.41,-3.1992 l 4.84,-7.9687 4.488,7.9296 c 0.781,1.5586 1.293,2.5 1.293,3.2383 0,1.5235 -1.332,1.5625 -3.551,1.7227 v 1.75 h 12.418 v -1.75 c -3.199,-0.1211 -4.141,-1.0625 -7.769,-7 l -4.969,-8.2813 v -6.6406 c 0,-5.7773 0.039,-6.207 4.769,-6.4805 V 9.17969 Z m -123.48,0 c 0,2.30081 0.39,6.08981 0.66,8.24221 h -1.52 c -1.09,-5.7031 -4.261,-5.4336 -8.871,-5.4336 -4.25,0 -5.07,1.1719 -5.07,3.2422 v 8.8711 h 3.391 c 3.91,0 5.039,-0.3125 5.039,-3.8711 h 1.531 v 10.4687 h -1.531 c -0.309,-2.8086 -0.899,-3.75 -5,-3.75 h -3.43 v 11.211 h 3.902 c 5.391,0 7.34,-0.4297 8.047,-4.7188 h 1.442 l -0.192,7.5391 h -22.617 v -1.7188 c 2.269,-0.2422 3.277,-0.3515 3.59,-1.8398 0.238,-0.9727 0.238,-4.4922 0.238,-5.7422 v -11.168 c 0,-0.8633 0,-4.6914 -0.078,-5.4726 -0.082,-3.4375 -0.473,-3.7891 -3.789,-4.0977 V 9.17969 Z M 960.27,23.0117 v -1.7226 c -2.891,-0.1602 -2.891,-0.9805 -3,-7.0274 v -2.3828 c -2.43,-1.5273 -5.981,-3.71874 -12.231,-3.71874 -10.937,0 -16.129,8.28904 -16.129,16.60934 0,10.1914 6.871,16.8321 15.5,16.8321 5.43,0 8.559,-2.0703 11.141,-3.6328 l 1.64,1.871 0.27,-9.9179 -1.289,-0.2305 c -0.66,1.8672 -1.641,4.0586 -4.024,6.4805 -1.058,1.0195 -3.089,2.3476 -6.289,2.3476 -5.55,0 -10.16,-4.6914 -10.16,-13.8281 0,-7.3125 3.602,-13.6016 9.77,-13.6016 3.551,0 5.351,2.5 5.551,2.6993 0.539,0.8203 0.699,1.6015 0.621,2.9726 -0.121,4.0586 -0.661,4.1797 -4.18,4.5274 v 1.7226 z M 553.949,26.25 c 0.852,-0.1992 2.071,-0.3086 2.961,-0.3086 3.641,-0.043 6.371,2.8086 6.488,5.3477 0.192,3.6718 -1.636,6.8711 -7.5,6.8711 -0.82,0 -1.328,-0.0391 -1.949,-0.1485 z m 0,-6.9492 c 0.031,-7.3125 0.031,-8.2813 3.86,-8.3594 V 9.17969 h -13.278 v 1.76171 c 3.438,0.2695 3.789,0.8203 3.828,4.2578 0.039,1.2813 0.039,2.7696 0.039,4.0625 v 11.5196 c 0,3.8281 -0.039,5.1601 -0.16,6.207 -0.226,1.7617 -1.09,2.0703 -3.707,2.2734 v 1.7188 l 14.418,-0.0391 c 7.852,0 10.313,-3.7109 10.313,-8.1719 0,-3.039 -1.883,-7.0312 -6.25,-8.3906 l 5.617,-9.7695 c 2.031,-3.75 3.133,-4.6094 5.672,-4.96096 V 8.55078 c -0.672,-0.03125 -1.332,-0.07031 -2.071,-0.07031 -5.98,0 -8.441,2.07033 -10.98,7.41793 l -1.762,3.711 c -1.867,4.0195 -2.5,3.832 -5.508,3.832 v -4.1406 z" /><path
         id="path16"
         style="fill:#ffcb05;fill-opacity:1;fill-rule:nonzero;stroke:none"
         d="m 708.121,308.238 -87.34,119.383 v -86.84 h 34.731 V 255 H 494.84 v 85.781 h 32.621 V 474.262 H 494.84 V 560 H 621.051 L 708.121,439.77 795.199,560 H 921.328 V 474.262 H 888.75 V 340.781 h 32.578 V 255 H 760.699 v 85.781 h 34.731 v 86.84 z" /><path
         id="path18"
         style="fill:#ffffff;fill-opacity:1;fill-rule:nonzero;stroke:none"
         d="m 315.781,150.66 v 47.192 L 303.828,150.66 H 291.641 L 280.27,197.852 V 150.66 h -12.11 v 61.18 h 20.238 l 9.653,-41.61 10.269,41.61 h 19.918 v -61.18 z" /><path
         id="path20"
         style="fill:#ffffff;fill-opacity:1;fill-rule:nonzero;stroke:none"
         d="m 338.98,150.672 h 12.8086 V 211.84 H 338.98 Z" /><path
         id="path22"
         style="fill:#ffffff;fill-opacity:1;fill-rule:nonzero;stroke:none"
         d="m 401.371,169.449 c 0,-12.969 -6.332,-19.488 -19.07,-19.488 -4.922,0 -8.711,0.82 -11.442,2.461 -2.699,1.637 -4.769,3.906 -6.168,6.797 -1.41,2.89 -2.23,6.211 -2.461,10 -0.242,3.793 -0.39,7.769 -0.429,11.953 0,4.297 0.148,8.359 0.429,12.187 0.27,3.871 1.09,7.231 2.461,10.082 1.36,2.887 3.43,5.149 6.25,6.789 2.848,1.649 6.829,2.5 11.95,2.54 11.879,0 17.808,-6.051 17.808,-18.122 v -2.109 H 388.16 v 1.332 c 0,6.399 -2.031,9.57 -6.09,9.57 -1.84,0 -3.199,-0.55 -4.179,-1.679 -0.942,-1.141 -1.68,-2.703 -2.192,-4.731 -0.5,-2.031 -0.82,-4.492 -0.929,-7.301 -0.122,-2.82 -0.161,-5.98 -0.161,-9.5 0,-3.039 0.039,-5.851 0.161,-8.39 0.109,-2.539 0.39,-4.77 0.851,-6.68 0.43,-1.922 1.219,-3.359 2.27,-4.34 1.089,-0.941 2.5,-1.48 4.257,-1.601 1.563,0 2.774,0.39 3.633,1.172 0.86,0.82 1.489,1.839 1.949,3.05 0.43,1.25 0.75,2.579 0.86,3.981 0.121,1.449 0.16,2.699 0.16,3.828 h 12.621 z" /><path
         id="path24"
         style="fill:#ffffff;fill-opacity:1;fill-rule:nonzero;stroke:none"
         d="m 437.461,150.66 v 26.961 H 422.969 V 150.66 h -12.848 v 61.18 h 12.848 v -24.219 h 14.492 v 24.219 h 12.891 v -61.18 z" /><path
         id="path26"
         style="fill:#ffffff;fill-opacity:1;fill-rule:nonzero;stroke:none"
         d="m 461.449,150.672 h 12.8125 V 211.84 H 461.449 Z" /><path
         id="path28"
         style="fill:#ffffff;fill-opacity:1;fill-rule:nonzero;stroke:none"
         d="m 521.129,151.25 c -2.149,-0.391 -4.367,-0.699 -6.598,-0.941 -2.261,-0.231 -4.492,-0.348 -6.722,-0.43 -2.028,0 -4.098,0.16 -6.168,0.43 -2.11,0.281 -4.102,0.82 -6.02,1.601 -1.91,0.82 -3.633,1.84 -5.07,3.168 -1.492,1.293 -2.66,3.043 -3.563,5.231 -0.468,1.25 -0.859,2.543 -1.207,3.91 -0.351,1.371 -0.582,2.89 -0.742,4.57 -0.199,1.723 -0.309,3.633 -0.43,5.781 -0.121,2.149 -0.199,4.649 -0.199,7.539 0,4.063 0.199,7.969 0.512,11.68 0.348,3.75 1.25,7.07 2.738,10 1.442,2.93 3.629,5.27 6.52,6.949 2.89,1.684 6.84,2.582 11.871,2.621 6.328,0 11.179,-1.558 14.57,-4.73 3.399,-3.16 5.117,-7.688 5.16,-13.551 v -1.637 H 513.09 v 2.969 c 0,2.461 -0.711,4.371 -2.039,5.781 -1.36,1.399 -3.121,2.11 -5.27,2.11 -1.953,0 -3.511,-0.551 -4.652,-1.602 -1.129,-1.097 -1.988,-2.539 -2.539,-4.418 -0.578,-1.871 -0.891,-4.062 -1.012,-6.601 -0.117,-2.539 -0.199,-5.309 -0.199,-8.321 v -2.621 c 0,-3.277 0.082,-6.25 0.199,-8.898 0.121,-2.66 0.434,-4.93 1.012,-6.879 0.551,-1.91 1.488,-3.359 2.781,-4.371 1.328,-1.02 3.039,-1.57 5.27,-1.641 2.269,0 4.41,0.43 6.519,1.211 v 13.469 h -7.031 v 9.492 h 19.652 v -31.012 z" /><path
         id="path30"
         style="fill:#ffffff;fill-opacity:1;fill-rule:nonzero;stroke:none"
         d="m 569.102,150.66 -3.403,13.559 H 548.238 L 544.77,150.66 h -12.622 l 16.954,61.18 h 16.878 l 16.598,-61.18 z m -12.383,49.418 -6.02,-26.637 h 12.391 z" /><path
         id="path32"
         style="fill:#ffffff;fill-opacity:1;fill-rule:nonzero;stroke:none"
         d="m 617.422,150.66 -16.801,44.731 V 150.66 H 588.75 v 61.18 h 17.23 l 16.321,-42.391 v 42.391 h 11.879 v -61.18 z" /><path
         id="path34"
         style="fill:#ffffff;fill-opacity:1;fill-rule:nonzero;stroke:none"
         d="m 663.949,150.66 v 61.18 h 33.352 v -9.418 H 676.719 V 187.34 h 18.98 v -9.41 h -18.98 v -17.7 h 21.293 v -9.57 z" /><path
         id="path36"
         style="fill:#ffffff;fill-opacity:1;fill-rule:nonzero;stroke:none"
         d="m 735.121,150.66 -16.762,44.731 V 150.66 H 706.48 v 61.18 h 17.192 l 16.367,-42.391 v 42.391 h 11.871 v -61.18 z" /><path
         id="path38"
         style="fill:#ffffff;fill-opacity:1;fill-rule:nonzero;stroke:none"
         d="m 798.949,151.25 c -2.148,-0.391 -4.379,-0.699 -6.609,-0.941 -2.262,-0.231 -4.488,-0.348 -6.719,-0.43 -2.031,0 -4.101,0.16 -6.172,0.43 -2.109,0.281 -4.097,0.82 -6.008,1.601 -1.921,0.82 -3.64,1.84 -5.082,3.168 -1.48,1.293 -2.66,3.043 -3.589,5.231 -0.43,1.25 -0.821,2.543 -1.18,3.91 -0.352,1.371 -0.578,2.89 -0.738,4.57 -0.192,1.723 -0.313,3.633 -0.43,5.781 -0.121,2.149 -0.192,4.649 -0.192,7.539 0,4.063 0.192,7.969 0.5,11.68 0.36,3.75 1.25,7.07 2.739,10 1.441,2.93 3.633,5.27 6.519,6.949 2.891,1.684 6.84,2.582 11.883,2.621 6.328,0 11.168,-1.558 14.57,-4.73 3.399,-3.16 5.11,-7.688 5.149,-13.551 v -1.637 h -12.692 v 2.969 c 0,2.461 -0.699,4.371 -2.027,5.781 -1.371,1.399 -3.133,2.11 -5.281,2.11 -1.988,0 -3.512,-0.551 -4.641,-1.602 -1.14,-1.097 -2,-2.539 -2.539,-4.418 -0.59,-1.871 -0.898,-4.062 -1.019,-6.601 -0.121,-2.539 -0.192,-5.309 -0.192,-8.321 v -2.621 c 0,-3.277 0.071,-6.25 0.192,-8.898 0.121,-2.66 0.429,-4.93 1.019,-6.879 0.539,-1.91 1.481,-3.359 2.77,-4.371 1.332,-1.02 3.05,-1.57 5.269,-1.641 2.27,0 4.422,0.43 6.531,1.211 v 13.469 h -7.031 v 9.492 h 19.641 v -31.012 z" /><path
         id="path40"
         style="fill:#ffffff;fill-opacity:1;fill-rule:nonzero;stroke:none"
         d="m 814.609,150.672 h 12.8125 V 211.84 H 814.609 Z" /><path
         id="path42"
         style="fill:#ffffff;fill-opacity:1;fill-rule:nonzero;stroke:none"
         d="m 866.988,150.66 -16.789,44.731 V 150.66 h -11.84 v 61.18 h 17.192 l 16.359,-42.391 v 42.391 h 11.879 v -61.18 z" /><path
         id="path44"
         style="fill:#ffffff;fill-opacity:1;fill-rule:nonzero;stroke:none"
         d="m 894.691,150.66 v 61.18 h 33.399 v -9.418 H 907.5 V 187.34 h 18.98 v -9.41 H 907.5 v -17.7 h 21.289 v -9.57 z" /><path
         id="path46"
         style="fill:#ffffff;fill-opacity:1;fill-rule:nonzero;stroke:none"
         d="m 937.07,150.66 v 61.18 h 33.399 v -9.418 h -20.59 V 187.34 h 18.992 v -9.41 h -18.992 v -17.7 h 21.25 v -9.57 z" /><path
         id="path48"
         style="fill:#ffffff;fill-opacity:1;fill-rule:nonzero;stroke:none"
         d="m 1005.82,150.66 c -0.74,1.531 -1.13,2.82 -1.21,3.91 -0.04,1.051 -0.08,2.27 -0.16,3.629 v 8.051 c 0,1.871 -0.15,3.441 -0.43,4.648 -0.27,1.25 -0.78,2.223 -1.52,2.973 -0.74,0.738 -1.76,1.289 -3.051,1.641 -1.289,0.308 -2.969,0.508 -5,0.508 h -2.379 v -25.36 h -12.851 v 61.18 h 21.091 c 2.42,0 4.65,-0.238 6.68,-0.75 2.03,-0.5 3.79,-1.399 5.28,-2.649 1.44,-1.211 2.61,-2.89 3.47,-5 0.82,-2.07 1.25,-4.691 1.25,-7.781 0,-4.41 -0.9,-7.808 -2.69,-10.269 -1.84,-2.422 -4.65,-3.981 -8.48,-4.653 2.89,-0.347 5.04,-0.968 6.52,-1.949 1.45,-0.937 2.54,-2.187 3.21,-3.711 0.7,-1.527 1.09,-3.359 1.21,-5.43 0.12,-2.109 0.23,-4.449 0.43,-7.027 l 0.23,-4.34 c 0.12,-1.25 0.2,-2.5 0.28,-3.832 0.03,-1.289 0.27,-2.539 0.66,-3.789 z m -1.6,43.481 c 0,1.91 -0.2,3.437 -0.63,4.57 -0.39,1.129 -1.01,1.949 -1.91,2.461 -0.94,0.508 -2.032,0.859 -3.321,1.019 -1.289,0.149 -2.808,0.231 -4.488,0.231 h -1.801 v -17.031 h 3.16 c 1.532,0 2.86,0.121 3.989,0.347 1.131,0.242 2.031,0.672 2.771,1.371 0.74,0.661 1.29,1.563 1.6,2.692 0.36,1.14 0.55,2.578 0.63,4.34 z" /><path
         id="path50"
         style="fill:#ffffff;fill-opacity:1;fill-rule:nonzero;stroke:none"
         d="m 1026.56,150.672 h 12.8125 V 211.84 H 1026.56 Z" /><path
         id="path52"
         style="fill:#ffffff;fill-opacity:1;fill-rule:nonzero;stroke:none"
         d="m 1078.95,150.66 -16.76,44.731 V 150.66 h -11.88 v 61.18 h 17.19 l 16.37,-42.391 v 42.391 h 11.87 v -61.18 z" /><path
         id="path54"
         style="fill:#ffffff;fill-opacity:1;fill-rule:nonzero;stroke:none"
         d="m 1142.77,151.25 c -2.15,-0.391 -4.33,-0.699 -6.6,-0.941 -2.26,-0.231 -4.49,-0.348 -6.72,-0.43 -2.03,0 -4.1,0.16 -6.17,0.43 -2.11,0.281 -4.1,0.82 -6.01,1.601 -1.92,0.82 -3.64,1.84 -5.08,3.168 -1.49,1.293 -2.66,3.043 -3.56,5.231 -0.47,1.25 -0.86,2.543 -1.21,3.91 -0.35,1.371 -0.58,2.89 -0.74,4.57 -0.2,1.723 -0.31,3.633 -0.43,5.781 -0.12,2.149 -0.2,4.649 -0.2,7.539 0,4.063 0.2,7.969 0.51,11.68 0.35,3.75 1.25,7.07 2.74,10 1.48,2.93 3.63,5.27 6.52,6.949 2.89,1.684 6.84,2.582 11.88,2.621 6.32,0 11.17,-1.558 14.57,-4.73 3.39,-3.16 5.11,-7.688 5.15,-13.551 v -1.637 h -12.69 v 2.969 c 0,2.461 -0.71,4.371 -2.03,5.781 -1.37,1.399 -3.13,2.11 -5.28,2.11 -1.95,0 -3.51,-0.551 -4.65,-1.602 -1.13,-1.097 -1.99,-2.539 -2.54,-4.418 -0.58,-1.871 -0.89,-4.062 -1.01,-6.601 -0.12,-2.539 -0.2,-5.309 -0.2,-8.321 v -2.621 c 0,-3.277 0.08,-6.25 0.2,-8.898 0.12,-2.66 0.43,-4.93 1.01,-6.879 0.55,-1.91 1.49,-3.359 2.78,-4.371 1.33,-1.02 3.04,-1.57 5.27,-1.641 2.27,0 4.42,0.43 6.52,1.211 v 13.469 h -7.03 v 9.492 h 19.65 v -31.012 z" /><path
         id="path56"
         style="fill:#ffffff;fill-opacity:1;fill-rule:nonzero;stroke:none"
         d="m 0,75.0781 v 61.2109 h 33.3984 v -9.41 H 12.8086 v -15.078 h 18.9922 v -9.422 H 12.8086 V 84.6914 h 21.25 v -9.6133 z" /><path
         id="path58"
         style="fill:#ffffff;fill-opacity:1;fill-rule:nonzero;stroke:none"
         d="M 42.3789,75.0781 V 136.289 H 55.3516 V 85.2695 H 74.3398 V 75.0781 Z" /><path
         id="path60"
         style="fill:#ffffff;fill-opacity:1;fill-rule:nonzero;stroke:none"
         d="m 80,75.0781 v 61.2109 h 33.398 v -9.41 H 92.8086 v -15.078 h 18.9924 v -9.422 H 92.8086 V 84.6914 h 21.2504 v -9.6133 z" /><path
         id="path62"
         style="fill:#ffffff;fill-opacity:1;fill-rule:nonzero;stroke:none"
         d="m 161.211,93.9102 c 0,-13.0118 -6.371,-19.5 -19.102,-19.5 -4.879,0 -8.711,0.8203 -11.41,2.4687 -2.73,1.6406 -4.801,3.9024 -6.211,6.793 -1.398,2.8476 -2.218,6.207 -2.457,10 -0.23,3.75 -0.351,7.7381 -0.429,11.9181 0,4.289 0.16,8.39 0.429,12.219 0.27,3.832 1.09,7.191 2.457,10.082 1.371,2.89 3.442,5.16 6.293,6.8 2.809,1.637 6.797,2.457 11.949,2.539 11.84,0 17.782,-6.058 17.782,-18.171 v -2.11 h -12.543 v 1.371 c 0,6.371 -2.028,9.571 -6.09,9.571 -1.801,0 -3.207,-0.551 -4.149,-1.68 -0.968,-1.133 -1.71,-2.731 -2.218,-4.762 -0.512,-2.039 -0.821,-4.461 -0.942,-7.269 -0.121,-2.852 -0.16,-6.02 -0.16,-9.489 0,-3.05 0.039,-5.8629 0.16,-8.4019 0.121,-2.5391 0.391,-4.7696 0.86,-6.7188 0.468,-1.9101 1.211,-3.3594 2.3,-4.3008 1.059,-0.9687 2.469,-1.5195 4.219,-1.5976 1.602,0 2.821,0.3867 3.641,1.1679 0.859,0.7813 1.519,1.8008 1.949,3.0508 0.473,1.25 0.742,2.5782 0.859,3.9883 0.122,1.4024 0.153,2.6914 0.153,3.8203 h 12.66 z" /><path
         id="path64"
         style="fill:#ffffff;fill-opacity:1;fill-rule:nonzero;stroke:none"
         d="M 191.719,126.371 V 75.0781 H 178.75 v 51.2929 h -14.059 v 9.918 h 41.25 v -9.918 z" /><path
         id="path66"
         style="fill:#ffffff;fill-opacity:1;fill-rule:nonzero;stroke:none"
         d="m 238.238,75.0781 c -0.738,1.5235 -1.129,2.8516 -1.207,3.9024 -0.043,1.0976 -0.121,2.3086 -0.152,3.6797 v 8.039 c 0,1.8399 -0.16,3.4024 -0.43,4.6524 -0.277,1.25 -0.789,2.2265 -1.527,2.9687 -0.742,0.7383 -1.762,1.25 -3.043,1.6016 -1.289,0.3481 -2.969,0.5081 -5,0.5081 h -2.391 V 75.0781 h -12.886 v 61.2109 h 21.128 c 2.43,0 4.649,-0.269 6.68,-0.777 2.039,-0.512 3.789,-1.371 5.281,-2.621 1.438,-1.25 2.61,-2.891 3.469,-5 0.82,-2.071 1.25,-4.692 1.25,-7.813 0,-4.379 -0.89,-7.808 -2.691,-10.238 -1.84,-2.418 -4.649,-3.981 -8.481,-4.641 2.891,-0.359 5.043,-1.019 6.532,-1.961 1.441,-0.968 2.531,-2.218 3.199,-3.7497 0.703,-1.5195 1.09,-3.3164 1.211,-5.4297 0.121,-2.0703 0.23,-4.4102 0.39,-7.0273 l 0.27,-4.3008 c 0.121,-1.25 0.199,-2.5313 0.238,-3.8203 0.082,-1.2891 0.313,-2.5821 0.703,-3.8321 z m -1.597,43.4729 c 0,1.961 -0.231,3.48 -0.621,4.609 -0.399,1.141 -1.02,1.918 -1.961,2.43 -0.899,0.539 -1.989,0.859 -3.278,1.051 -1.293,0.16 -2.812,0.238 -4.492,0.238 h -1.801 V 109.84 h 3.172 c 1.52,0 2.852,0.121 3.981,0.359 1.089,0.192 2.031,0.66 2.769,1.321 0.75,0.71 1.289,1.601 1.61,2.742 0.351,1.129 0.539,2.578 0.621,4.289 z" /><path
         id="path68"
         style="fill:#ffffff;fill-opacity:1;fill-rule:nonzero;stroke:none"
         d="m 258.98,75.0781 h 12.8086 V 136.289 H 258.98 Z" /><path
         id="path70"
         style="fill:#ffffff;fill-opacity:1;fill-rule:nonzero;stroke:none"
         d="m 321.371,93.9102 c 0,-13.0118 -6.371,-19.5 -19.07,-19.5 -4.922,0 -8.75,0.8203 -11.442,2.4687 -2.699,1.6406 -4.769,3.9024 -6.168,6.793 -1.41,2.8476 -2.23,6.207 -2.461,10 -0.242,3.75 -0.39,7.7381 -0.429,11.9181 0,4.289 0.148,8.39 0.429,12.219 0.27,3.832 1.09,7.191 2.461,10.082 1.329,2.89 3.43,5.16 6.25,6.8 2.848,1.637 6.829,2.457 11.95,2.539 11.879,0 17.808,-6.058 17.808,-18.171 v -2.11 H 308.16 v 1.371 c 0,6.371 -2.031,9.571 -6.129,9.571 -1.801,0 -3.16,-0.551 -4.14,-1.68 -0.942,-1.133 -1.68,-2.731 -2.192,-4.762 -0.5,-2.039 -0.82,-4.461 -0.929,-7.269 -0.122,-2.852 -0.161,-6.02 -0.161,-9.489 0,-3.05 0.039,-5.8629 0.161,-8.4019 0.109,-2.5391 0.39,-4.7696 0.851,-6.7188 0.43,-1.9101 1.219,-3.3594 2.27,-4.3008 1.089,-0.9687 2.5,-1.5195 4.257,-1.5976 1.563,0 2.774,0.3867 3.633,1.1679 0.86,0.7813 1.489,1.8008 1.949,3.0508 0.43,1.25 0.75,2.5782 0.86,3.9883 0.082,1.4024 0.16,2.6914 0.16,3.8203 h 12.621 z" /><path
         id="path72"
         style="fill:#ffffff;fill-opacity:1;fill-rule:nonzero;stroke:none"
         d="M 361.949,75.0781 358.59,88.6719 H 341.129 L 337.66,75.0781 H 325 l 16.949,61.2109 h 16.879 L 375.43,75.0781 Z m -12.34,49.4099 -6.019,-26.5974 h 12.351 z" /><path
         id="path74"
         style="fill:#ffffff;fill-opacity:1;fill-rule:nonzero;stroke:none"
         d="M 381.449,75.0781 V 136.289 H 394.41 V 85.2695 h 18.988 V 75.0781 Z" /><path
         id="path76"
         style="fill:#ffffff;fill-opacity:1;fill-rule:nonzero;stroke:none"
         d="M 476.449,75.0781 472.73,80 c -2.378,-2.1914 -4.839,-3.75 -7.46,-4.6484 -2.571,-0.9024 -5.782,-1.3711 -9.571,-1.3711 -3,0 -5.777,0.3593 -8.398,1.0195 -2.571,0.6992 -4.84,1.7617 -6.75,3.2383 -1.961,1.4531 -3.481,3.3633 -4.692,5.6719 -1.168,2.3007 -1.757,5.1093 -1.679,8.3906 0,2.1875 0.269,4.1484 0.859,5.8594 0.551,1.6796 1.371,3.2498 2.422,4.6488 1.09,1.41 2.34,2.703 3.75,3.832 1.41,1.089 2.969,2.308 4.648,3.558 -1.64,1.949 -3.089,4.02 -4.3,6.172 -1.25,2.149 -1.868,4.57 -1.868,7.301 0,2.348 0.43,4.379 1.36,6.098 0.898,1.679 2.07,3.121 3.558,4.289 1.442,1.211 3.2,2.031 5.231,2.461 2.039,0.468 4.109,0.75 6.211,0.859 5.199,0 9.219,-1.129 12.109,-3.399 2.891,-2.261 4.34,-5.429 4.34,-9.57 0,-1.68 -0.309,-3.238 -0.859,-4.64 -0.59,-1.411 -1.289,-2.782 -2.231,-4.071 -0.89,-1.32 -1.949,-2.461 -3.199,-3.469 -1.25,-1.019 -2.422,-2.109 -3.551,-3.25 l 9.57,-12.5308 c 0.469,1.4024 0.782,3.1211 1.008,5.1918 0.242,2.031 0.352,3.828 0.434,5.39 0,0.239 0,0.43 0,0.629 0,0.149 -0.043,0.5 -0.082,1.012 h 10.32 v -2.031 c 0,-3.36 -0.238,-6.602 -0.75,-9.7621 -0.5,-3.168 -1.64,-6.2187 -3.39,-9.1484 l 9.25,-12.6524 z m -15.078,49.6129 c 0,1.559 -0.473,2.809 -1.449,3.707 -0.942,0.903 -2.223,1.403 -3.871,1.442 -1.52,0 -2.77,-0.5 -3.75,-1.52 -0.93,-1.019 -1.442,-2.269 -1.52,-3.75 0,-1.172 0.348,-2.422 1.02,-3.789 0.66,-1.371 1.828,-2.929 3.469,-4.652 2.152,1.41 3.71,2.742 4.652,4.07 0.976,1.281 1.449,2.77 1.449,4.492 z m -8.562,-22.031 c -1.637,-1.332 -3.039,-2.7811 -4.219,-4.4217 -1.211,-1.6367 -1.828,-3.5899 -1.871,-5.8594 0,-2.8906 0.82,-5.1875 2.461,-6.9492 1.64,-1.7578 3.871,-2.6211 6.679,-2.6211 2.032,0 3.75,0.3906 5.192,1.1719 1.41,0.789 2.82,1.9179 4.219,3.3984 z" /><path
         id="path78"
         style="fill:#ffffff;fill-opacity:1;fill-rule:nonzero;stroke:none"
         d="m 552.07,93.9102 c 0,-13.0118 -6.371,-19.5 -19.058,-19.5 -4.922,0 -8.75,0.8203 -11.453,2.4687 -2.731,1.6406 -4.797,3.9024 -6.207,6.793 -1.403,2.8476 -2.231,6.207 -2.461,10 -0.192,3.75 -0.352,7.7381 -0.391,11.9181 0,4.289 0.121,8.39 0.391,12.219 0.308,3.832 1.129,7.191 2.461,10.082 1.367,2.89 3.476,5.16 6.289,6.8 2.808,1.637 6.8,2.457 11.949,2.539 11.879,0 17.781,-6.058 17.781,-18.171 v -2.11 h -12.543 v 1.371 c 0,6.371 -2.027,9.571 -6.098,9.571 -1.789,0 -3.199,-0.551 -4.14,-1.68 -0.969,-1.133 -1.711,-2.731 -2.219,-4.762 -0.512,-2.039 -0.82,-4.461 -0.902,-7.269 -0.117,-2.852 -0.199,-6.02 -0.199,-9.489 0,-3.05 0.082,-5.8629 0.199,-8.4019 0.082,-2.5391 0.39,-4.7696 0.82,-6.7188 0.473,-1.9101 1.211,-3.3594 2.301,-4.3008 1.058,-0.9687 2.461,-1.5195 4.219,-1.5976 1.601,0 2.812,0.3867 3.671,1.1679 0.821,0.7813 1.489,1.8008 1.918,3.0508 0.473,1.25 0.743,2.5782 0.864,3.9883 0.117,1.4024 0.187,2.6914 0.187,3.8203 h 12.621 z" /><path
         id="path80"
         style="fill:#ffffff;fill-opacity:1;fill-rule:nonzero;stroke:none"
         d="m 602.148,106.09 c 0,-4.488 -0.117,-8.7111 -0.347,-12.6095 -0.199,-3.9102 -1.02,-7.3086 -2.461,-10.2422 -1.41,-2.9688 -3.559,-5.1875 -6.41,-6.7891 -2.891,-1.5703 -6.989,-2.3906 -12.309,-2.4687 -4.961,0 -8.82,0.8984 -11.601,2.6211 -2.77,1.7578 -4.879,4.0976 -6.29,7.0703 -1.402,2.9297 -2.261,6.4062 -2.531,10.3867 -0.277,4.0312 -0.469,8.1714 -0.508,12.4614 0,4.261 0.149,8.281 0.508,12.031 0.352,3.789 1.25,7.148 2.692,10 1.488,2.898 3.589,5.16 6.371,6.801 2.769,1.636 6.597,2.5 11.519,2.539 5.199,0 9.258,-0.782 12.149,-2.379 2.851,-1.563 5,-3.793 6.332,-6.684 1.359,-2.887 2.187,-6.207 2.457,-10 0.269,-3.789 0.429,-8.008 0.429,-12.738 z m -13.046,0.941 c 0,3.278 -0.043,6.25 -0.082,8.91 -0.071,2.649 -0.348,4.918 -0.86,6.789 -0.5,1.84 -1.281,3.321 -2.379,4.418 -1.051,1.051 -2.66,1.602 -4.801,1.602 -2.031,0 -3.601,-0.512 -4.691,-1.449 -1.059,-0.973 -1.879,-2.461 -2.461,-4.492 -0.547,-2.028 -0.859,-4.571 -0.937,-7.61 -0.039,-3.051 -0.082,-6.648 -0.161,-10.789 0,-3.43 0.079,-6.4803 0.161,-9.1405 0.121,-2.6484 0.507,-4.8789 1.129,-6.7187 0.628,-1.7891 1.41,-3.1602 2.351,-4.0625 0.969,-0.8985 2.457,-1.3672 4.41,-1.4375 2.028,0 3.629,0.5 4.77,1.4375 1.129,0.9805 1.949,2.4609 2.461,4.4922 0.508,2.039 0.816,4.539 0.937,7.4687 0.071,2.9297 0.153,6.4808 0.153,10.5818 z" /><path
         id="path82"
         style="fill:#ffffff;fill-opacity:1;fill-rule:nonzero;stroke:none"
         d="M 659.531,75.0781 V 122.301 L 647.578,75.0781 H 635.352 L 624.02,122.301 V 75.0781 h -12.11 v 61.2109 h 20.238 l 9.653,-41.5976 10.269,41.5976 h 19.918 V 75.0781 Z" /><path
         id="path84"
         style="fill:#ffffff;fill-opacity:1;fill-rule:nonzero;stroke:none"
         d="m 722.148,117.891 c 0,-6.211 -1.41,-10.743 -4.218,-13.551 -2.852,-2.82 -7.461,-4.262 -13.828,-4.34 h -8.403 V 75.0781 h -12.89 v 61.2109 h 21.371 c 2.621,0 5,-0.269 7.23,-0.777 2.18,-0.512 4.059,-1.453 5.66,-2.782 1.559,-1.359 2.809,-3.242 3.711,-5.699 0.938,-2.422 1.367,-5.472 1.367,-9.14 z m -12.968,0.269 c 0,1.961 -0.231,3.52 -0.66,4.649 -0.469,1.14 -1.141,1.992 -2.04,2.621 -0.89,0.621 -1.992,1.019 -3.242,1.211 -1.207,0.16 -2.578,0.238 -4.058,0.238 h -3.481 V 109.41 h 5.199 c 5.512,0 8.282,2.93 8.282,8.75 z" /><path
         id="path86"
         style="fill:#ffffff;fill-opacity:1;fill-rule:nonzero;stroke:none"
         d="m 771.129,95.5898 c 0,-2.9687 -0.27,-5.789 -0.859,-8.3593 -0.54,-2.6211 -1.641,-4.8907 -3.282,-6.8789 -1.636,-1.9922 -3.789,-3.5118 -6.437,-4.6524 -2.66,-1.1289 -6.172,-1.7187 -10.512,-1.7187 -7.187,0 -12.379,1.8008 -15.59,5.4297 -3.238,3.6406 -4.84,8.9492 -4.84,16.0195 v 40.8593 h 12.813 V 95.4297 c 0,-1.5586 0.078,-3.0899 0.238,-4.5703 0.192,-1.4805 0.578,-2.8086 1.211,-3.9805 0.578,-1.1797 1.399,-2.1094 2.34,-2.6992 0.98,-0.6289 2.309,-1.0195 3.988,-1.1289 1.711,0 3.082,0.3086 4.18,0.9297 1.051,0.6289 1.949,1.5312 2.609,2.7383 0.672,1.1718 1.102,2.4609 1.25,3.7929 0.203,1.3672 0.313,2.9297 0.434,4.6875 v 41.0898 h 12.457 z" /><path
         id="path88"
         style="fill:#ffffff;fill-opacity:1;fill-rule:nonzero;stroke:none"
         d="M 803.871,126.371 V 75.0781 H 790.898 V 126.371 H 776.84 v 9.918 h 41.25 v -9.918 z" /><path
         id="path90"
         style="fill:#ffffff;fill-opacity:1;fill-rule:nonzero;stroke:none"
         d="m 824.02,75.0781 v 61.2109 h 33.402 v -9.41 H 836.84 v -15.078 h 18.98 v -9.422 H 836.84 V 84.6914 h 21.25 v -9.6133 z" /><path
         id="path92"
         style="fill:#ffffff;fill-opacity:1;fill-rule:nonzero;stroke:none"
         d="m 892.77,75.0781 c -0.739,1.5235 -1.129,2.8516 -1.211,3.9024 -0.039,1.0976 -0.11,2.3086 -0.149,3.6797 v 8.039 c 0,1.8399 -0.16,3.4024 -0.43,4.6524 -0.281,1.25 -0.781,2.2265 -1.531,2.9687 -0.738,0.7383 -1.75,1.25 -3.039,1.6016 -1.289,0.3481 -2.969,0.5081 -5,0.5081 h -2.39 V 75.0781 h -12.891 v 61.2109 h 21.141 c 2.421,0 4.64,-0.269 6.679,-0.777 2.031,-0.512 3.781,-1.371 5.231,-2.621 1.48,-1.25 2.66,-2.891 3.48,-5 0.86,-2.071 1.289,-4.692 1.289,-7.813 0,-4.379 -0.898,-7.808 -2.699,-10.238 -1.84,-2.418 -4.648,-3.981 -8.48,-4.641 2.851,-0.359 5.039,-1.019 6.531,-1.961 1.437,-0.968 2.539,-2.218 3.199,-3.7497 0.66,-1.5195 1.09,-3.3164 1.172,-5.4297 0.117,-2.0703 0.277,-4.4102 0.43,-7.0273 l 0.277,-4.3008 c 0.109,-1.25 0.191,-2.5313 0.23,-3.8203 0.082,-1.2891 0.313,-2.5821 0.7,-3.8321 z m -1.641,43.4729 c 0,1.961 -0.188,3.48 -0.578,4.609 -0.391,1.141 -1.063,1.918 -1.961,2.43 -0.891,0.539 -1.988,0.859 -3.281,1.051 -1.329,0.16 -2.809,0.238 -4.489,0.238 h -1.8 V 109.84 h 3.128 c 1.524,0 2.852,0.121 3.981,0.359 1.141,0.192 2.07,0.66 2.82,1.321 0.742,0.71 1.25,1.601 1.602,2.742 0.347,1.129 0.539,2.578 0.578,4.289 z" /><path
         id="path94"
         style="fill:#ffffff;fill-opacity:1;fill-rule:nonzero;stroke:none"
         d="m 932.34,75.0781 v 61.2109 h 33.398 v -9.41 h -20.617 v -15.078 h 18.981 v -9.422 H 945.121 V 84.6914 h 21.289 v -9.6133 z" /><path
         id="path96"
         style="fill:#ffffff;fill-opacity:1;fill-rule:nonzero;stroke:none"
         d="M 1003.52,75.0781 986.762,119.84 V 75.0781 h -11.883 v 61.2109 h 17.191 l 16.37,-42.3788 v 42.3788 h 11.87 V 75.0781 Z" /><path
         id="path98"
         style="fill:#ffffff;fill-opacity:1;fill-rule:nonzero;stroke:none"
         d="m 1067.34,75.6992 c -2.14,-0.4297 -4.33,-0.6992 -6.6,-0.9297 -2.26,-0.2382 -4.49,-0.3906 -6.72,-0.4297 -2.03,0 -4.1,0.1485 -6.17,0.4297 -2.11,0.2696 -4.1,0.8203 -6.01,1.6016 -1.92,0.7773 -3.64,1.8281 -5.08,3.1172 -1.49,1.332 -2.66,3.0508 -3.56,5.2812 -0.47,1.25 -0.86,2.5313 -1.21,3.9024 -0.31,1.3281 -0.58,2.8476 -0.74,4.5664 -0.2,1.6836 -0.31,3.6015 -0.43,5.7422 -0.12,2.1485 -0.16,4.6915 -0.16,7.5395 0,4.07 0.16,7.968 0.51,11.718 0.31,3.711 1.21,7.071 2.7,10 1.48,2.934 3.63,5.242 6.52,6.961 2.89,1.68 6.84,2.531 11.88,2.61 6.32,0 11.17,-1.598 14.57,-4.758 3.39,-3.172 5.11,-7.66 5.15,-13.563 v -1.597 h -12.69 v 2.968 c 0,2.422 -0.71,4.34 -2.03,5.782 -1.37,1.41 -3.13,2.109 -5.28,2.109 -1.95,0 -3.51,-0.551 -4.65,-1.602 -1.13,-1.097 -1.99,-2.578 -2.54,-4.418 -0.58,-1.871 -0.89,-4.058 -1.01,-6.601 -0.12,-2.578 -0.2,-5.309 -0.2,-8.32 v -2.61 c 0,-3.289 0.08,-6.2498 0.2,-8.9099 0.12,-2.6602 0.43,-4.961 1.01,-6.8789 0.55,-1.9102 1.49,-3.3907 2.78,-4.4102 1.33,-1.0195 3.08,-1.5586 5.27,-1.6016 2.27,0 4.42,0.3907 6.53,1.1719 v 13.4805 h -7.04 v 9.4882 h 19.65 V 76.5195 Z" /><path
         id="path100"
         style="fill:#ffffff;fill-opacity:1;fill-rule:nonzero;stroke:none"
         d="m 1083.01,75.0781 h 12.8086 V 136.289 H 1083.01 Z" /><path
         id="path102"
         style="fill:#ffffff;fill-opacity:1;fill-rule:nonzero;stroke:none"
         d="M 1135.39,75.0781 1118.63,119.84 V 75.0781 h -11.87 v 61.2109 h 17.19 l 16.36,-42.3788 v 42.3788 h 11.88 V 75.0781 Z" /><path
         id="path104"
         style="fill:#ffffff;fill-opacity:1;fill-rule:nonzero;stroke:none"
         d="m 1163.12,75.0781 v 61.2109 h 33.36 v -9.41 h -20.58 v -15.078 h 18.98 v -9.422 H 1175.9 V 84.6914 h 21.29 v -9.6133 z" /><path
         id="path106"
         style="fill:#ffffff;fill-opacity:1;fill-rule:nonzero;stroke:none"
         d="m 1205.47,75.0781 v 61.2109 h 33.4 v -9.41 h -20.59 v -15.078 h 18.99 v -9.422 h -18.99 V 84.6914 h 21.29 v -9.6133 z" /><path
         id="path108"
         style="fill:#ffffff;fill-opacity:1;fill-rule:nonzero;stroke:none"
         d="m 1274.22,75.0781 c -0.74,1.5235 -1.13,2.8516 -1.17,3.9024 -0.08,1.0976 -0.12,2.3086 -0.2,3.6797 v 8.039 c 0,1.8399 -0.12,3.4024 -0.43,4.6524 -0.27,1.25 -0.78,2.2265 -1.52,2.9687 -0.7,0.7383 -1.76,1.25 -3.05,1.6016 -1.29,0.3481 -2.97,0.5081 -5,0.5081 h -2.38 V 75.0781 h -12.85 v 61.2109 h 21.09 c 2.42,0 4.65,-0.269 6.68,-0.777 2.03,-0.512 3.79,-1.371 5.27,-2.621 1.45,-1.25 2.62,-2.891 3.48,-5 0.82,-2.071 1.25,-4.692 1.25,-7.813 0,-4.379 -0.9,-7.808 -2.69,-10.238 -1.8,-2.418 -4.65,-3.981 -8.48,-4.641 2.89,-0.359 5.04,-1.019 6.52,-1.961 1.49,-0.968 2.54,-2.218 3.21,-3.7497 0.7,-1.5195 1.09,-3.3164 1.21,-5.4297 0.11,-2.0703 0.23,-4.4102 0.43,-7.0273 l 0.23,-4.3008 c 0.12,-1.25 0.2,-2.5313 0.27,-3.8203 0.04,-1.2891 0.28,-2.5821 0.67,-3.8321 z m -1.6,43.4729 c 0,1.961 -0.2,3.48 -0.59,4.609 -0.43,1.141 -1.05,1.918 -1.95,2.43 -0.94,0.539 -2.03,0.859 -3.32,1.051 -1.29,0.16 -2.81,0.238 -4.49,0.238 h -1.8 V 109.84 h 3.16 c 1.53,0 2.85,0.121 3.99,0.359 1.13,0.192 2.07,0.66 2.77,1.321 0.74,0.71 1.29,1.601 1.64,2.742 0.31,1.129 0.51,2.578 0.59,4.289 z" /><path
         id="path110"
         style="fill:#ffffff;fill-opacity:1;fill-rule:nonzero;stroke:none"
         d="m 1294.96,75.0781 h 12.8086 V 136.289 H 1294.96 Z" /><path
         id="path112"
         style="fill:#ffffff;fill-opacity:1;fill-rule:nonzero;stroke:none"
         d="M 1347.34,75.0781 1330.59,119.84 V 75.0781 h -11.88 v 61.2109 h 17.19 l 16.37,-42.3788 v 42.3788 h 11.87 V 75.0781 Z" /><path
         id="path114"
         style="fill:#ffffff;fill-opacity:1;fill-rule:nonzero;stroke:none"
         d="m 1411.17,75.6992 c -2.15,-0.4297 -4.33,-0.6992 -6.6,-0.9297 -2.27,-0.2382 -4.49,-0.3906 -6.72,-0.4297 -2.03,0 -4.06,0.1485 -6.17,0.4297 -2.11,0.2696 -4.1,0.8203 -6.02,1.6016 -1.91,0.7773 -3.63,1.8281 -5.07,3.1172 -1.49,1.332 -2.66,3.0508 -3.56,5.2812 -0.47,1.25 -0.86,2.5313 -1.21,3.9024 -0.31,1.3281 -0.59,2.8476 -0.74,4.5664 -0.2,1.6836 -0.31,3.6015 -0.43,5.7422 -0.12,2.1485 -0.16,4.6915 -0.16,7.5395 0,4.07 0.16,7.968 0.51,11.718 0.31,3.711 1.21,7.071 2.7,10 1.48,2.934 3.63,5.242 6.52,6.961 2.89,1.68 6.83,2.531 11.87,2.61 6.33,0 11.18,-1.598 14.57,-4.758 3.4,-3.172 5.12,-7.66 5.16,-13.563 v -1.597 h -12.7 v 2.968 c 0,2.422 -0.66,4.34 -2.03,5.782 -1.36,1.41 -3.12,2.109 -5.27,2.109 -1.95,0 -3.52,-0.551 -4.65,-1.602 -1.13,-1.097 -1.99,-2.578 -2.54,-4.418 -0.58,-1.871 -0.9,-4.058 -1.01,-6.601 -0.12,-2.578 -0.16,-5.309 -0.16,-8.32 v -2.61 c 0,-3.289 0.04,-6.2498 0.16,-8.9099 0.11,-2.6602 0.43,-4.961 1.01,-6.8789 0.55,-1.9102 1.49,-3.3907 2.78,-4.4102 1.32,-1.0195 3.08,-1.5586 5.27,-1.6016 2.27,0 4.45,0.3907 6.52,1.1719 v 13.4805 h -7.03 v 9.4882 h 19.65 V 76.5195 Z" /></g></g></svg>