<svg version="1.2" xmlns="http://www.w3.org/2000/svg" viewBox="0 0 1118 424" width="1118" height="424">
	<title>POWERPLAY_Logo_Horiz_RGB_FullColorReverse-ai</title>
	<defs>
		<clipPath clipPathUnits="userSpaceOnUse" id="cp1">
			<path d="m514.05 130.29c0 71.57 58.02 129.59 129.59 129.59 71.57 0 129.58-58.02 129.58-129.59 0-71.57-58.01-129.59-129.58-129.59-71.57 0-129.59 58.02-129.59 129.59z"/>
		</clipPath>
		<clipPath clipPathUnits="userSpaceOnUse" id="cp2">
			<path d="m0.89 374.95h1147.97v-505.08h-1147.97z"/>
		</clipPath>
	</defs>
	<style>
		.s0 { fill: #000000 } 
		.s1 { fill: #fcb513 } 
		.s2 { fill: #68bfdd } 
		.s3 { fill: #ffffff } 
	</style>
	<g id="Layer 2">
	</g>
	<g id="Layer 1">
		<g id="&lt;Group&gt;">
			<path id="&lt;Path&gt;" class="s0" d="m643.6 0.7c-71.5 0-129.5 58-129.5 129.6 0 71.6 58 129.6 129.5 129.6 71.6 0 129.6-58 129.6-129.6 0-71.6-58-129.6-129.6-129.6z"/>
		</g>
		<g id="&lt;Clip Group&gt;" clip-path="url(#cp1)">
			<g id="&lt;Clip Group&gt;" clip-path="url(#cp2)">
				<g id="&lt;Group&gt;">
					<g id="&lt;Group&gt;">
						<path id="&lt;Path&gt;" class="s1" d="m492.5 271.1l13.3 10 105.8-138.1h-20.8z"/>
					</g>
					<g id="&lt;Group&gt;">
						<path id="&lt;Path&gt;" class="s1" d="m526.9 271.1l13.3 10 105.7-138.1h-20.8z"/>
					</g>
					<g id="&lt;Group&gt;">
						<path id="&lt;Path&gt;" class="s1" d="m705.6 107h-20.8l107-139.6 13.3 10z"/>
					</g>
					<g id="&lt;Group&gt;">
						<path id="&lt;Path&gt;" class="s1" d="m670.4 107h-20.8l106.9-139.6 13.4 10z"/>
					</g>
					<g id="&lt;Group&gt;">
						<path id="&lt;Path&gt;" class="s1" d="m452.6 213.2l-13.3-10 250-333.3 13.3 10z"/>
					</g>
					<g id="&lt;Group&gt;">
						<path id="&lt;Path&gt;" class="s1" d="m472.4 233l-13.3-10 250-333.3 13.3 10z"/>
					</g>
					<g id="&lt;Group&gt;">
						<path id="&lt;Path&gt;" class="s1" d="m492.3 252.9l-13.4-10 250-333.4 13.4 10z"/>
					</g>
					<g id="&lt;Group&gt;">
						<path id="&lt;Path&gt;" class="s1" d="m569.3 334.2l-13.3-10 250-333.3 13.3 9.9z"/>
					</g>
					<g id="&lt;Group&gt;">
						<path id="&lt;Path&gt;" class="s1" d="m610.1 374.9l-13.4-9.9 250-333.4 13.3 10z"/>
					</g>
					<g id="&lt;Group&gt;">
						<path id="&lt;Path&gt;" class="s1" d="m589.8 354.7l-13.3-10 250-333.3 13.3 10z"/>
					</g>
				</g>
				<path id="&lt;Path&gt;" class="s2" d="m630.8 116.5l73.6-99.6q-7.4-4.1-15.3-7.4l-91.6 123.6h66.5l-82.7 112.4q7.7 3.8 15.9 6.5l100.1-135.5z"/>
			</g>
		</g>
		<path id="&lt;Compound Path&gt;" fill-rule="evenodd" class="s3" d="m773.2 130.3c0 71.6-58 129.6-129.6 129.6-71.5 0-129.5-58-129.5-129.6 0-71.6 58-129.6 129.5-129.6 71.6 0 129.6 58 129.6 129.6zm-244.8 0c0 63.5 51.7 115.2 115.2 115.2 63.6 0 115.2-51.7 115.2-115.2 0-63.5-51.6-115.2-115.2-115.2-63.5 0-115.2 51.7-115.2 115.2z"/>
		<g id="&lt;Group&gt;">
			<path id="&lt;Compound Path&gt;" fill-rule="evenodd" class="s3" d="m44.1 175.3v67.8l-43.2 16.8v-259.2h53.6q28.1 0 40.5 11.9 12.4 11.9 12.4 34.2v78.4q0 23.1-12.4 36.6-12.4 13.5-40.1 13.5zm0-137.9v98.6h6.8q6.1 0 9.2-3.2 3.1-3.2 3.1-9.3v-74.2q0-6.1-3.1-9-3.1-2.9-9.2-2.9z"/>
			<path id="&lt;Compound Path&gt;" fill-rule="evenodd" class="s3" d="m132.4 221.4q-11.3-9.6-11.3-31.4v-119.7q0-20.4 11.3-30.5 11.3-10.1 30.4-10.1 18.8 0 30.2 10.1 11.3 10.1 11.3 30.5v119.7q0 21.8-11.6 31.4-11.6 9.5-30.1 9.5-18.9 0-30.2-9.5zm36.2-24.7q1.6-2.9 1.6-10.2v-114.3q0-7.1-1.6-10.1-1.7-3-6-3-4.4 0-5.9 3-1.5 3-1.5 10.1v114.3q0 7.3 1.6 10.2 1.7 2.9 6 2.9 4.1 0 5.8-2.9z"/>
			<path id="&lt;Path&gt;" class="s3" d="m260.5 228.5h-30l-21.6-196.4h31.6l7.3 105.9c0.2 1.9 2.9 2 3.2 0.1l12.2-106h21l11.2 107.8c0.2 1.9 3 1.9 3.2 0l8.2-107.8h31.4l-23.2 196.4h-29.7l-10.8-100.8c-0.2-1.9-2.9-1.9-3.1 0z"/>
			<path id="&lt;Path&gt;" class="s3" d="m463.3 228.5h-118v-196.4h64v31.1h-31.3v50.5h26.2l0.1 31.3h-26.3v51.6h75.7z"/>
			<path id="&lt;Compound Path&gt;" fill-rule="evenodd" class="s3" d="m478.7 228.5l-22.9-68.4c-0.7-2.2-4-1.7-4 0.6v25.2h-32.7v-153.8h40.6q21.3 0 30.7 9 9.4 9 9.4 25.9v39.8q0 17.4-9.4 27.7c-1.7 1.9-3.8 3.5-6.2 4.9l29.8 89.1zm-26.9-113.5h5.2q4.6 0 7-2.5 2.3-2.4 2.3-7.1v-36.5q0-4.6-2.3-6.8-2.4-2.2-7-2.2h-5.2z"/>
		</g>
		<g id="&lt;Group&gt;">
			<path id="&lt;Compound Path&gt;" fill-rule="evenodd" class="s3" d="m882.2 12.6q12.4 11.9 12.4 34.2v78.5q0 23-12.4 36.5-12.4 13.5-40.1 13.5h-10.8v67.8l-43.2 16.8v-259.2h53.6q28.1 0 40.5 11.9zm-31.8 36.7q0-6.1-3.1-9-3.1-2.9-9.2-2.9h-6.8v98.7h6.8q6.1 0 9.2-3.3 3.1-3.2 3.1-9.3z"/>
			<path id="&lt;Path&gt;" class="s3" d="m938.7 32.1h-33.9v178.2c0 9.4 7.6 17 17 17h115.7v-33.6h-98.8z"/>
			<path id="&lt;Path&gt;" class="s3" d="m1073.5 32.1l-8.5 83.2c-0.1 1.8-2.8 1.8-3-0.1l-8-83.1h-33.3l25.4 147.6v47.6h34.2v-48.4l26.3-146.8z"/>
			<path id="&lt;Compound Path&gt;" fill-rule="evenodd" class="s3" d="m978.8 179.3h-32l27.1-147.2h33.1l28.2 147.2h-32.6l-3.9-32.6-16.9 8zm10-82.8l-3.2 26.8 9.7-4.6-2.7-22.2c-0.3-2.2-3.5-2.2-3.8 0z"/>
		</g>
		<g id="&lt;Group&gt;">
			<g id="&lt;Group&gt;">
				<path id="&lt;Compound Path&gt;" fill-rule="evenodd" class="s3" d="m238.7 377.6h-3.7v7.2h-3.7v-19h7.4c3.9 0 6.2 2.7 6.2 5.9 0 3.2-2.3 5.9-6.2 5.9zm-0.2-8.5h-3.5v5.2h3.5c1.7 0 2.7-1.1 2.7-2.6 0-1.6-1-2.6-2.7-2.6z"/>
				<path id="&lt;Compound Path&gt;" fill-rule="evenodd" class="s3" d="m259.5 384.8l-3.7-7.6h-2.7v7.6h-3.7v-19h7.5c3.8 0 6.1 2.6 6.1 5.8 0 2.6-1.6 4.3-3.4 5l4.2 8.2zm-2.9-15.7h-3.5v5h3.5c1.6 0 2.7-1.1 2.7-2.5 0-1.5-1.1-2.5-2.7-2.5z"/>
				<path id="&lt;Compound Path&gt;" class="s3" d="m268.2 384.8v-19h12.5v3.3h-8.8v4.4h7.5v3.3h-7.5v4.6h8.8v3.4z"/>
				<path id="&lt;Compound Path&gt;" class="s3" d="m290.9 384.9c-2.9 0-5-0.6-6.9-2.5l2.4-2.4c1.2 1.2 2.8 1.6 4.6 1.6 2.2 0 3.3-0.8 3.3-2.3 0-0.7-0.1-1.3-0.5-1.6-0.4-0.4-0.8-0.6-1.7-0.7l-2.3-0.3c-1.7-0.3-2.9-0.8-3.7-1.6q-1.4-1.3-1.4-3.7c0-3.4 2.5-5.8 6.7-5.8 2.6 0 4.5 0.6 6.1 2.2l-2.4 2.3c-1.2-1.1-2.6-1.3-3.9-1.3-1.9 0-2.9 1.1-2.9 2.4 0 0.5 0.2 1 0.6 1.4 0.3 0.3 1 0.6 1.7 0.7l2.3 0.4c1.7 0.2 2.8 0.7 3.6 1.4 1 1 1.5 2.4 1.5 4.1 0 3.6-3.1 5.7-7.1 5.7z"/>
				<path id="&lt;Compound Path&gt;" class="s3" d="m302.8 384.8v-19h12.5v3.3h-8.8v4.4h7.5v3.3h-7.5v4.6h8.8v3.4z"/>
				<path id="&lt;Compound Path&gt;" class="s3" d="m331.5 384.8l-7.5-11.7v11.7h-3.7v-19h3.3l7.5 11.6v-11.6h3.7v19z"/>
				<path id="&lt;Compound Path&gt;" class="s3" d="m347.9 369.1v15.7h-3.7v-15.7h-5v-3.3h13.6v3.3z"/>
				<path id="&lt;Compound Path&gt;" class="s3" d="m357.2 384.8v-19h12.5v3.3h-8.8v4.4h7.5v3.3h-7.5v4.6h8.8v3.4z"/>
				<path id="&lt;Compound Path&gt;" fill-rule="evenodd" class="s3" d="m386.6 382.9c-1.3 1.3-3.1 1.9-5.1 1.9h-6.8v-19h6.8c2 0 3.8 0.5 5.1 1.8 2.1 2.1 1.9 4.7 1.9 7.6 0 2.8 0.2 5.6-1.9 7.7zm-2.6-12.7c-0.7-0.7-1.5-1.1-2.8-1.1h-2.8v12.3h2.8c1.3 0 2.1-0.4 2.8-1.1 0.7-0.9 0.8-2.2 0.8-5.1 0-2.9-0.1-4.1-0.8-5z"/>
				<path id="&lt;Compound Path&gt;" fill-rule="evenodd" class="s3" d="m409.1 384.8h-8v-19h7.7c3.7 0 5.8 2 5.8 5.3 0 2.1-1.3 3.5-2.3 3.9 1.1 0.6 2.6 1.8 2.6 4.3 0 3.5-2.4 5.5-5.8 5.5zm-0.6-15.7h-3.6v4.3h3.6c1.6 0 2.4-0.8 2.4-2.1 0-1.4-0.8-2.2-2.4-2.2zm0.2 7.7h-3.8v4.6h3.8c1.7 0 2.5-1 2.5-2.3 0-1.3-0.8-2.3-2.5-2.3z"/>
				<path id="&lt;Compound Path&gt;" class="s3" d="m427.3 377v7.8h-3.7v-7.8l-5.7-11.2h4l3.6 7.6 3.5-7.6h4z"/>
			</g>
			<path id="&lt;Compound Path&gt;" fill-rule="evenodd" class="s3" d="m519.9 326.8q1.4-0.3 2.8-0.5l4.6 25.8q-1.5 0.1-2.9 0.5zm-14.1 5.8q1.4-0.9 3-1.8l13 22.7q-1.6 0.7-3.1 1.7zm5.8 39.4h-25.8q-0.1-1.3-0.1-2.6 0-1.4 0.1-2.7h25.9q-0.3 1.4-0.3 2.8 0 1.3 0.2 2.5zm33.9-8.3h26.3q0.4 2.8 0.4 5.7 0 2.5-0.3 4.9h-14.1l13.3 4.9q-1.1 4.8-3.2 9.2l-15.2-5.5 12.4 10.4q-2.6 3.9-5.9 7.2l-13.8-11.7 9 15.8q-3.5 2.6-7.6 4.5l-9.9-17.2 3.5 19.5q-3.8 1-7.8 1.4l-3.7-21.1-3.7 21.1q-3.9-0.4-7.5-1.4l4-22.5-11.3 19.8q-3.2-1.5-6.1-3.5l12-21.1-18.4 15.6q-2.2-2.3-4.1-5l19.7-16.6-24.1 8.8q-1.2-2.7-2-5.5l24.3-8.9c1.4 8.3 8.6 14.5 17.3 14.5 9.6 0 17.5-7.8 17.5-17.5 0-2-0.4-4-1-5.8zm-57.9-7q0.7-2.3 1.6-4.4l24.3 8.9q-1.1 2-1.6 4.4zm75.3-14.3l-19.8 16.8q-0.7-0.9-1.4-1.7l19.8-16.7q0.7 0.8 1.4 1.6zm-24.2 12.6q-1-0.7-2.1-1.2l13-22.7q1.1 0.6 2.1 1.3zm-24.3 4.8l-19.9-16.8q1.3-1.6 2.7-3.1l19.8 16.7q-1.5 1.4-2.6 3.2zm20.8-33.5q1.3 0.2 2.6 0.5l-4.5 25.7q-1.3-0.3-2.6-0.4zm276.2 62.7h3.9v21.3q0 13.5-12.5 13.5-1.3 0-2.6-0.1-1.3-0.2-2.5-0.5-1.2-0.2-2.2-0.6-1-0.4-1.6-0.8l1-3.3q2.9 1.9 7.9 1.9 4.4 0 6.4-2.4 2.1-2.3 2.1-7.3v-2.7q-1.1 2-3 3.2-2.4 1.6-5.6 1.6-2.4 0-4.4-0.9-2-0.9-3.5-2.5-1.4-1.6-2.2-3.8-0.8-2.2-0.8-4.9 0-2.6 0.9-4.9 0.8-2.2 2.4-3.9 1.5-1.6 3.6-2.6 2-0.9 4.5-0.9 3 0 5.3 1.6 1.7 1.2 2.8 3.1zm-2.1 17.8q1.1-1.2 1.7-2.7 0.6-1.6 0.6-3.4 0-2-0.6-3.6-0.5-1.6-1.5-2.8-1.1-1.1-2.5-1.8-1.5-0.6-3.3-0.6-1.7 0-3.1 0.7-1.5 0.6-2.5 1.8-1.1 1.1-1.6 2.8-0.6 1.6-0.6 3.5 0 3.9 2.1 6.2 2.1 2.3 5.7 2.3 1.7 0 3.2-0.6 1.4-0.7 2.4-1.8zm-111.1-42.8q-1.9 0.3-3.8 0.3-9.1 0-9.1-9.4v-8.6h-4v-6.7h4v-6.2h8.4v6.2h7.8l-2.1 6.7h-5.7v7.1q0 2.2 0.7 3.1 0.7 0.8 2.4 0.8 1.9 0 3.7-0.7l0.8 6.5q-1.3 0.6-3.1 0.9zm-10 26.9q2.2 2.6 2.2 7.4v13.7h-4v-13q0-3.7-1.3-5.4-1.3-1.7-4.1-1.7-3 0-4.7 2-1.7 2-1.7 5.7v12.4h-4v-34.5h4v15.3q0.8-1.8 2.3-2.9 2.1-1.5 5.1-1.5 4.1 0 6.2 2.5zm-24.8 17.2l1.5 2.9q-1.5 0.8-3.5 1.3-1.9 0.5-3.8 0.5-2.9 0-5.3-0.9-2.3-0.8-4-2.4-1.6-1.6-2.5-3.8-0.9-2.2-0.9-5 0-2.7 0.9-5 0.9-2.2 2.5-3.9 1.7-1.6 4-2.5 2.3-0.9 5-0.9 3.7 0 7.1 1.8l-1.5 2.9q-1.2-0.6-2.6-0.9-1.4-0.3-2.8-0.3-3.9 0-6.2 2.3-2.3 2.4-2.3 6.3 0 4.1 2.3 6.4 2.4 2.3 6.5 2.3 2.7 0 5.6-1.1zm190-13.1q0.7 2.1 0.7 4.6 0 1 0 1.4 0 0.4-0.1 0.8h-17.5q0.7 7.4 8.7 7.4 3.7 0 7.4-1.7l1.4 3q-1.7 1.1-4.1 1.7-2.3 0.6-4.8 0.6-6 0-9.3-3.2-3.3-3.2-3.3-8.9 0-2.7 0.9-4.9 0.8-2.3 2.3-4 1.5-1.6 3.5-2.5 2.1-0.9 4.5-0.9 2.4 0 4.3 0.8 1.9 0.8 3.3 2.3 1.3 1.4 2.1 3.5zm-15.1-0.8q-1.5 1.8-1.8 4.5h13.8q0 0 0-0.1 0-0.5-0.1-0.9-0.8-5.9-6.7-5.9-3.3 0-5.2 2.4zm-199.3 1q0.8 2.1 0.8 4.6 0 1-0.1 1.4 0 0.3 0 0.8h-17.7q0.3 3.3 2.2 5.1 2.3 2.1 6.8 2.1 3.4 0 6.9-1.4l1.5 2.9q-1.5 1-3.9 1.5-2.3 0.6-4.7 0.6-6.1 0-9.4-3.2-3.4-3.1-3.4-8.7 0-2.8 0.9-5.1 0.8-2.3 2.3-4 1.5-1.6 3.6-2.5 2.1-0.9 4.6-0.9 2.3 0 4.2 0.8 1.9 0.9 3.3 2.3 1.4 1.5 2.1 3.7zm-15.2-1.1q-1.5 1.9-1.8 4.8h14q-0.1-1.1-0.4-2.2-0.3-1.4-1.1-2.5-0.8-1.1-2.1-1.7-1.3-0.7-3.2-0.7-3.4 0-5.4 2.3zm-19-41.9h-2.6v11.4h-8.9v-35.4h12.7q3.3 0 5.8 0.8 2.6 0.8 4.4 2.4 1.7 1.5 2.7 3.7 0.9 2.3 0.9 5.1 0 2.9-1.4 5.4-1.3 2.5-3.9 4l8.8 14h-10.3l-6.1-11.5zm-2.6-7h2.6q6.1 0 6.1-5 0-4.9-6-4.9h-2.7zm18.4 36.1h-12.1v30.8h-4.2v-30.8h-12.1v-3.6h28.4zm255.6 24.7q0 3.2-2.5 5.1-2.6 1.8-6.8 1.8-2.3 0-4.5-0.6-2.2-0.6-3.5-1.6l1.7-2.9q3 1.8 6.3 1.8 2.5 0 3.9-0.9 1.4-0.9 1.4-2.5 0-0.7-0.2-1.3-0.2-0.5-0.8-1-0.6-0.4-1.7-0.8-1.1-0.5-2.8-1-3.8-1.1-5.4-2.7-1.6-1.7-1.6-4.3 0-3 2.3-4.8 2.3-1.8 6.2-1.8 1.8 0 3.8 0.6 2 0.5 3.3 1.3l-1.5 2.9q-2.9-1.5-5.6-1.5-4.7 0-4.7 2.9 0 1.4 1.1 2.3 1 0.8 3.7 1.6 2.2 0.7 3.7 1.4 1.6 0.7 2.5 1.5 0.9 0.9 1.3 2 0.4 1.1 0.4 2.5zm-226.8-42.3h-7.9l-0.1-2.7q-1 1.7-2.9 2.6-1.8 0.9-4.1 0.9-2.5 0-4.5-1-2-0.9-3.4-2.6-1.5-1.6-2.3-4-0.8-2.3-0.8-5.1 0-2.7 0.9-5.1 0.8-2.3 2.3-4.1 1.5-1.7 3.6-2.7 2-0.9 4.4-0.9 2.2 0 4 0.9 1.8 0.9 2.8 2.6l0.1-2.8h7.9zm-7.9-12q0-2.4-1.4-3.8-1.3-1.5-3.5-1.5-2.1 0-3.5 1.5-1.3 1.4-1.3 3.8 0 2.4 1.3 3.8 1.4 1.5 3.5 1.5 2.2 0 3.5-1.5 1.4-1.4 1.4-3.8zm144.6 44.2q0.9 2.2 0.9 4.8 0 2.6-0.9 4.9-0.9 2.2-2.5 3.8-1.6 1.6-3.8 2.6-2.2 0.9-4.7 0.9-2.6 0-4.8-0.9-2.2-1-3.8-2.6-1.6-1.6-2.5-3.8-0.9-2.3-0.9-4.9 0-2.6 0.9-4.8 0.9-2.3 2.5-3.9 1.6-1.6 3.8-2.6 2.2-0.9 4.8-0.9 2.5 0 4.7 0.9 2.2 1 3.8 2.6 1.6 1.6 2.5 3.9zm-3.1 4.8q0-1.9-0.6-3.5-0.5-1.7-1.6-2.8-1-1.1-2.5-1.7-1.4-0.6-3.2-0.6-1.8 0-3.3 0.6-1.4 0.6-2.5 1.7-1 1.1-1.6 2.8-0.5 1.6-0.5 3.5 0 2 0.5 3.6 0.6 1.6 1.6 2.7 1.1 1.1 2.5 1.7 1.5 0.7 3.3 0.7 1.8 0 3.2-0.7 1.5-0.6 2.5-1.7 1.1-1.1 1.6-2.7 0.6-1.6 0.6-3.6zm-67.5-9.6q2.1 2.5 2.1 7.4v13.6h-3.9v-12.9q0-3.7-1.3-5.5-1.3-1.7-4.1-1.7-3 0-4.7 2-1.7 2.1-1.7 5.7v12.4h-4v-22.9h3.7l0.1 4q0.8-1.9 2.3-3.1 2.2-1.6 5.3-1.6 4.1 0 6.2 2.6zm68.9-44.5q1 2.4 1 5.1 0 2.8-1 5.1-1 2.3-2.8 4-1.8 1.8-4.2 2.7-2.4 1-5.3 1-2.8 0-5.2-1-2.4-0.9-4.2-2.7-1.8-1.7-2.8-4-1-2.3-1-5.1 0-2.7 1-5.1 1-2.3 2.8-4 1.8-1.7 4.2-2.7 2.4-0.9 5.2-0.9 2.9 0 5.3 0.9 2.4 1 4.2 2.7 1.8 1.7 2.8 4zm-7 5.1q0-2.6-1.4-4.1-1.5-1.6-3.9-1.6-2.3 0-3.8 1.6-1.4 1.5-1.4 4.1 0 2.6 1.4 4.2 1.5 1.5 3.8 1.5 2.4 0 3.9-1.5 1.4-1.6 1.4-4.2zm-21.6 2.1h-15.9q1.3 4.1 7 4.1 1.4 0 3.2-0.3 1.7-0.4 3.2-1l2.6 5.3q-1.8 1.3-4.4 1.9-2.5 0.7-5.3 0.7-3.4 0-6.1-0.9-2.6-0.9-4.5-2.6-1.9-1.6-2.9-4-1-2.4-1-5.3 0-2.8 0.9-5.2 0.9-2.3 2.6-4 1.7-1.7 4-2.6 2.3-0.9 5.1-0.9 2.7 0 4.8 0.8 2.2 0.8 3.8 2.4 1.5 1.6 2.3 3.8 0.8 2.2 0.8 5 0 1.7-0.2 2.8zm-7.6-4.7q-0.2-2-1.3-3-1.1-1-2.8-1-3.5 0-4.3 4zm62.1-7.6q2.1 2.6 2.1 7.6v14.6h-8.4v-13q0-4.3-3.2-4.3-1.7 0-2.6 1.2-1 1.2-1 3.4v12.7h-8.3v-24h8.2l0.1 3q0.9-1.8 2.7-2.8 1.8-0.9 4.1-0.9 4.2 0 6.3 2.5zm12.3 47.7h3.9v22.9h-3.9zm-76 6.7q0.9 2.2 0.9 4.9 0 2.6-0.9 4.8-0.9 2.2-2.5 3.9-1.6 1.6-3.8 2.5-2.2 0.9-4.7 0.9-2.6 0-4.8-0.9-2.2-0.9-3.8-2.5-1.6-1.7-2.5-3.9-0.9-2.2-0.9-4.8 0-2.7 0.9-4.9 0.9-2.2 2.5-3.8 1.6-1.7 3.8-2.6 2.2-0.9 4.8-0.9 2.5 0 4.7 0.9 2.2 0.9 3.8 2.6 1.6 1.6 2.5 3.8zm-3.1 4.9q0-2-0.6-3.6-0.6-1.6-1.6-2.7-1-1.1-2.5-1.8-1.4-0.6-3.2-0.6-1.9 0-3.3 0.6-1.4 0.7-2.5 1.8-1 1.1-1.6 2.7-0.6 1.6-0.6 3.6 0 1.9 0.6 3.5 0.6 1.6 1.6 2.7 1.1 1.2 2.5 1.8 1.4 0.6 3.3 0.6 1.8 0 3.2-0.6 1.5-0.6 2.5-1.8 1-1.1 1.6-2.7 0.6-1.6 0.6-3.5zm-23.8-37v-13.1q0-4.3-3.2-4.3-1.8 0-2.7 1.2-0.9 1.2-0.9 3.5v12.7h-8.4v-35.4h8.4v13.9q1-1.6 2.8-2.4 1.8-0.9 4-0.9 4.2 0 6.3 2.6 2.1 2.5 2.1 7.5v14.7zm106.8 15q0.7 0.8 0.7 2 0 1.2-0.7 2-0.8 0.8-2 0.8-1.2 0-1.9-0.8-0.8-0.8-0.8-2 0-1.2 0.8-2 0.7-0.8 1.9-0.8 1.2 0 2 0.8zm-73.2-1.1h4v34.5h-4zm-91.9-15.4l-9.8-22.6h9.1l4.9 12.8 4.6-12.8h9l-15 34.5h-8.4z"/>
		</g>
		<path id="&lt;Path&gt;" class="s3" d="m1096 217.4c-2.5-0.6-3.1-1-3.1-1.9 0-0.7 0.6-1.3 1.8-1.3 1.2 0 2.5 0.6 3.7 1.4l1.7-2.3c-1.5-1.2-3.3-1.8-5.3-1.8-2.9 0-5 1.7-5 4.3 0 2.8 1.8 3.6 4.7 4.4 2.4 0.6 2.9 1 2.9 1.8 0 0.8-0.8 1.4-2.1 1.4-1.6 0-3-0.7-4.2-1.8l-1.9 2.2c1.7 1.6 3.9 2.3 6.1 2.3 3 0 5.2-1.6 5.2-4.4 0-2.5-1.6-3.6-4.5-4.3z"/>
		<path id="&lt;Path&gt;" class="s3" d="m1114.1 211.7l-3.7 6-3.8-6h-3.4v14.2h3.1v-9.2l4 6h0.1l4-6.1v9.3h3.1v-14.2z"/>
	</g>
</svg>