<?xml version="1.0" encoding="UTF-8" standalone="no"?>
<svg
   xmlns:dc="http://purl.org/dc/elements/1.1/"
   xmlns:cc="http://creativecommons.org/ns#"
   xmlns:rdf="http://www.w3.org/1999/02/22-rdf-syntax-ns#"
   xmlns:svg="http://www.w3.org/2000/svg"
   xmlns="http://www.w3.org/2000/svg"
   viewBox="0 0 188 74.666664"
   height="74.666664"
   width="188"
   xml:space="preserve"
   id="svg2"
   version="1.1"><metadata
     id="metadata8"><rdf:RDF><cc:Work
         rdf:about=""><dc:format>image/svg+xml</dc:format><dc:type
           rdf:resource="http://purl.org/dc/dcmitype/StillImage" /></cc:Work></rdf:RDF></metadata><defs
     id="defs6" /><g
     transform="matrix(1.3333333,0,0,-1.3333333,0,74.666667)"
     id="g10"><g
       transform="scale(0.1)"
       id="g12"><path
         id="path14"
         style="fill:#ffffff;fill-opacity:1;fill-rule:nonzero;stroke:none"
         d="m 976.801,8.94922 v 1.71098 c 2.179,0.1601 3.82,0.3203 3.82,2.0703 0,0.6289 -0.152,1.3281 -0.351,1.8789 l -0.93,3.2812 h -11.25 l -0.981,-2.7695 c -0.199,-0.6719 -0.39,-1.293 -0.39,-1.9609 0,-2.2618 2.383,-2.4219 4.332,-2.5 V 8.94922 H 957.93 v 1.71098 c 3.32,0.1601 4.41,0.8203 5.621,4.1406 l 8.597,23.5976 -0.468,0.7813 c 3.672,1.2109 4.73,1.7617 6.289,2.9297 0.621,-2.1485 0.703,-2.418 1.41,-4.6875 l 7.07,-21.6016 c 1.25,-3.832 1.832,-4.7695 5.192,-5.1211 V 8.94922 Z m -2.852,25.49998 -4.648,-13.1601 h 9.14 z M 863.238,16.0195 C 861.84,13.75 858.48,8.08984 849.691,8.08984 c -9.57,0 -15.781,7.07036 -15.781,16.35936 0,8.6016 5.27,17.0703 16.012,17.0703 5.668,0 8.629,-2.3789 10.469,-3.8203 l 2.187,1.9922 0.152,-9.6133 -1.402,-0.3086 c -0.547,1.8711 -1.367,3.3516 -3.437,5.5821 -0.981,1.0586 -3.321,3.1289 -6.641,3.1289 -5.738,0 -10.27,-4.6914 -10.27,-12.9297 0,-7 3.711,-13.5625 11.051,-13.5625 5.59,0 7.699,3.0898 9.34,5.4726 z m 5.391,-7.07028 v 1.71098 c 3.601,0.3203 3.641,1.1015 3.641,4.1406 0.031,1.1406 0.031,2.2695 0.031,3.3984 v 13.3203 c 0,2.0703 0,4.1407 -0.153,5.1211 -0.16,1.9102 -1.058,2.1875 -3.558,2.3789 v 1.7188 h 13.64 v -1.7188 c -2.66,-0.2304 -3.64,-0.3476 -3.949,-2.0703 -0.23,-1.0508 -0.312,-3.3984 -0.312,-5.3086 v -4.3711 c 2.769,-0.1601 4.691,-0.1992 7.34,-0.1992 2.703,0 4.851,0.0781 7.543,0.1992 v 5.3516 c -0.043,5.7773 -0.082,6.0078 -4.411,6.3984 v 1.7188 H 902.23 V 39.0195 C 898.551,38.5898 898.551,38.5508 898.551,32.5 V 19.1016 c 0,-1.25 0.039,-5.2735 0.16,-6.211 0.238,-1.6797 1.168,-1.9922 3.519,-2.2304 V 8.94922 h -13.789 v 1.71098 c 3.2,0.3593 4.059,0.4687 4.329,2.6601 0.082,0.9414 0.082,2.1094 0.082,4.4102 v 5.8593 c -2.5,0.0821 -4.614,0.1993 -7.231,0.1993 -2.73,0 -4.883,-0.0782 -7.652,-0.1993 v -5.8593 c 0.082,-6.6016 0.152,-6.6016 4.261,-7.0313 V 8.94922 Z m 39.223,0 v 1.71098 c 3.128,0.4296 3.75,0.789 3.789,4.1093 v 16.9493 c -0.039,6.6015 -0.039,6.8007 -3.789,7.3007 v 1.7188 h 13.199 v -1.7188 c -3.711,-0.3476 -3.711,-0.5 -3.711,-7.3007 V 18.8711 c 0,-1.1406 0.039,-4.6914 0.121,-5.6328 0.238,-1.9492 1.129,-2.3789 3.59,-2.5781 V 8.94922 Z m -90.551,0 v 1.71098 c 3.09,0.4296 3.719,0.789 3.75,4.1093 v 16.9493 c -0.031,6.6015 -0.031,6.8007 -3.75,7.3007 v 1.7188 h 13.168 v -1.7188 c -3.75,-0.3476 -3.75,-0.5 -3.75,-7.3007 V 18.8711 c 0,-1.1406 0.082,-4.6914 0.16,-5.6328 0.23,-1.9492 1.133,-2.3789 3.59,-2.5781 V 8.94922 Z m -20.071,0 v 1.71098 c 4.02,0.2812 4.02,0.4687 4.098,6.3281 V 33.0117 L 790.199,8.55078 h -2.82 l -10.188,24.80862 -0.242,-18.711 c 0,-3.1289 0.352,-3.707 3.711,-3.9492 V 8.94922 h -11.012 v 1.74998 c 2.582,0.1211 3.551,0.4727 3.711,2.6211 0.121,0.8594 0.231,3.5586 0.313,5.3086 l 0.43,13.2813 c 0.039,1.0586 0.039,2.5781 0.039,3.7109 0,3.168 -0.621,3.3984 -3.442,3.3984 v 1.7188 h 9.961 l 9.93,-24.0977 10.89,24.0977 h 9.692 v -1.8672 c -3.793,-0.2422 -3.832,-0.6328 -3.793,-5.5898 V 20.1992 c 0,-2.1875 0.043,-4.8906 0.16,-6.5273 0.191,-2.3008 1.09,-2.7305 3.633,-2.9727 V 8.98047 H 797.23 Z m 196.481,0 v 1.71098 c 2.617,0.1601 3.629,0.1992 3.988,2 0.422,2.1093 0.582,20.9687 0.621,24.289 -1.761,1.6016 -2.461,1.9219 -4.609,2.0703 v 1.7188 h 9.569 c 2.66,-3.7891 3.24,-4.6094 7.89,-10.4297 l 8.91,-11.0078 v 14.25 c -0.04,5.039 -0.2,5.3203 -5.24,5.4687 v 1.7188 h 12.54 v -1.7188 c -3.47,-0.039 -3.75,-0.7382 -3.83,-5.9297 l -0.43,-24.53902 h -1.91 l -2.85,3.55862 c -1.45,1.8008 -2.89,3.5898 -4.34,5.3515 l -12.54,15.5079 V 16.4805 c 0,-5.1094 0.36,-5.3086 5.2,-5.7813 V 8.94922 Z M 728.48,24.8789 c 0,-10.9687 -7.5,-16.71874 -15.941,-16.71874 -9.219,0 -16.449,6.67964 -16.449,16.80074 0,8.668 5.82,16.5196 16.019,16.4883 9.653,-0.039 16.371,-6.9179 16.371,-16.5703 z M 712.578,11.0898 c 1.832,0.0391 4.371,0.8985 6.332,3.9493 2.219,3.4414 2.692,6.5625 2.57,10.7422 -0.109,4.0976 -1.281,7.6171 -3.628,10.1171 -1.012,1.0899 -3.012,2.6524 -5.661,2.6211 -2.66,0 -4.613,-1.6797 -5.632,-2.8203 -2.258,-2.539 -3.278,-6.0898 -3.278,-10.1875 0,-4.1406 0.547,-7.3125 2.891,-10.6719 2.066,-2.9609 4.609,-3.75 6.406,-3.75 z M 731.68,10.6992 V 8.94922 h 13.16 v 1.74998 c -3.281,0.3203 -3.711,0.6719 -3.789,4.1016 v 9.1094 h 3.558 c 3.551,0 5.43,-0.3594 5.621,-3.9102 h 1.571 v 10.5117 h -1.571 c -0.152,-3.4414 -1.089,-3.7929 -4.96,-3.7929 h -4.219 v 11.0117 c 1.14,0.1601 1.758,0.1601 3.789,0.1601 6.25,0 8.211,0.0391 9.109,-4.9218 h 1.563 L 755,40.7383 h -23.32 v -1.7188 c 2.269,-0.1914 3.281,-0.3476 3.59,-1.8281 0.242,-0.9805 0.281,-4.4922 0.281,-5.7812 V 20.2305 c 0,-0.8203 -0.082,-4.6797 -0.121,-5.4297 -0.078,-3.4297 -0.469,-3.7813 -3.75,-4.1016 z M 458.359,9.17969 v 1.71871 c 3.121,0.3907 3.75,0.7422 3.789,4.1016 v 16.9102 c -0.039,6.6406 -0.039,6.8398 -3.789,7.3515 v 1.7188 h 13.2 v -1.7188 c -3.707,-0.3515 -3.707,-0.5117 -3.707,-7.3515 V 19.1016 c 0,-1.1328 0,-4.6914 0.16,-5.6211 0.187,-1.961 1.09,-2.3907 3.547,-2.5821 V 9.17969 Z m 140.082,0 v 1.71871 c 3.079,0.3907 3.75,0.7422 3.789,4.1016 v 16.9102 c -0.039,6.6406 -0.039,6.8398 -3.789,7.3515 v 1.7188 h 13.2 v -1.7188 c -3.75,-0.3515 -3.75,-0.5117 -3.75,-7.3515 V 19.1016 c 0,-1.1328 0.039,-4.6914 0.16,-5.6211 0.187,-1.961 1.09,-2.3907 3.59,-2.5821 V 9.17969 Z m -178.793,0 v 1.71871 c 2.653,0.1211 3.59,0.1914 3.981,1.9922 0.43,2.1094 0.551,20.9805 0.59,24.2578 -1.719,1.6407 -2.457,1.9102 -4.571,2.1133 v 1.7188 h 9.532 c 2.66,-3.7891 3.281,-4.6524 7.929,-10.4688 L 446.02,19.5313 V 33.75 c -0.079,5.0781 -0.2,5.3086 -5.282,5.5117 v 1.7188 h 12.543 v -1.7188 c -3.441,-0.0429 -3.75,-0.7812 -3.793,-5.9414 L 449.02,8.75 h -1.911 l -2.808,3.5898 c -1.449,1.8008 -2.891,3.6016 -4.34,5.3594 l -12.582,15.5 V 16.7188 c 0,-5.1172 0.391,-5.3086 5.242,-5.7774 V 9.17969 Z m 152.5,9.92191 1.641,0.1601 c 1.762,-5.1601 4.691,-7.9726 9.449,-7.9726 3.364,0 6.332,1.4414 6.332,4.8398 0,3.6406 -3.441,5.043 -5,5.7109 -1.25,0.461 -2.582,0.8907 -3.871,1.3985 -2.578,0.9414 -7.5,2.9726 -7.5,9.1406 0,5.9414 4.692,9.2617 10.121,9.2617 2.149,0 4.61,-0.3906 7.301,-2.1523 l 1.957,1.4101 1.012,-9.4492 -1.559,-0.3203 c -0.551,2.0703 -0.98,3.0117 -2.23,4.7305 -1.52,1.9492 -3.629,2.8906 -6.211,2.8906 -3.36,0 -5.352,-1.6406 -5.352,-4.1406 0,-3.7891 3.75,-5.0781 7.313,-6.25 1.789,-0.5899 3.277,-1.0899 4.57,-1.8399 2.539,-1.4804 4.609,-4.289 4.609,-8.0781 0,-5.5117 -4.531,-10.04296 -11.21,-10.04296 -4.34,0 -7,1.72266 -8.25,2.49996 l -2.61,1.9102 z M 624.41,9.17969 v 1.37111 c 2.93,0.0703 3.75,1.0898 3.75,3.6289 v 23.4414 h -3.941 c -3.598,0 -5.981,0.1094 -6.25,-5.5508 h -1.68 l 0.27,8.9102 h 28.871 l 0.269,-8.9102 h -1.679 c -0.27,5.6602 -2.649,5.5508 -6.211,5.5508 h -3.981 V 14.1797 c 0,-2.5391 0.82,-3.5899 3.711,-3.6289 V 9.17969 Z M 395.309,40.9805 v -1.7188 c -4.219,-0.2812 -4.219,-0.4336 -4.258,-7.2304 v -7.461 c 0,-3.8711 0.078,-7.1914 2.109,-10.1601 1.641,-2.3789 4.379,-2.6485 5.789,-2.6485 4.571,0 7.071,2.3399 8.16,6.0899 0.903,2.9687 0.942,8.5586 0.942,12.2265 0,1.1719 0,4.961 -0.039,5.9727 -0.203,2.9297 -1.684,2.9687 -4.532,3.25 v 1.7187 h 12.11 v -1.7187 c -2.969,0.039 -3.602,-0.6719 -3.789,-3.832 -0.039,-0.7383 -0.391,-9.5704 -0.43,-10.9375 -0.082,-2.4219 -0.242,-4.8008 -0.781,-7.1094 -2.149,-8.55081 -10.469,-8.98049 -12.699,-8.98049 -1.762,0 -5.352,0.26953 -8.321,2.25779 -4.73,3.1719 -4.769,7.9727 -4.769,13.0899 v 7.1914 c -0.031,3.4297 -0.031,5 -0.153,5.7812 -0.269,1.9883 -1.25,2.3789 -3.628,2.5 v 1.7188 z m 112.742,0 V 39.2617 C 505,38.8281 504.57,37.9688 501.949,31.6406 L 492.27,8.55078 h -1.719 l -8.672,23.43752 c -2.149,6.0625 -2.43,6.8008 -5.629,7.2734 v 1.7188 h 15.078 v -1.7188 c -2.578,-0.082 -4.219,-0.1601 -4.219,-1.9922 0,-0.9414 0.231,-1.6797 1.051,-4.3789 l 5.59,-16.1289 6.449,16.7188 c 0.422,1.1289 0.973,2.539 0.973,3.3593 0,2.3008 -2.262,2.379 -4.262,2.4219 v 1.7188 z M 658.75,9.17969 v 1.71871 c 2.5,0.2735 3.48,0.3516 4.102,0.9805 0.699,0.6992 0.699,1.5195 0.738,5 v 5.582 l -8.43,13.1289 c -2.308,3.4297 -2.351,3.5118 -5.39,3.6719 v 1.7578 h 16.519 v -1.7578 c -3.32,-0.082 -4.809,-0.1601 -4.809,-1.6836 0,-0.8984 0.59,-1.8789 1.411,-3.1992 l 4.839,-7.9687 4.5,7.9296 c 0.821,1.5586 1.29,2.5 1.29,3.2383 0,1.5235 -1.329,1.5625 -3.559,1.7227 v 1.75 h 12.418 v -1.75 c -3.199,-0.1211 -4.141,-1.0625 -7.731,-7 l -5,-8.2813 v -6.6406 c 0,-5.7773 0.043,-6.207 4.762,-6.4805 V 9.17969 Z m -123.48,0 c 0,2.30081 0.39,6.08981 0.671,8.24221 h -1.531 c -1.09,-5.7031 -4.25,-5.4336 -8.859,-5.4336 -4.262,0 -5.082,1.1719 -5.082,3.2422 v 8.8711 h 3.441 c 3.899,0 5,-0.3125 5,-3.8711 h 1.559 v 10.4687 h -1.559 c -0.32,-2.8086 -0.859,-3.75 -5,-3.75 h -3.441 v 11.211 h 3.91 c 5.391,0 7.34,-0.4297 8.043,-4.7188 h 1.449 l -0.16,7.5391 h -22.66 v -1.7188 c 2.269,-0.2422 3.289,-0.3515 3.597,-1.8398 0.231,-0.9727 0.231,-4.4922 0.231,-5.7422 v -11.168 c 0,-0.8633 0,-4.6914 -0.078,-5.4726 -0.071,-3.4375 -0.461,-3.7891 -3.75,-4.0977 V 9.17969 Z M 956.371,23.0117 v -1.7226 c -2.891,-0.1602 -2.891,-0.9805 -3.012,-7.0274 V 11.8789 C 950.941,10.3516 947.422,8.16016 941.129,8.16016 930.23,8.16016 925,16.4492 925,24.7695 c 0,10.1914 6.879,16.8321 15.512,16.8321 5.429,0 8.547,-2.0703 11.168,-3.6328 l 1.64,1.871 0.231,-9.9179 -1.281,-0.2305 c -0.668,1.8672 -1.649,4.0586 -4.032,6.4805 -1.047,1.0195 -3.078,2.3476 -6.289,2.3476 -5.539,0 -10.148,-4.6914 -10.148,-13.8281 0,-7.3125 3.59,-13.6016 9.758,-13.6016 3.601,0 5.39,2.5 5.55,2.6993 0.59,0.8203 0.7,1.6015 0.661,2.9726 -0.149,4.0586 -0.7,4.1797 -4.219,4.5274 v 1.7226 z M 550.039,26.25 c 0.859,-0.1992 2.07,-0.3086 2.973,-0.3086 3.629,-0.043 6.367,2.8086 6.476,5.3477 0.203,3.6718 -1.636,6.8711 -7.5,6.8711 -0.816,0 -1.328,-0.0391 -1.949,-0.1485 z m 0,-6.9492 c 0.039,-7.3125 0.039,-8.2813 3.871,-8.3594 V 9.17969 h -13.289 v 1.76171 c 3.438,0.2695 3.789,0.8203 3.867,4.2578 0.043,1.2813 0.043,2.7696 0.043,4.0625 v 11.5196 c 0,3.8281 -0.082,5.1601 -0.191,6.207 -0.238,1.7617 -1.102,2.0703 -3.719,2.2734 v 1.7188 l 14.418,-0.0391 c 7.852,0 10.352,-3.7109 10.352,-8.1719 0,-3.039 -1.911,-7.0312 -6.289,-8.3906 l 5.628,-9.7695 c 2.032,-3.75 3.122,-4.6094 5.7,-4.96096 V 8.55078 c -0.7,-0.03125 -1.371,-0.07031 -2.11,-0.07031 -5.98,0 -8.441,2.07033 -10.941,7.41793 l -1.789,3.711 c -1.879,4.0195 -2.5,3.832 -5.512,3.832 v -4.1406 z" /><path
         id="path16"
         style="fill:#ffcb05;fill-opacity:1;fill-rule:nonzero;stroke:none"
         d="m 704.219,308.238 -87.34,119.383 v -86.84 h 34.723 V 255 H 490.941 v 85.781 h 32.61 v 133.481 h -32.61 V 560 H 617.148 L 704.219,439.77 791.289,560 H 917.422 V 474.262 H 884.84 V 340.781 h 32.582 V 255 H 756.801 v 85.781 h 34.719 v 86.84 z" /><path
         id="path18"
         style="fill:#ffffff;fill-opacity:1;fill-rule:nonzero;stroke:none"
         d="m 311.879,150.66 v 47.192 L 299.922,150.66 H 287.73 l -11.359,47.192 V 150.66 h -12.109 v 61.18 h 20.226 l 9.692,-41.61 10.23,41.61 h 19.93 v -61.18 z" /><path
         id="path20"
         style="fill:#ffffff;fill-opacity:1;fill-rule:nonzero;stroke:none"
         d="m 335.121,150.672 h 12.7695 V 211.84 H 335.121 Z" /><path
         id="path22"
         style="fill:#ffffff;fill-opacity:1;fill-rule:nonzero;stroke:none"
         d="m 397.461,169.449 c 0,-12.969 -6.332,-19.488 -19.063,-19.488 -4.918,0 -8.707,0.82 -11.449,2.461 -2.687,1.637 -4.758,3.906 -6.168,6.797 -1.402,2.89 -2.23,6.211 -2.461,10 -0.23,3.793 -0.351,7.769 -0.429,11.953 0,4.297 0.16,8.359 0.429,12.187 0.27,3.871 1.09,7.231 2.461,10.082 1.367,2.887 3.438,5.149 6.289,6.789 2.809,1.649 6.801,2.5 11.91,2.54 11.879,0 17.821,-6.051 17.821,-18.122 v -2.109 h -12.539 v 1.332 c 0,6.399 -2.032,9.57 -6.102,9.57 -1.832,0 -3.199,-0.55 -4.18,-1.679 -0.929,-1.141 -1.679,-2.703 -2.179,-4.731 -0.512,-2.031 -0.821,-4.492 -0.942,-7.301 -0.121,-2.82 -0.16,-5.98 -0.16,-9.5 0,-3.039 0.039,-5.851 0.16,-8.39 0.121,-2.539 0.391,-4.77 0.86,-6.68 0.429,-1.922 1.211,-3.359 2.261,-4.34 1.098,-0.941 2.5,-1.48 4.258,-1.601 1.563,0 2.813,0.39 3.641,1.172 0.851,0.82 1.519,1.839 1.949,3.05 0.473,1.25 0.742,2.579 0.863,3.981 0.11,1.449 0.149,2.699 0.149,3.828 h 12.621 z" /><path
         id="path24"
         style="fill:#ffffff;fill-opacity:1;fill-rule:nonzero;stroke:none"
         d="m 433.59,150.66 v 26.961 H 419.102 V 150.66 h -12.891 v 61.18 h 12.891 v -24.219 h 14.488 v 24.219 h 12.859 v -61.18 z" /><path
         id="path26"
         style="fill:#ffffff;fill-opacity:1;fill-rule:nonzero;stroke:none"
         d="m 457.578,150.672 h 12.7734 V 211.84 H 457.578 Z" /><path
         id="path28"
         style="fill:#ffffff;fill-opacity:1;fill-rule:nonzero;stroke:none"
         d="m 517.23,151.25 c -2.152,-0.391 -4.339,-0.699 -6.609,-0.941 -2.262,-0.231 -4.492,-0.348 -6.711,-0.43 -2.031,0 -4.07,0.16 -6.18,0.43 -2.07,0.281 -4.101,0.82 -6.011,1.601 -1.918,0.82 -3.629,1.84 -5.078,3.168 -1.481,1.293 -2.661,3.043 -3.551,5.231 -0.469,1.25 -0.86,2.543 -1.211,3.91 -0.32,1.371 -0.59,2.89 -0.75,4.57 -0.188,1.723 -0.309,3.633 -0.43,5.781 -0.109,2.149 -0.148,4.649 -0.148,7.539 0,4.063 0.148,7.969 0.5,11.68 0.32,3.75 1.219,7.07 2.699,10 1.48,2.93 3.629,5.27 6.52,6.949 2.89,1.684 6.839,2.582 11.878,2.621 6.332,0 11.172,-1.558 14.571,-4.73 3.402,-3.16 5.121,-7.688 5.16,-13.551 v -1.637 H 509.18 v 2.969 c 0,2.461 -0.66,4.371 -2.032,5.781 -1.367,1.399 -3.128,2.11 -5.269,2.11 -1.957,0 -3.52,-0.551 -4.649,-1.602 -1.14,-1.097 -2,-2.539 -2.539,-4.418 -0.589,-1.871 -0.902,-4.062 -1.019,-6.601 -0.121,-2.539 -0.152,-5.309 -0.152,-8.321 v -2.621 c 0,-3.277 0.031,-6.25 0.152,-8.898 0.117,-2.66 0.43,-4.93 1.019,-6.879 0.539,-1.91 1.481,-3.359 2.809,-4.371 1.289,-1.02 3.051,-1.57 5.23,-1.641 2.27,0 4.461,0.43 6.532,1.211 v 13.469 h -7.032 v 9.492 h 19.649 v -31.012 z" /><path
         id="path30"
         style="fill:#ffffff;fill-opacity:1;fill-rule:nonzero;stroke:none"
         d="m 565.199,150.66 -3.398,13.559 H 544.34 l -3.481,-13.559 h -12.621 l 16.961,61.18 h 16.871 l 16.602,-61.18 z m -12.39,49.418 -6.008,-26.637 h 12.379 z" /><path
         id="path32"
         style="fill:#ffffff;fill-opacity:1;fill-rule:nonzero;stroke:none"
         d="m 613.52,150.66 -16.801,44.731 V 150.66 H 584.84 v 61.18 h 17.23 l 16.371,-42.391 v 42.391 h 11.829 v -61.18 z" /><path
         id="path34"
         style="fill:#ffffff;fill-opacity:1;fill-rule:nonzero;stroke:none"
         d="m 660.039,150.66 v 61.18 h 33.402 v -9.418 H 672.809 V 187.34 h 18.992 v -9.41 h -18.992 v -17.7 h 21.293 v -9.57 z" /><path
         id="path36"
         style="fill:#ffffff;fill-opacity:1;fill-rule:nonzero;stroke:none"
         d="m 731.211,150.66 -16.762,44.731 V 150.66 h -11.871 v 61.18 h 17.192 l 16.359,-42.391 v 42.391 h 11.883 v -61.18 z" /><path
         id="path38"
         style="fill:#ffffff;fill-opacity:1;fill-rule:nonzero;stroke:none"
         d="m 795.039,151.25 c -2.148,-0.391 -4.34,-0.699 -6.598,-0.941 -2.269,-0.231 -4.492,-0.348 -6.722,-0.43 -2.028,0 -4.059,0.16 -6.168,0.43 -2.11,0.281 -4.102,0.82 -6.02,1.601 -1.91,0.82 -3.633,1.84 -5.082,3.168 -1.48,1.293 -2.648,3.043 -3.551,5.231 -0.468,1.25 -0.859,2.543 -1.207,3.91 -0.312,1.371 -0.589,2.89 -0.742,4.57 -0.199,1.723 -0.32,3.633 -0.429,5.781 -0.122,2.149 -0.161,4.649 -0.161,7.539 0,4.063 0.161,7.969 0.512,11.68 0.309,3.75 1.207,7.07 2.688,10 1.492,2.93 3.64,5.27 6.531,6.949 2.89,1.684 6.832,2.582 11.871,2.621 6.328,0 11.168,-1.558 14.57,-4.73 3.399,-3.16 5.117,-7.688 5.16,-13.551 v -1.637 h -12.703 v 2.969 c 0,2.461 -0.66,4.371 -2.027,5.781 -1.371,1.399 -3.121,2.11 -5.27,2.11 -1.961,0 -3.519,-0.551 -4.652,-1.602 -1.129,-1.097 -1.988,-2.539 -2.539,-4.418 -0.59,-1.871 -0.898,-4.062 -1.02,-6.601 -0.109,-2.539 -0.152,-5.309 -0.152,-8.321 v -2.621 c 0,-3.277 0.043,-6.25 0.152,-8.898 0.122,-2.66 0.43,-4.93 1.02,-6.879 0.551,-1.91 1.48,-3.359 2.809,-4.371 1.293,-1.02 3.05,-1.57 5.242,-1.641 2.258,0 4.449,0.43 6.519,1.211 v 13.469 h -7.031 v 9.492 h 19.652 v -31.012 z" /><path
         id="path40"
         style="fill:#ffffff;fill-opacity:1;fill-rule:nonzero;stroke:none"
         d="m 810.699,150.672 h 12.8125 V 211.84 H 810.699 Z" /><path
         id="path42"
         style="fill:#ffffff;fill-opacity:1;fill-rule:nonzero;stroke:none"
         d="m 863.09,150.66 -16.762,44.731 V 150.66 h -11.879 v 61.18 h 17.192 l 16.371,-42.391 v 42.391 h 11.867 v -61.18 z" /><path
         id="path44"
         style="fill:#ffffff;fill-opacity:1;fill-rule:nonzero;stroke:none"
         d="m 890.82,150.66 v 61.18 h 33.36 v -9.418 H 903.59 V 187.34 h 18.988 v -9.41 H 903.59 v -17.7 h 21.289 v -9.57 z" /><path
         id="path46"
         style="fill:#ffffff;fill-opacity:1;fill-rule:nonzero;stroke:none"
         d="m 933.16,150.66 v 61.18 h 33.399 v -9.418 H 945.98 V 187.34 h 18.981 v -9.41 H 945.98 v -17.7 h 21.29 v -9.57 z" /><path
         id="path48"
         style="fill:#ffffff;fill-opacity:1;fill-rule:nonzero;stroke:none"
         d="m 1001.91,150.66 c -0.74,1.531 -1.13,2.82 -1.17,3.91 -0.08,1.051 -0.12,2.27 -0.19,3.629 v 8.051 c 0,1.871 -0.12,3.441 -0.43,4.648 -0.28,1.25 -0.78,2.223 -1.53,2.973 -0.699,0.738 -1.711,1.289 -3.039,1.641 -1.289,0.308 -2.973,0.508 -5,0.508 h -2.352 v -25.36 h -12.89 v 61.18 h 21.101 c 2.418,0 4.64,-0.238 6.68,-0.75 2.03,-0.5 3.79,-1.399 5.27,-2.649 1.48,-1.211 2.62,-2.89 3.48,-5 0.86,-2.07 1.25,-4.691 1.25,-7.781 0,-4.41 -0.9,-7.808 -2.7,-10.269 -1.8,-2.422 -4.65,-3.981 -8.48,-4.653 2.89,-0.347 5.04,-0.968 6.53,-1.949 1.48,-0.937 2.54,-2.187 3.24,-3.711 0.66,-1.527 1.05,-3.359 1.17,-5.43 0.12,-2.109 0.24,-4.449 0.43,-7.027 l 0.24,-4.34 c 0.11,-1.25 0.19,-2.5 0.27,-3.832 0.04,-1.289 0.27,-2.539 0.66,-3.789 z m -1.6,43.481 c 0,1.91 -0.19,3.437 -0.58,4.57 -0.429,1.129 -1.058,1.949 -1.96,2.461 -0.891,0.508 -2.032,0.859 -3.321,1.019 -1.289,0.149 -2.808,0.231 -4.488,0.231 h -1.762 v -17.031 h 3.129 c 1.524,0 2.852,0.121 3.981,0.347 1.14,0.242 2.07,0.672 2.781,1.371 0.738,0.661 1.289,1.563 1.64,2.692 0.31,1.14 0.5,2.578 0.58,4.34 z" /><path
         id="path50"
         style="fill:#ffffff;fill-opacity:1;fill-rule:nonzero;stroke:none"
         d="m 1022.7,150.672 h 12.7695 V 211.84 H 1022.7 Z" /><path
         id="path52"
         style="fill:#ffffff;fill-opacity:1;fill-rule:nonzero;stroke:none"
         d="m 1075.04,150.66 -16.76,44.731 V 150.66 h -11.87 v 61.18 h 17.18 l 16.37,-42.391 v 42.391 h 11.88 v -61.18 z" /><path
         id="path54"
         style="fill:#ffffff;fill-opacity:1;fill-rule:nonzero;stroke:none"
         d="m 1138.87,151.25 c -2.15,-0.391 -4.34,-0.699 -6.6,-0.941 -2.27,-0.231 -4.5,-0.348 -6.72,-0.43 -2.03,0 -4.07,0.16 -6.17,0.43 -2.08,0.281 -4.11,0.82 -6.02,1.601 -1.91,0.82 -3.63,1.84 -5.08,3.168 -1.48,1.293 -2.66,3.043 -3.55,5.231 -0.47,1.25 -0.86,2.543 -1.21,3.91 -0.32,1.371 -0.59,2.89 -0.75,4.57 -0.19,1.723 -0.31,3.633 -0.43,5.781 -0.11,2.149 -0.15,4.649 -0.15,7.539 0,4.063 0.15,7.969 0.51,11.68 0.31,3.75 1.21,7.07 2.69,10 1.49,2.93 3.63,5.27 6.52,6.949 2.89,1.684 6.84,2.582 11.88,2.621 6.33,0 11.17,-1.558 14.57,-4.73 3.4,-3.16 5.12,-7.688 5.16,-13.551 v -1.637 h -12.7 v 2.969 c 0,2.461 -0.66,4.371 -2.03,5.781 -1.37,1.399 -3.13,2.11 -5.27,2.11 -1.96,0 -3.52,-0.551 -4.65,-1.602 -1.14,-1.097 -1.99,-2.539 -2.54,-4.418 -0.55,-1.871 -0.9,-4.062 -1.02,-6.601 -0.11,-2.539 -0.15,-5.309 -0.15,-8.321 v -2.621 c 0,-3.277 0.04,-6.25 0.15,-8.898 0.12,-2.66 0.47,-4.93 1.02,-6.879 0.55,-1.91 1.48,-3.359 2.81,-4.371 1.29,-1.02 3.05,-1.57 5.24,-1.641 2.26,0 4.45,0.43 6.52,1.211 v 13.469 h -7.03 v 9.492 h 19.65 v -31.012 z" /><path
         id="path56"
         style="fill:#ffffff;fill-opacity:1;fill-rule:nonzero;stroke:none"
         d="m 39.5703,93.9102 c 0,-13.0118 -6.3711,-19.5 -19.0586,-19.5 -4.9219,0 -8.7109,0.8203 -11.45311,2.4687 -2.6875,1.6406 -4.75781,3.9024 -6.16796,6.793 -1.41016,2.8476 -2.230474,6.207 -2.460942,10 C 0.199219,97.4219 0.0390625,101.41 0,105.59 c 0,4.289 0.160156,8.39 0.429688,12.219 0.269531,3.832 1.089842,7.191 2.460942,10.082 1.32812,2.89 3.4375,5.16 6.25,6.8 2.84767,1.637 6.83987,2.457 11.94917,2.539 11.879,0 17.8204,-6.058 17.8204,-18.171 v -2.11 H 26.3711 v 1.371 c 0,6.371 -2.0313,9.571 -6.1016,9.571 -1.8281,0 -3.1992,-0.551 -4.1797,-1.68 -0.9296,-1.133 -1.6796,-2.731 -2.1796,-4.762 -0.5118,-2.039 -0.8204,-4.461 -0.9414,-7.269 -0.1172,-2.852 -0.1602,-6.02 -0.1602,-9.489 0,-3.05 0.043,-5.8629 0.1602,-8.4019 0.121,-2.5391 0.3906,-4.7696 0.8593,-6.7188 0.4336,-1.9101 1.211,-3.3594 2.2617,-4.3008 1.1016,-0.9687 2.5,-1.5195 4.2618,-1.5976 1.5586,0 2.7695,0.3867 3.6289,1.1679 0.8593,0.7813 1.4883,1.8008 1.9609,3.0508 0.4297,1.25 0.7383,2.5782 0.8594,3.9883 0.0781,1.4024 0.1484,2.6914 0.1484,3.8203 h 12.6211 z" /><path
         id="path58"
         style="fill:#ffffff;fill-opacity:1;fill-rule:nonzero;stroke:none"
         d="m 89.6484,106.09 c 0,-4.488 -0.0781,-8.7111 -0.3086,-12.6095 -0.2382,-3.9102 -1.0585,-7.3086 -2.4609,-10.2422 -1.4101,-2.9688 -3.5586,-5.1875 -6.4492,-6.7891 -2.8906,-1.5703 -6.9883,-2.3906 -12.3086,-2.4687 -4.9609,0 -8.8203,0.8984 -11.6016,2.6211 -2.7695,1.7578 -4.8398,4.0976 -6.25,7.0703 -1.4414,2.9297 -2.2578,6.4062 -2.5703,10.3867 -0.2773,4.0312 -0.4297,8.1714 -0.5078,12.4614 0,4.261 0.1875,8.281 0.5078,12.031 0.3516,3.789 1.25,7.148 2.7305,10 1.4805,2.898 3.5898,5.16 6.3711,6.801 2.7695,1.636 6.5976,2.5 11.5195,2.539 5.1992,0 9.2188,-0.782 12.1094,-2.379 2.8906,-1.563 5,-3.793 6.3711,-6.684 1.3203,-2.887 2.1484,-6.207 2.4609,-10 0.2696,-3.789 0.3867,-8.008 0.3867,-12.738 z m -13.0468,0.941 c 0,3.278 0,6.25 -0.0821,8.91 -0.039,2.649 -0.3476,4.918 -0.8593,6.789 -0.5,1.84 -1.2813,3.321 -2.3399,4.418 -1.0898,1.051 -2.6992,1.602 -4.8398,1.602 -2.0313,0 -3.6016,-0.512 -4.6524,-1.449 -1.0976,-0.973 -1.9179,-2.461 -2.457,-4.492 -0.5898,-2.028 -0.9023,-4.571 -0.9414,-7.61 -0.0781,-3.051 -0.1211,-6.648 -0.1602,-10.789 0,-3.43 0.0391,-6.4803 0.1602,-9.1405 0.1211,-2.6484 0.4687,-4.8789 1.0898,-6.7187 0.6289,-1.7891 1.4102,-3.1602 2.3907,-4.0625 0.9296,-0.8985 2.4179,-1.3672 4.4101,-1.4375 2.0313,0 3.5899,0.5 4.7305,1.4375 1.1289,0.9805 1.9492,2.4609 2.4609,4.4922 0.5078,2.039 0.8164,4.539 0.9375,7.4687 0.1094,2.9297 0.1524,6.4808 0.1524,10.5818 z" /><path
         id="path60"
         style="fill:#ffffff;fill-opacity:1;fill-rule:nonzero;stroke:none"
         d="M 147.031,75.0781 V 122.301 L 135.078,75.0781 H 122.891 L 111.52,122.301 V 75.0781 H 99.4102 v 61.2109 h 20.2378 l 9.692,-41.5976 10.23,41.5976 h 19.918 V 75.0781 Z" /><path
         id="path62"
         style="fill:#ffffff;fill-opacity:1;fill-rule:nonzero;stroke:none"
         d="m 209.691,117.891 c 0,-6.211 -1.453,-10.743 -4.261,-13.551 -2.809,-2.82 -7.418,-4.262 -13.828,-4.34 h -8.364 V 75.0781 h -12.886 v 61.2109 h 21.367 c 2.582,0 5,-0.269 7.191,-0.777 2.18,-0.512 4.102,-1.453 5.66,-2.782 1.602,-1.359 2.852,-3.242 3.75,-5.699 0.899,-2.422 1.371,-5.472 1.371,-9.14 z m -12.972,0.269 c 0,1.961 -0.239,3.52 -0.699,4.649 -0.43,1.14 -1.141,1.992 -2.04,2.621 -0.89,0.621 -1.949,1.019 -3.199,1.211 -1.25,0.16 -2.621,0.238 -4.062,0.238 h -3.481 V 109.41 h 5.16 c 5.551,0 8.321,2.93 8.321,8.75 z" /><path
         id="path64"
         style="fill:#ffffff;fill-opacity:1;fill-rule:nonzero;stroke:none"
         d="m 258.672,95.5898 c 0,-2.9687 -0.313,-5.789 -0.863,-8.3593 -0.579,-2.6211 -1.68,-4.8907 -3.321,-6.8789 -1.636,-1.9922 -3.789,-3.5118 -6.437,-4.6524 -2.66,-1.1289 -6.141,-1.7187 -10.512,-1.7187 -7.148,0 -12.34,1.8008 -15.59,5.4297 -3.199,3.6406 -4.801,8.9492 -4.801,16.0195 v 40.8593 h 12.774 V 95.4297 c 0,-1.5586 0.078,-3.0899 0.277,-4.5703 0.153,-1.4805 0.539,-2.8086 1.172,-3.9805 0.617,-1.1797 1.399,-2.1094 2.379,-2.6992 0.941,-0.6289 2.27,-1.0195 3.98,-1.1289 1.68,0 3.09,0.3086 4.149,0.9297 1.09,0.6289 1.949,1.5312 2.609,2.7383 0.711,1.1718 1.133,2.4609 1.293,3.7929 0.16,1.3672 0.309,2.9297 0.43,4.6875 v 41.0898 h 12.461 z" /><path
         id="path66"
         style="fill:#ffffff;fill-opacity:1;fill-rule:nonzero;stroke:none"
         d="M 291.371,126.371 V 75.0781 H 278.398 V 126.371 H 264.34 v 9.918 h 41.281 v -9.918 z" /><path
         id="path68"
         style="fill:#ffffff;fill-opacity:1;fill-rule:nonzero;stroke:none"
         d="m 311.52,75.0781 v 61.2109 h 33.402 v -9.41 H 324.34 v -15.078 h 18.98 v -9.422 H 324.34 V 84.6914 h 21.281 v -9.6133 z" /><path
         id="path70"
         style="fill:#ffffff;fill-opacity:1;fill-rule:nonzero;stroke:none"
         d="m 380.27,75.0781 c -0.739,1.5235 -1.129,2.8516 -1.168,3.9024 -0.082,1.0976 -0.122,2.3086 -0.192,3.6797 v 8.039 c 0,1.8399 -0.121,3.4024 -0.43,4.6524 -0.281,1.25 -0.781,2.2265 -1.531,2.9687 -0.699,0.7383 -1.719,1.25 -3.039,1.6016 -1.289,0.3481 -2.969,0.5081 -5,0.5081 h -2.351 V 75.0781 h -12.887 v 61.2109 h 21.098 c 2.421,0 4.64,-0.269 6.679,-0.777 2.031,-0.512 3.781,-1.371 5.27,-2.621 1.441,-1.25 2.621,-2.891 3.48,-5 0.852,-2.071 1.25,-4.692 1.25,-7.813 0,-4.379 -0.898,-7.808 -2.699,-10.238 -1.801,-2.418 -4.648,-3.981 -8.48,-4.641 2.89,-0.359 5.039,-1.019 6.531,-1.961 1.48,-0.968 2.539,-2.218 3.199,-3.7497 0.699,-1.5195 1.09,-3.3164 1.211,-5.4297 0.117,-2.0703 0.238,-4.4102 0.43,-7.0273 l 0.238,-4.3008 c 0.109,-1.25 0.191,-2.5313 0.269,-3.8203 0.043,-1.2891 0.274,-2.5821 0.661,-3.8321 z m -1.598,43.4729 c 0,1.961 -0.192,3.48 -0.582,4.609 -0.43,1.141 -1.059,1.918 -1.961,2.43 -0.899,0.539 -2.027,0.859 -3.32,1.051 -1.289,0.16 -2.809,0.238 -4.489,0.238 h -1.761 V 109.84 h 3.132 c 1.52,0 2.848,0.121 3.981,0.359 1.129,0.192 2.066,0.66 2.777,1.321 0.742,0.71 1.281,1.601 1.641,2.742 0.308,1.129 0.5,2.578 0.582,4.289 z" /><path
         id="path72"
         style="fill:#ffffff;fill-opacity:1;fill-rule:nonzero;stroke:none"
         d="m 457.891,91.6016 c 0,-3.3203 -0.512,-6.0899 -1.52,-8.3633 -1.019,-2.2578 -2.461,-4.0586 -4.422,-5.4297 -1.91,-1.3594 -4.097,-2.2969 -6.597,-2.8867 -2.461,-0.543 -5.313,-0.8633 -8.473,-0.9414 -2.82,0 -5.359,0.2812 -7.617,0.8593 -2.274,0.5508 -4.223,1.5313 -5.864,2.8907 -1.636,1.3281 -2.847,3.0078 -3.707,5 -0.863,1.9609 -1.293,4.4179 -1.371,7.3476 v 3.9024 h 12.969 v -1.6016 c 0,-3.1992 0.551,-5.5391 1.602,-6.9492 1.089,-1.4102 2.847,-2.1484 5.347,-2.1914 2.153,0 3.832,0.5898 5,1.7617 1.172,1.2109 1.801,2.8516 1.801,5 0,1.6406 -0.391,3.0508 -1.129,4.1797 -0.711,1.1289 -1.961,2.2305 -3.64,3.2812 l -7.11,4.3401 c -2.422,1.437 -4.488,2.808 -6.211,4.058 -1.679,1.25 -3.121,2.539 -4.289,3.911 -1.211,1.32 -2.039,2.89 -2.539,4.57 -0.512,1.68 -0.82,3.75 -0.941,6.172 -0.078,3.039 0.429,5.66 1.441,7.808 1.02,2.149 2.469,3.871 4.418,5.16 1.91,1.321 4.063,2.258 6.41,2.891 2.379,0.617 5,0.93 7.891,0.93 11.871,0 17.808,-5.192 17.808,-15.582 v -2.809 h -12.539 v 1.52 c 0,5.269 -2.07,7.89 -6.211,7.89 -1.839,0 -3.359,-0.621 -4.488,-1.871 -1.14,-1.25 -1.68,-2.898 -1.68,-4.929 0,-2.77 1.36,-5 4.141,-6.68 l 12.149,-7.692 c 1.558,-1.058 2.929,-2.027 4.14,-2.968 1.168,-0.981 2.141,-2.071 2.891,-3.321 0.699,-1.2496 1.328,-2.5777 1.75,-3.9801 0.469,-1.4101 0.668,-3.168 0.59,-5.2773 z" /><path
         id="path74"
         style="fill:#ffffff;fill-opacity:1;fill-rule:nonzero;stroke:none"
         d="m 505.781,93.9102 c 0,-13.0118 -6.371,-19.5 -19.062,-19.5 -4.918,0 -8.707,0.8203 -11.449,2.4687 -2.692,1.6406 -4.758,3.9024 -6.168,6.793 -1.403,2.8476 -2.223,6.207 -2.461,10 -0.231,3.75 -0.391,7.7381 -0.43,11.9181 0,4.289 0.16,8.39 0.43,12.219 0.269,3.832 1.089,7.191 2.461,10.082 1.328,2.89 3.437,5.16 6.25,6.8 2.847,1.637 6.839,2.457 11.949,2.539 11.879,0 17.82,-6.058 17.82,-18.171 v -2.11 h -12.543 v 1.371 c 0,6.371 -2.027,9.571 -6.098,9.571 -1.832,0 -3.199,-0.551 -4.179,-1.68 -0.93,-1.133 -1.68,-2.731 -2.18,-4.762 -0.512,-2.039 -0.82,-4.461 -0.941,-7.269 -0.121,-2.852 -0.16,-6.02 -0.16,-9.489 0,-3.05 0.039,-5.8629 0.16,-8.4019 0.121,-2.5391 0.39,-4.7696 0.859,-6.7188 0.43,-1.9101 1.211,-3.3594 2.262,-4.3008 1.097,-0.9687 2.5,-1.5195 4.258,-1.5976 1.562,0 2.781,0.3867 3.64,1.1679 0.852,0.7813 1.481,1.8008 1.949,3.0508 0.43,1.25 0.743,2.5782 0.864,3.9883 0.078,1.4024 0.148,2.6914 0.148,3.8203 h 12.621 z" /><path
         id="path76"
         style="fill:#ffffff;fill-opacity:1;fill-rule:nonzero;stroke:none"
         d="m 514.102,75.0781 h 12.7695 V 136.289 H 514.102 Z" /><path
         id="path78"
         style="fill:#ffffff;fill-opacity:1;fill-rule:nonzero;stroke:none"
         d="m 537.66,75.0781 v 61.2109 h 33.391 v -9.41 h -20.582 v -15.078 h 18.98 v -9.422 h -18.98 V 84.6914 h 21.25 v -9.6133 z" /><path
         id="path80"
         style="fill:#ffffff;fill-opacity:1;fill-rule:nonzero;stroke:none"
         d="M 608.828,75.0781 592.07,119.84 V 75.0781 h -11.871 v 61.2109 h 17.223 L 613.75,93.9102 v 42.3788 h 11.871 V 75.0781 Z" /><path
         id="path82"
         style="fill:#ffffff;fill-opacity:1;fill-rule:nonzero;stroke:none"
         d="m 675.391,93.9102 c 0,-13.0118 -6.371,-19.5 -19.102,-19.5 -4.879,0 -8.711,0.8203 -11.449,2.4687 -2.692,1.6406 -4.762,3.9024 -6.168,6.793 -1.402,2.8476 -2.223,6.207 -2.461,10 -0.231,3.75 -0.352,7.7381 -0.43,11.9181 0,4.289 0.16,8.39 0.43,12.219 0.269,3.832 1.09,7.191 2.461,10.082 1.367,2.89 3.437,5.16 6.289,6.8 2.809,1.637 6.801,2.457 11.949,2.539 11.84,0 17.781,-6.058 17.781,-18.171 v -2.11 h -12.543 v 1.371 c 0,6.371 -2.027,9.571 -6.097,9.571 -1.789,0 -3.199,-0.551 -4.141,-1.68 -0.969,-1.133 -1.711,-2.731 -2.219,-4.762 -0.511,-2.039 -0.82,-4.461 -0.941,-7.269 -0.121,-2.852 -0.16,-6.02 -0.16,-9.489 0,-3.05 0.039,-5.8629 0.16,-8.4019 0.121,-2.5391 0.391,-4.7696 0.859,-6.7188 0.469,-1.9101 1.211,-3.3594 2.301,-4.3008 1.059,-0.9687 2.469,-1.5195 4.219,-1.5976 1.601,0 2.82,0.3867 3.641,1.1679 0.851,0.7813 1.519,1.8008 1.949,3.0508 0.472,1.25 0.742,2.5782 0.859,3.9883 0.121,1.4024 0.152,2.6914 0.152,3.8203 h 12.661 z" /><path
         id="path84"
         style="fill:#ffffff;fill-opacity:1;fill-rule:nonzero;stroke:none"
         d="m 683.672,75.0781 v 61.2109 h 33.398 v -9.41 h -20.59 v -15.078 h 18.989 v -9.422 H 696.48 V 84.6914 h 21.25 v -9.6133 z" /><path
         id="path86"
         style="fill:#ffffff;fill-opacity:1;fill-rule:nonzero;stroke:none"
         d="m 777.148,75.0781 -3.398,13.5938 h -17.422 l -3.476,-13.5938 h -12.653 l 16.949,61.2109 H 774.02 L 790.621,75.0781 Z M 764.77,124.488 758.75,97.8906 h 12.379 z" /><path
         id="path88"
         style="fill:#ffffff;fill-opacity:1;fill-rule:nonzero;stroke:none"
         d="M 825.469,75.0781 808.672,119.84 V 75.0781 H 796.84 v 61.2109 h 17.18 L 830.391,93.9102 V 136.289 H 842.23 V 75.0781 Z" /><path
         id="path90"
         style="fill:#ffffff;fill-opacity:1;fill-rule:nonzero;stroke:none"
         d="m 894.691,105.078 c 0,-4.687 -0.203,-8.8671 -0.589,-12.5389 -0.391,-3.668 -1.372,-6.8399 -2.973,-9.4883 -1.559,-2.6602 -3.859,-4.6094 -6.949,-5.9414 -3.051,-1.2891 -7.192,-1.9492 -12.418,-2.0313 h -18.321 v 61.2109 h 19.649 c 5.031,0 8.98,-0.738 11.871,-2.23 2.891,-1.438 5.039,-3.547 6.449,-6.329 1.399,-2.769 2.301,-6.05 2.692,-9.839 0.386,-3.789 0.589,-8.051 0.589,-12.813 z M 881.91,104.84 c 0,2.66 -0.031,5 -0.07,7.039 -0.078,2.031 -0.238,3.781 -0.512,5.269 -0.308,1.442 -0.547,2.731 -0.777,3.872 -0.242,1.128 -0.629,2.07 -1.25,2.808 -0.711,1.133 -1.762,1.91 -3.172,2.383 -1.399,0.43 -3.469,0.668 -6.25,0.668 H 866.48 V 84.6914 h 2.469 c 1.563,0 2.891,0 3.981,0.0781 1.05,0.0313 1.992,0.2305 2.691,0.5 0.75,0.2813 1.41,0.5899 1.957,0.9414 0.582,0.3086 1.051,0.8204 1.442,1.5196 0.511,0.6679 0.941,1.4883 1.289,2.4687 0.312,0.9297 0.632,2.1016 0.941,3.4727 0.27,1.3281 0.43,2.9297 0.512,4.7265 0.039,1.8006 0.078,3.9416 0.148,6.4416 z" /><path
         id="path92"
         style="fill:#ffffff;fill-opacity:1;fill-rule:nonzero;stroke:none"
         d="m 923.789,75.0781 v 61.2109 h 33.359 v -9.41 h -20.589 v -15.078 h 18.992 v -9.422 H 936.559 V 84.6914 h 21.293 v -9.6133 z" /><path
         id="path94"
         style="fill:#ffffff;fill-opacity:1;fill-rule:nonzero;stroke:none"
         d="M 994.961,75.0781 978.199,119.84 V 75.0781 h -11.871 v 61.2109 h 17.192 l 16.359,-42.3788 v 42.3788 h 11.881 V 75.0781 Z" /><path
         id="path96"
         style="fill:#ffffff;fill-opacity:1;fill-rule:nonzero;stroke:none"
         d="m 1058.79,75.6992 c -2.15,-0.4297 -4.38,-0.6992 -6.6,-0.9297 -2.27,-0.2382 -4.49,-0.3906 -6.72,-0.4297 -2.03,0 -4.1,0.1485 -6.17,0.4297 -2.11,0.2696 -4.1,0.8203 -6.02,1.6016 -1.91,0.7773 -3.63,1.8281 -5.08,3.1172 -1.48,1.332 -2.65,3.0508 -3.59,5.2812 -0.43,1.25 -0.82,2.5313 -1.17,3.9024 -0.35,1.3281 -0.59,2.8476 -0.74,4.5664 -0.2,1.6836 -0.32,3.6015 -0.43,5.7422 -0.12,2.1485 -0.2,4.6915 -0.2,7.5395 0,4.07 0.2,7.968 0.51,11.718 0.35,3.711 1.25,7.071 2.73,10 1.45,2.934 3.64,5.242 6.53,6.961 2.89,1.68 6.83,2.531 11.87,2.61 6.33,0 11.17,-1.598 14.57,-4.758 3.4,-3.172 5.12,-7.66 5.16,-13.563 v -1.597 h -12.7 v 2.968 c 0,2.422 -0.7,4.34 -2.03,5.782 -1.37,1.41 -3.12,2.109 -5.27,2.109 -1.99,0 -3.52,-0.551 -4.65,-1.602 -1.13,-1.097 -1.99,-2.578 -2.54,-4.418 -0.59,-1.871 -0.9,-4.058 -1.02,-6.601 -0.11,-2.578 -0.19,-5.309 -0.19,-8.32 v -2.61 c 0,-3.289 0.08,-6.2498 0.19,-8.9099 0.12,-2.6602 0.43,-4.961 1.02,-6.8789 0.55,-1.9102 1.48,-3.3907 2.77,-4.4102 1.33,-1.0195 3.05,-1.5586 5.28,-1.6016 2.26,0 4.41,0.3907 6.52,1.1719 v 13.4805 h -7.03 v 9.4882 h 19.65 V 76.5195 Z" /><path
         id="path98"
         style="fill:#ffffff;fill-opacity:1;fill-rule:nonzero;stroke:none"
         d="m 1074.45,75.0781 h 12.8125 V 136.289 H 1074.45 Z" /><path
         id="path100"
         style="fill:#ffffff;fill-opacity:1;fill-rule:nonzero;stroke:none"
         d="m 1126.84,75.0781 -16.8,44.7619 V 75.0781 h -11.84 v 61.2109 h 17.19 l 16.37,-42.3788 v 42.3788 h 11.87 V 75.0781 Z" /><path
         id="path102"
         style="fill:#ffffff;fill-opacity:1;fill-rule:nonzero;stroke:none"
         d="m 1154.53,75.0781 v 61.2109 h 33.4 v -9.41 h -20.59 v -15.078 h 18.99 v -9.422 h -18.99 V 84.6914 h 21.29 v -9.6133 z" /><path
         id="path104"
         style="fill:#ffffff;fill-opacity:1;fill-rule:nonzero;stroke:none"
         d="m 1196.91,75.0781 v 61.2109 h 33.4 v -9.41 h -20.58 v -15.078 h 18.98 v -9.422 h -18.98 V 84.6914 h 21.25 v -9.6133 z" /><path
         id="path106"
         style="fill:#ffffff;fill-opacity:1;fill-rule:nonzero;stroke:none"
         d="m 1265.66,75.0781 c -0.74,1.5235 -1.13,2.8516 -1.21,3.9024 -0.04,1.0976 -0.07,2.3086 -0.15,3.6797 v 8.039 c 0,1.8399 -0.16,3.4024 -0.43,4.6524 -0.28,1.25 -0.78,2.2265 -1.53,2.9687 -0.74,0.7383 -1.75,1.25 -3.04,1.6016 -1.29,0.3481 -2.97,0.5081 -5,0.5081 h -2.39 V 75.0781 h -12.85 v 61.2109 h 21.1 c 2.42,0 4.64,-0.269 6.68,-0.777 2.03,-0.512 3.78,-1.371 5.27,-2.621 1.44,-1.25 2.62,-2.891 3.48,-5 0.82,-2.071 1.25,-4.692 1.25,-7.813 0,-4.379 -0.9,-7.808 -2.7,-10.238 -1.84,-2.418 -4.65,-3.981 -8.48,-4.641 2.89,-0.359 5.04,-1.019 6.53,-1.961 1.44,-0.968 2.54,-2.218 3.2,-3.7497 0.7,-1.5195 1.09,-3.3164 1.21,-5.4297 0.12,-2.0703 0.24,-4.4102 0.43,-7.0273 l 0.24,-4.3008 c 0.11,-1.25 0.19,-2.5313 0.27,-3.8203 0.04,-1.2891 0.27,-2.5821 0.66,-3.8321 z m -1.6,43.4729 c 0,1.961 -0.19,3.48 -0.62,4.609 -0.39,1.141 -1.02,1.918 -1.96,2.43 -0.89,0.539 -1.99,0.859 -3.28,1.051 -1.29,0.16 -2.81,0.238 -4.49,0.238 h -1.8 V 109.84 h 3.17 c 1.52,0 2.85,0.121 3.98,0.359 1.14,0.192 2.03,0.66 2.78,1.321 0.74,0.71 1.28,1.601 1.6,2.742 0.35,1.129 0.54,2.578 0.62,4.289 z" /><path
         id="path108"
         style="fill:#ffffff;fill-opacity:1;fill-rule:nonzero;stroke:none"
         d="m 1286.41,75.0781 h 12.8086 V 136.289 H 1286.41 Z" /><path
         id="path110"
         style="fill:#ffffff;fill-opacity:1;fill-rule:nonzero;stroke:none"
         d="M 1338.79,75.0781 1322.03,119.84 V 75.0781 h -11.87 v 61.2109 h 17.18 l 16.37,-42.3788 v 42.3788 h 11.88 V 75.0781 Z" /><path
         id="path112"
         style="fill:#ffffff;fill-opacity:1;fill-rule:nonzero;stroke:none"
         d="m 1402.62,75.6992 c -2.15,-0.4297 -4.34,-0.6992 -6.6,-0.9297 -2.27,-0.2382 -4.5,-0.3906 -6.72,-0.4297 -2.03,0 -4.1,0.1485 -6.18,0.4297 -2.1,0.2696 -4.1,0.8203 -6.01,1.6016 -1.91,0.7773 -3.63,1.8281 -5.08,3.1172 -1.48,1.332 -2.65,3.0508 -3.55,5.2812 -0.47,1.25 -0.86,2.5313 -1.21,3.9024 -0.36,1.3281 -0.59,2.8476 -0.75,4.5664 -0.19,1.6836 -0.31,3.6015 -0.43,5.7422 -0.11,2.1485 -0.19,4.6915 -0.19,7.5395 0,4.07 0.19,7.968 0.51,11.718 0.35,3.711 1.25,7.071 2.73,10 1.45,2.934 3.63,5.242 6.52,6.961 2.89,1.68 6.84,2.531 11.88,2.61 6.33,0 11.17,-1.598 14.57,-4.758 3.4,-3.172 5.12,-7.66 5.16,-13.563 v -1.597 h -12.7 v 2.968 c 0,2.422 -0.7,4.34 -2.03,5.782 -1.37,1.41 -3.13,2.109 -5.27,2.109 -1.96,0 -3.52,-0.551 -4.65,-1.602 -1.14,-1.097 -2,-2.578 -2.54,-4.418 -0.59,-1.871 -0.9,-4.058 -1.02,-6.601 -0.11,-2.578 -0.19,-5.309 -0.19,-8.32 v -2.61 c 0,-3.289 0.08,-6.2498 0.19,-8.9099 0.12,-2.6602 0.43,-4.961 1.02,-6.8789 0.54,-1.9102 1.48,-3.3907 2.77,-4.4102 1.33,-1.0195 3.05,-1.5586 5.27,-1.6016 2.27,0 4.42,0.3907 6.53,1.1719 v 13.4805 h -7.03 v 9.4882 h 19.65 V 76.5195 Z" /></g></g></svg>