<?xml version="1.0" encoding="UTF-8" standalone="no"?>
<svg
   xmlns:dc="http://purl.org/dc/elements/1.1/"
   xmlns:cc="http://creativecommons.org/ns#"
   xmlns:rdf="http://www.w3.org/1999/02/22-rdf-syntax-ns#"
   xmlns:svg="http://www.w3.org/2000/svg"
   xmlns="http://www.w3.org/2000/svg"
   viewBox="0 0 132 74.666664"
   height="74.666664"
   width="132"
   xml:space="preserve"
   id="svg2"
   version="1.1"><metadata
     id="metadata8"><rdf:RDF><cc:Work
         rdf:about=""><dc:format>image/svg+xml</dc:format><dc:type
           rdf:resource="http://purl.org/dc/dcmitype/StillImage" /></cc:Work></rdf:RDF></metadata><defs
     id="defs6" /><g
     transform="matrix(1.3333333,0,0,-1.3333333,0,74.666667)"
     id="g10"><g
       transform="scale(0.1)"
       id="g12"><path
         id="path14"
         style="fill:#ffffff;fill-opacity:1;fill-rule:nonzero;stroke:none"
         d="m 764.34,8.94922 v 1.71098 c 2.14,0.1601 3.82,0.3203 3.82,2.0703 0,0.6289 -0.191,1.3281 -0.351,1.8789 l -0.969,3.2812 h -11.219 l -0.973,-2.7695 c -0.199,-0.6719 -0.429,-1.293 -0.429,-1.9609 0,-2.2618 2.383,-2.4219 4.332,-2.5 V 8.94922 h -13.082 v 1.71098 c 3.32,0.1601 4.41,0.8203 5.621,4.1406 l 8.601,23.5976 -0.472,0.7813 c 3.672,1.2109 4.691,1.7617 6.293,2.9297 0.617,-2.1485 0.699,-2.418 1.398,-4.6875 l 7.07,-21.6016 c 1.25,-3.832 1.84,-4.7695 5.2,-5.1211 V 8.94922 Z m -2.86,25.49998 -4.64,-13.1601 h 9.14 z M 650.781,16.0195 C 649.379,13.75 646.02,8.08984 637.23,8.08984 c -9.57,0 -15.781,7.07036 -15.781,16.35936 0,8.6016 5.27,17.0703 16.012,17.0703 5.629,0 8.629,-2.3789 10.469,-3.8203 l 2.148,1.9922 0.192,-9.6133 -1.399,-0.3086 c -0.551,1.8711 -1.371,3.3516 -3.441,5.5821 -0.981,1.0586 -3.321,3.1289 -6.641,3.1289 -5.777,0 -10.269,-4.6914 -10.269,-12.9297 0,-7 3.71,-13.5625 11.05,-13.5625 5.59,0 7.7,3.0898 9.34,5.4726 z m 5.348,-7.07028 v 1.71098 c 3.641,0.3203 3.672,1.1015 3.672,4.1406 0.039,1.1406 0.039,2.2695 0.039,3.3984 v 13.3203 c 0,2.0703 0,4.1407 -0.149,5.1211 -0.16,1.9102 -1.062,2.1875 -3.562,2.3789 v 1.7188 h 13.641 v -1.7188 c -2.661,-0.2304 -3.68,-0.3476 -3.989,-2.0703 -0.191,-1.0508 -0.269,-3.3984 -0.269,-5.3086 v -4.3711 c 2.769,-0.1601 4.687,-0.1992 7.34,-0.1992 2.699,0 4.847,0.0781 7.539,0.1992 v 5.3516 c -0.039,5.7773 -0.082,6.0078 -4.411,6.3984 v 1.7188 h 13.79 V 39.0195 C 686.09,38.5898 686.09,38.5508 686.09,32.5 V 19.1016 c 0,-1.25 0.039,-5.2735 0.16,-6.211 0.23,-1.6797 1.172,-1.9922 3.52,-2.2304 V 8.94922 h -13.79 v 1.71098 c 3.2,0.3593 4.059,0.4687 4.329,2.6601 0.082,0.9414 0.082,2.1094 0.082,4.4102 v 5.8593 c -2.5,0.0821 -4.61,0.1993 -7.231,0.1993 -2.73,0 -4.879,-0.0782 -7.648,-0.1993 v -5.8593 c 0.078,-6.6016 0.148,-6.6016 4.258,-7.0313 V 8.94922 Z m 39.262,0 v 1.71098 c 3.129,0.4296 3.711,0.789 3.789,4.1093 v 16.9493 c -0.078,6.6015 -0.078,6.8007 -3.789,7.3007 v 1.7188 h 13.199 v -1.7188 c -3.711,-0.3476 -3.711,-0.5 -3.711,-7.3007 V 18.8711 c 0,-1.1406 0.043,-4.6914 0.121,-5.6328 0.23,-1.9492 1.129,-2.3789 3.59,-2.5781 V 8.94922 Z m -90.59,0 v 1.71098 c 3.129,0.4296 3.75,0.789 3.789,4.1093 v 16.9493 c -0.039,6.6015 -0.039,6.8007 -3.789,7.3007 v 1.7188 h 13.211 v -1.7188 c -3.75,-0.3476 -3.75,-0.5 -3.75,-7.3007 V 18.8711 c 0,-1.1406 0.078,-4.6914 0.148,-5.6328 0.238,-1.9492 1.141,-2.3789 3.602,-2.5781 V 8.94922 Z m -20.031,0 v 1.71098 c 4.019,0.2812 4.019,0.4687 4.058,6.3281 V 33.0117 L 577.699,8.55078 h -2.777 L 564.73,33.3594 564.488,14.6484 c 0,-3.1289 0.352,-3.707 3.711,-3.9492 V 8.94922 h -11.008 v 1.74998 c 2.539,0.1211 3.547,0.4727 3.707,2.6211 0.122,0.8594 0.231,3.5586 0.313,5.3086 l 0.43,13.2813 c 0.039,1.0586 0.039,2.5781 0.039,3.7109 0,3.168 -0.629,3.3984 -3.481,3.3984 v 1.7188 h 10 l 9.922,-24.0977 10.899,24.0977 h 9.691 v -1.8672 c -3.789,-0.2422 -3.832,-0.6328 -3.789,-5.5898 V 20.1992 c 0,-2.1875 0.039,-4.8906 0.156,-6.5273 0.192,-2.3008 1.094,-2.7305 3.633,-2.9727 V 8.98047 H 584.77 Z m 196.48,0 v 1.71098 c 2.621,0.1601 3.629,0.1992 3.98,2 0.43,2.1093 0.59,20.9687 0.59,24.289 -1.718,1.6016 -2.461,1.9219 -4.57,2.0703 v 1.7188 h 9.57 c 2.66,-3.7891 3.2,-4.6094 7.891,-10.4297 l 8.91,-11.0078 v 14.25 c -0.043,5.039 -0.199,5.3203 -5.242,5.4687 v 1.7188 h 12.543 v -1.7188 c -3.473,-0.039 -3.793,-0.7382 -3.832,-5.9297 L 810.66,8.55078 h -1.91 l -2.852,3.55862 c -1.449,1.8008 -2.886,3.5898 -4.339,5.3515 L 789.02,32.9688 V 16.4805 c 0,-5.1094 0.359,-5.3086 5.199,-5.7813 V 8.94922 Z M 516.02,24.8789 c 0,-10.9687 -7.5,-16.71874 -15.942,-16.71874 -9.258,0 -16.449,6.67964 -16.449,16.80074 0,8.668 5.82,16.5196 16.019,16.4883 9.653,-0.039 16.372,-6.9179 16.372,-16.5703 z M 500.121,11.0898 c 1.789,0.0391 4.328,0.8985 6.289,3.9493 2.262,3.4414 2.731,6.5625 2.61,10.7422 -0.149,4.0976 -1.29,7.6171 -3.629,10.1171 -1.012,1.0899 -3.012,2.6524 -5.7,2.6211 -2.621,0 -4.57,-1.6797 -5.589,-2.8203 -2.262,-2.539 -3.282,-6.0898 -3.282,-10.1875 0,-4.1406 0.551,-7.3125 2.891,-10.6719 2.07,-2.9609 4.609,-3.75 6.41,-3.75 z M 519.18,10.6992 V 8.94922 h 13.199 v 1.74998 c -3.277,0.3203 -3.707,0.6719 -3.828,4.1016 l 0.039,9.1094 h 3.519 c 3.551,0 5.469,-0.3594 5.661,-3.9102 h 1.57 v 10.5117 h -1.57 c -0.149,-3.4414 -1.09,-3.7929 -5,-3.7929 h -4.18 v 11.0117 c 1.14,0.1601 1.762,0.1601 3.789,0.1601 6.211,0 8.211,0.0391 9.07,-4.9218 h 1.563 l -0.473,7.7695 h -23.32 v -1.7188 c 2.261,-0.1914 3.281,-0.3476 3.59,-1.8281 0.242,-0.9805 0.242,-4.4922 0.242,-5.7812 V 20.2305 c 0,-0.8203 -0.039,-4.6797 -0.082,-5.4297 -0.078,-3.4297 -0.508,-3.7813 -3.789,-4.1016 z M 245.898,9.17969 v 1.71871 c 3.122,0.3907 3.711,0.7422 3.793,4.1016 v 16.9102 c -0.082,6.6406 -0.082,6.8398 -3.793,7.3515 v 1.7188 h 13.204 v -1.7188 c -3.711,-0.3515 -3.711,-0.5117 -3.711,-7.3515 V 19.1016 c 0,-1.1328 0,-4.6914 0.121,-5.6211 0.226,-1.961 1.129,-2.3907 3.59,-2.5821 V 9.17969 Z m 140.082,0 v 1.71871 c 3.079,0.3907 3.75,0.7422 3.75,4.1016 v 16.9102 c 0,6.6406 0,6.8398 -3.75,7.3515 v 1.7188 h 13.2 v -1.7188 c -3.75,-0.3515 -3.75,-0.5117 -3.75,-7.3515 V 19.1016 c 0,-1.1328 0.039,-4.6914 0.121,-5.6211 0.23,-1.961 1.129,-2.3907 3.629,-2.5821 V 9.17969 Z m -178.789,0 v 1.71871 c 2.61,0.1211 3.59,0.1914 3.938,1.9922 0.473,2.1094 0.59,20.9805 0.633,24.2578 -1.762,1.6407 -2.461,1.9102 -4.571,2.1133 v 1.7188 h 9.528 c 2.66,-3.7891 3.242,-4.6524 7.929,-10.4688 L 233.52,19.5313 V 33.75 c -0.04,5.0781 -0.161,5.3086 -5.239,5.5117 v 1.7188 h 12.539 v -1.7188 c -3.48,-0.0429 -3.789,-0.7812 -3.832,-5.9414 L 236.559,8.75 h -1.911 l -2.808,3.5898 c -1.449,1.8008 -2.891,3.6016 -4.34,5.3594 l -12.578,15.5 V 16.7188 c 0,-5.1172 0.387,-5.3086 5.238,-5.7774 V 9.17969 Z m 152.5,9.92191 1.637,0.1601 c 1.762,-5.1601 4.652,-7.9726 9.453,-7.9726 3.36,0 6.328,1.4414 6.328,4.8398 0,3.6406 -3.437,5.043 -5,5.7109 -1.25,0.461 -2.578,0.8907 -3.871,1.3985 -2.617,0.9414 -7.5,2.9726 -7.5,9.1406 0,5.9414 4.692,9.2617 10.121,9.2617 2.11,0 4.571,-0.3906 7.301,-2.1523 l 1.961,1.4101 1.008,-9.4492 -1.559,-0.3203 c -0.59,2.0703 -0.98,3.0117 -2.23,4.7305 -1.52,1.9492 -3.668,2.8906 -6.211,2.8906 -3.359,0 -5.348,-1.6406 -5.348,-4.1406 0,-3.7891 3.75,-5.0781 7.309,-6.25 1.789,-0.5899 3.281,-1.0899 4.57,-1.8399 2.539,-1.4804 4.61,-4.289 4.61,-8.0781 0,-5.5117 -4.54,-10.04296 -11.219,-10.04296 -4.332,0 -6.992,1.72266 -8.242,2.49996 l -2.649,1.9102 z m 52.258,-9.92191 v 1.37111 c 2.93,0.0703 3.75,1.0898 3.75,3.6289 v 23.4414 h -3.937 c -3.602,0 -5.981,0.1094 -6.25,-5.5508 h -1.684 l 0.274,8.9102 h 28.867 l 0.269,-8.9102 h -1.679 c -0.27,5.6602 -2.649,5.5508 -6.25,5.5508 h -3.938 V 14.1797 c 0,-2.5391 0.82,-3.5899 3.707,-3.6289 V 9.17969 Z M 182.852,40.9805 v -1.7188 c -4.223,-0.2812 -4.223,-0.4336 -4.301,-7.2304 v -7.461 c 0,-3.8711 0.121,-7.1914 2.148,-10.1601 1.641,-2.3789 4.379,-2.6485 5.781,-2.6485 4.571,0 7.071,2.3399 8.168,6.0899 0.903,2.9687 0.942,8.5586 0.942,12.2265 0,1.1719 0,4.961 -0.039,5.9727 -0.199,2.9297 -1.68,2.9687 -4.531,3.25 v 1.7187 h 12.101 v -1.7187 c -2.961,0.039 -3.59,-0.6719 -3.781,-3.832 -0.039,-0.7383 -0.391,-9.5704 -0.43,-10.9375 -0.121,-2.4219 -0.238,-4.8008 -0.789,-7.1094 C 195.98,8.87109 187.66,8.44141 185.43,8.44141 c -1.758,0 -5.391,0.26953 -8.36,2.25779 -4.691,3.1719 -4.73,7.9727 -4.73,13.0899 v 7.1914 c -0.07,3.4297 -0.07,5 -0.149,5.7812 -0.281,1.9883 -1.25,2.3789 -3.64,2.5 v 1.7188 z m 112.738,0 v -1.7188 c -3.09,-0.4336 -3.481,-1.2929 -6.102,-7.6211 L 279.801,8.55078 h -1.711 l -8.68,23.43752 c -2.18,6.0625 -2.422,6.8008 -5.621,7.2734 v 1.7188 h 15.082 v -1.7188 c -2.582,-0.082 -4.223,-0.1601 -4.223,-1.9922 0,-0.9414 0.192,-1.6797 1.051,-4.3789 l 5.551,-16.1289 6.48,16.7188 c 0.43,1.1289 0.942,2.539 0.942,3.3593 0,2.3008 -2.223,2.379 -4.223,2.4219 v 1.7188 z M 446.289,9.17969 v 1.71871 c 2.5,0.2735 3.441,0.3516 4.063,0.9805 0.738,0.6992 0.738,1.5195 0.777,5 v 5.582 l -8.43,13.1289 c -2.308,3.4297 -2.347,3.5118 -5.398,3.6719 v 1.7578 h 16.527 v -1.7578 c -3.316,-0.082 -4.808,-0.1601 -4.808,-1.6836 0,-0.8984 0.589,-1.8789 1.41,-3.1992 l 4.84,-7.9687 4.5,7.9296 c 0.781,1.5586 1.281,2.5 1.281,3.2383 0,1.5235 -1.321,1.5625 -3.551,1.7227 v 1.75 h 12.422 v -1.75 c -3.203,-0.1211 -4.141,-1.0625 -7.774,-7 l -4.957,-8.2813 v -6.6406 c 0,-5.7773 0.039,-6.207 4.758,-6.4805 V 9.17969 Z m -123.48,0 c 0,2.30081 0.39,6.08981 0.671,8.24221 h -1.531 c -1.09,-5.7031 -4.25,-5.4336 -8.859,-5.4336 -4.262,0 -5.078,1.1719 -5.078,3.2422 v 8.8711 h 3.398 c 3.899,0 5.039,-0.3125 5.039,-3.8711 h 1.52 v 10.4687 h -1.52 c -0.32,-2.8086 -0.898,-3.75 -5,-3.75 h -3.437 v 11.211 h 3.898 c 5.391,0 7.352,-0.4297 8.051,-4.7188 h 1.449 l -0.199,7.5391 H 298.59 v -1.7188 c 2.269,-0.2422 3.289,-0.3515 3.601,-1.8398 0.231,-0.9727 0.231,-4.4922 0.231,-5.7422 v -11.168 c 0,-0.8633 0,-4.6914 -0.082,-5.4726 -0.07,-3.4375 -0.461,-3.7891 -3.789,-4.0977 V 9.17969 Z M 743.91,23.0117 v -1.7226 c -2.89,-0.1602 -2.89,-0.9805 -3.012,-7.0274 v -2.3828 c -2.418,-1.5273 -5.976,-3.71874 -12.226,-3.71874 -10.942,0 -16.133,8.28904 -16.133,16.60934 0,10.1914 6.871,16.8321 15.512,16.8321 5.429,0 8.551,-2.0703 11.129,-3.6328 l 1.64,1.871 0.27,-9.9179 -1.289,-0.2305 c -0.66,1.8672 -1.641,4.0586 -4.02,6.4805 -1.051,1.0195 -3.082,2.3476 -6.293,2.3476 -5.539,0 -10.148,-4.6914 -10.148,-13.8281 0,-7.3125 3.59,-13.6016 9.762,-13.6016 3.558,0 5.347,2.5 5.546,2.6993 0.551,0.8203 0.704,1.6015 0.622,2.9726 -0.11,4.0586 -0.661,4.1797 -4.18,4.5274 v 1.7226 z M 337.578,26.25 c 0.863,-0.1992 2.07,-0.3086 2.973,-0.3086 3.629,-0.043 6.359,2.8086 6.48,5.3477 0.199,3.6718 -1.64,6.8711 -7.5,6.8711 -0.82,0 -1.332,-0.0391 -1.953,-0.1485 z m 0,-6.9492 c 0.043,-7.3125 0.043,-8.2813 3.871,-8.3594 V 9.17969 H 328.16 v 1.76171 c 3.442,0.2695 3.789,0.8203 3.828,4.2578 0.043,1.2813 0.043,2.7696 0.043,4.0625 v 11.5196 c 0,3.8281 -0.043,5.1601 -0.152,6.207 -0.238,1.7617 -1.098,2.0703 -3.719,2.2734 v 1.7188 l 14.418,-0.0391 c 7.852,0 10.313,-3.7109 10.313,-8.1719 0,-3.039 -1.871,-7.0312 -6.25,-8.3906 l 5.629,-9.7695 c 2.031,-3.75 3.121,-4.6094 5.699,-4.96096 V 8.55078 c -0.699,-0.03125 -1.367,-0.07031 -2.11,-0.07031 -5.98,0 -8.437,2.07033 -10.98,7.41793 l -1.758,3.711 c -1.871,4.0195 -2.5,3.832 -5.5,3.832 v -4.1406 z" /><path
         id="path16"
         style="fill:#ffcb05;fill-opacity:1;fill-rule:nonzero;stroke:none"
         d="M 491.762,308.238 404.41,427.621 v -86.84 h 34.731 V 255 H 278.48 v 85.781 h 32.61 V 474.262 H 278.48 V 560 H 404.691 L 491.762,439.77 578.828,560 H 704.961 V 474.262 H 672.379 V 340.781 h 32.582 V 255 H 544.34 v 85.781 h 34.719 v 86.84 z" /><path
         id="path18"
         style="fill:#ffffff;fill-opacity:1;fill-rule:nonzero;stroke:none"
         d="m 99.4102,150.66 v 47.192 L 87.4609,150.66 H 75.2695 L 63.9102,197.852 V 150.66 H 51.8008 v 61.18 h 20.2305 l 9.6484,-41.61 10.2695,41.61 h 19.9298 v -61.18 z" /><path
         id="path20"
         style="fill:#ffffff;fill-opacity:1;fill-rule:nonzero;stroke:none"
         d="m 122.621,150.672 h 12.8086 V 211.84 H 122.621 Z" /><path
         id="path22"
         style="fill:#ffffff;fill-opacity:1;fill-rule:nonzero;stroke:none"
         d="m 185,169.449 c 0,-12.969 -6.328,-19.488 -19.059,-19.488 -4.921,0 -8.711,0.82 -11.453,2.461 -2.687,1.637 -4.758,3.906 -6.168,6.797 -1.41,2.89 -2.23,6.211 -2.461,10 -0.238,3.793 -0.39,7.769 -0.429,11.953 0,4.297 0.16,8.359 0.429,12.187 0.27,3.871 1.09,7.231 2.461,10.082 1.371,2.887 3.442,5.149 6.25,6.789 2.852,1.649 6.84,2.5 11.95,2.54 11.878,0 17.82,-6.051 17.82,-18.122 v -2.109 h -12.539 v 1.332 c 0,6.399 -2.031,9.57 -6.102,9.57 -1.828,0 -3.199,-0.55 -4.179,-1.679 -0.93,-1.141 -1.68,-2.703 -2.18,-4.731 -0.512,-2.031 -0.82,-4.492 -0.942,-7.301 -0.117,-2.82 -0.16,-5.98 -0.16,-9.5 0,-3.039 0.043,-5.851 0.16,-8.39 0.122,-2.539 0.391,-4.77 0.864,-6.68 0.429,-1.922 1.207,-3.359 2.258,-4.34 1.101,-0.941 2.5,-1.48 4.261,-1.601 1.559,0 2.77,0.39 3.629,1.172 0.86,0.82 1.488,1.839 1.961,3.05 0.469,1.25 0.738,2.579 0.859,3.981 0.11,1.449 0.149,2.699 0.149,3.828 H 185 Z" /><path
         id="path24"
         style="fill:#ffffff;fill-opacity:1;fill-rule:nonzero;stroke:none"
         d="m 221.09,150.66 v 26.961 H 206.602 V 150.66 H 193.75 v 61.18 h 12.852 v -24.219 h 14.488 v 24.219 h 12.89 v -61.18 z" /><path
         id="path26"
         style="fill:#ffffff;fill-opacity:1;fill-rule:nonzero;stroke:none"
         d="m 245.078,150.672 h 12.8125 V 211.84 H 245.078 Z" /><path
         id="path28"
         style="fill:#ffffff;fill-opacity:1;fill-rule:nonzero;stroke:none"
         d="m 304.77,151.25 c -2.149,-0.391 -4.34,-0.699 -6.61,-0.941 -2.262,-0.231 -4.488,-0.348 -6.711,-0.43 -2.039,0 -4.109,0.16 -6.179,0.43 -2.11,0.281 -4.098,0.82 -6.008,1.601 -1.922,0.82 -3.641,1.84 -5.082,3.168 -1.481,1.293 -2.66,3.043 -3.559,5.231 -0.461,1.25 -0.851,2.543 -1.211,3.91 -0.351,1.371 -0.582,2.89 -0.738,4.57 -0.192,1.723 -0.313,3.633 -0.434,5.781 -0.117,2.149 -0.187,4.649 -0.187,7.539 0,4.063 0.187,7.969 0.5,11.68 0.359,3.75 1.25,7.07 2.738,10 1.441,2.93 3.633,5.27 6.52,6.949 2.89,1.684 6.839,2.582 11.882,2.621 6.329,0 11.168,-1.558 14.571,-4.73 3.398,-3.16 5.117,-7.688 5.148,-13.551 v -1.637 h -12.691 v 2.969 c 0,2.461 -0.699,4.371 -2.028,5.781 -1.371,1.399 -3.132,2.11 -5.281,2.11 -1.949,0 -3.512,-0.551 -4.64,-1.602 -1.141,-1.097 -2,-2.539 -2.54,-4.418 -0.589,-1.871 -0.902,-4.062 -1.019,-6.601 -0.121,-2.539 -0.191,-5.309 -0.191,-8.321 v -2.621 c 0,-3.277 0.07,-6.25 0.191,-8.898 0.117,-2.66 0.43,-4.93 1.019,-6.879 0.54,-1.91 1.481,-3.359 2.77,-4.371 1.328,-1.02 3.051,-1.57 5.27,-1.641 2.269,0 4.421,0.43 6.531,1.211 v 13.469 h -7.031 v 9.492 h 19.64 v -31.012 z" /><path
         id="path30"
         style="fill:#ffffff;fill-opacity:1;fill-rule:nonzero;stroke:none"
         d="m 352.73,150.66 -3.39,13.559 h -17.461 l -3.481,-13.559 h -12.617 l 16.949,61.18 h 16.879 l 16.602,-61.18 z m -12.378,49.418 -6.012,-26.637 h 12.379 z" /><path
         id="path32"
         style="fill:#ffffff;fill-opacity:1;fill-rule:nonzero;stroke:none"
         d="m 401.051,150.66 -16.789,44.731 V 150.66 h -11.883 v 61.18 h 17.23 l 16.332,-42.391 v 42.391 h 11.868 v -61.18 z" /><path
         id="path34"
         style="fill:#ffffff;fill-opacity:1;fill-rule:nonzero;stroke:none"
         d="m 447.578,150.66 v 61.18 h 33.363 v -9.418 H 460.352 V 187.34 h 18.988 v -9.41 h -18.988 v -17.7 h 21.289 v -9.57 z" /><path
         id="path36"
         style="fill:#ffffff;fill-opacity:1;fill-rule:nonzero;stroke:none"
         d="m 518.75,150.66 -16.762,44.731 V 150.66 h -11.867 v 61.18 h 17.18 l 16.371,-42.391 v 42.391 h 11.879 v -61.18 z" /><path
         id="path38"
         style="fill:#ffffff;fill-opacity:1;fill-rule:nonzero;stroke:none"
         d="m 582.578,151.25 c -2.148,-0.391 -4.379,-0.699 -6.598,-0.941 -2.269,-0.231 -4.5,-0.348 -6.718,-0.43 -2.032,0 -4.102,0.16 -6.172,0.43 -2.11,0.281 -4.11,0.82 -6.02,1.601 -1.91,0.82 -3.629,1.84 -5.082,3.168 -1.476,1.293 -2.648,3.043 -3.59,5.231 -0.429,1.25 -0.82,2.543 -1.168,3.91 -0.351,1.371 -0.589,2.89 -0.75,4.57 -0.191,1.723 -0.308,3.633 -0.429,5.781 -0.11,2.149 -0.192,4.649 -0.192,7.539 0,4.063 0.192,7.969 0.512,11.68 0.348,3.75 1.25,7.07 2.731,10 1.449,2.93 3.628,5.27 6.519,6.949 2.899,1.684 6.84,2.582 11.879,2.621 6.328,0 11.172,-1.558 14.57,-4.73 3.399,-3.16 5.121,-7.688 5.16,-13.551 v -1.637 h -12.699 v 2.969 c 0,2.461 -0.703,4.371 -2.031,5.781 -1.371,1.399 -3.121,2.11 -5.27,2.11 -1.96,0 -3.519,-0.551 -4.652,-1.602 -1.129,-1.097 -1.988,-2.539 -2.539,-4.418 -0.59,-1.871 -0.898,-4.062 -1.019,-6.601 -0.11,-2.539 -0.192,-5.309 -0.192,-8.321 v -2.621 c 0,-3.277 0.082,-6.25 0.192,-8.898 0.121,-2.66 0.429,-4.93 1.019,-6.879 0.551,-1.91 1.481,-3.359 2.77,-4.371 1.332,-1.02 3.05,-1.57 5.281,-1.641 2.262,0 4.41,0.43 6.519,1.211 v 13.469 h -7.031 v 9.492 h 19.652 v -31.012 z" /><path
         id="path40"
         style="fill:#ffffff;fill-opacity:1;fill-rule:nonzero;stroke:none"
         d="m 598.238,150.672 h 12.8125 V 211.84 H 598.238 Z" /><path
         id="path42"
         style="fill:#ffffff;fill-opacity:1;fill-rule:nonzero;stroke:none"
         d="m 650.621,150.66 -16.793,44.731 V 150.66 h -11.84 v 61.18 h 17.192 l 16.371,-42.391 v 42.391 h 11.871 v -61.18 z" /><path
         id="path44"
         style="fill:#ffffff;fill-opacity:1;fill-rule:nonzero;stroke:none"
         d="m 678.32,150.66 v 61.18 h 33.399 v -9.418 h -20.59 V 187.34 h 18.992 v -9.41 h -18.992 v -17.7 h 21.293 v -9.57 z" /><path
         id="path46"
         style="fill:#ffffff;fill-opacity:1;fill-rule:nonzero;stroke:none"
         d="m 720.699,150.66 v 61.18 h 33.403 v -9.418 H 733.52 V 187.34 h 18.98 v -9.41 h -18.98 v -17.7 h 21.25 v -9.57 z" /><path
         id="path48"
         style="fill:#ffffff;fill-opacity:1;fill-rule:nonzero;stroke:none"
         d="m 789.449,150.66 c -0.738,1.531 -1.129,2.82 -1.211,3.91 -0.039,1.051 -0.078,2.27 -0.148,3.629 v 8.051 c 0,1.871 -0.16,3.441 -0.43,4.648 -0.281,1.25 -0.781,2.223 -1.531,2.973 -0.738,0.738 -1.75,1.289 -3.039,1.641 -1.289,0.308 -2.969,0.508 -5,0.508 h -2.391 v -25.36 h -12.847 v 61.18 h 21.097 c 2.422,0 4.641,-0.238 6.672,-0.75 2.039,-0.5 3.789,-1.399 5.277,-2.649 1.442,-1.211 2.622,-2.89 3.481,-5 0.82,-2.07 1.242,-4.691 1.242,-7.781 0,-4.41 -0.891,-7.808 -2.691,-10.269 -1.84,-2.422 -4.649,-3.981 -8.481,-4.653 2.891,-0.347 5.039,-0.968 6.531,-1.949 1.442,-0.937 2.54,-2.187 3.2,-3.711 0.699,-1.527 1.09,-3.359 1.211,-5.43 0.121,-2.109 0.23,-4.449 0.429,-7.027 l 0.231,-4.34 c 0.121,-1.25 0.199,-2.5 0.277,-3.832 0.043,-1.289 0.274,-2.539 0.66,-3.789 z m -1.597,43.481 c 0,1.91 -0.192,3.437 -0.622,4.57 -0.39,1.129 -1.019,1.949 -1.921,2.461 -0.93,0.508 -2.028,0.859 -3.321,1.019 -1.289,0.149 -2.808,0.231 -4.488,0.231 h -1.801 v -17.031 h 3.172 c 1.52,0 2.848,0.121 3.981,0.347 1.128,0.242 2.027,0.672 2.769,1.371 0.75,0.661 1.289,1.563 1.609,2.692 0.348,1.14 0.54,2.578 0.622,4.34 z" /><path
         id="path50"
         style="fill:#ffffff;fill-opacity:1;fill-rule:nonzero;stroke:none"
         d="m 810.199,150.672 h 12.8125 V 211.84 H 810.199 Z" /><path
         id="path52"
         style="fill:#ffffff;fill-opacity:1;fill-rule:nonzero;stroke:none"
         d="M 862.578,150.66 845.82,195.391 V 150.66 h -11.871 v 61.18 h 17.18 L 867.5,169.449 v 42.391 h 11.879 v -61.18 z" /><path
         id="path54"
         style="fill:#ffffff;fill-opacity:1;fill-rule:nonzero;stroke:none"
         d="m 926.41,151.25 c -2.148,-0.391 -4.34,-0.699 -6.609,-0.941 -2.262,-0.231 -4.492,-0.348 -6.711,-0.43 -2.039,0 -4.11,0.16 -6.18,0.43 -2.109,0.281 -4.101,0.82 -6.012,1.601 -1.918,0.82 -3.628,1.84 -5.078,3.168 -1.48,1.293 -2.66,3.043 -3.55,5.231 -0.469,1.25 -0.86,2.543 -1.219,3.91 -0.352,1.371 -0.582,2.89 -0.742,4.57 -0.188,1.723 -0.309,3.633 -0.43,5.781 -0.109,2.149 -0.188,4.649 -0.188,7.539 0,4.063 0.188,7.969 0.508,11.68 0.352,3.75 1.25,7.07 2.731,10 1.48,2.93 3.629,5.27 6.519,6.949 2.891,1.684 6.84,2.582 11.879,2.621 6.332,0 11.172,-1.558 14.57,-4.73 3.403,-3.16 5.122,-7.688 5.153,-13.551 v -1.637 h -12.692 v 2.969 c 0,2.461 -0.699,4.371 -2.031,5.781 -1.367,1.399 -3.129,2.11 -5.277,2.11 -1.949,0 -3.512,-0.551 -4.641,-1.602 -1.14,-1.097 -2,-2.539 -2.539,-4.418 -0.59,-1.871 -0.902,-4.062 -1.019,-6.601 -0.122,-2.539 -0.192,-5.309 -0.192,-8.321 v -2.621 c 0,-3.277 0.07,-6.25 0.192,-8.898 0.117,-2.66 0.429,-4.93 1.019,-6.879 0.539,-1.91 1.481,-3.359 2.77,-4.371 1.328,-1.02 3.05,-1.57 5.269,-1.641 2.27,0 4.418,0.43 6.531,1.211 v 13.469 h -7.031 v 9.492 h 19.641 v -31.012 z" /><path
         id="path56"
         style="fill:#ffffff;fill-opacity:1;fill-rule:nonzero;stroke:none"
         d="M 47.6211,75.0781 V 122.301 L 35.6602,75.0781 H 23.4805 L 12.1094,122.301 V 75.0781 H 0 V 136.289 H 20.2695 L 29.9219,94.6914 40.1602,136.289 H 60.0781 V 75.0781 Z" /><path
         id="path58"
         style="fill:#ffffff;fill-opacity:1;fill-rule:nonzero;stroke:none"
         d="m 70.8594,75.0781 v 61.2109 h 33.4026 v -9.41 H 83.6289 v -15.078 h 18.9921 v -9.422 H 83.6289 V 84.6914 h 21.2931 v -9.6133 z" /><path
         id="path60"
         style="fill:#ffffff;fill-opacity:1;fill-rule:nonzero;stroke:none"
         d="m 152.031,93.9102 c 0,-13.0118 -6.332,-19.5 -19.062,-19.5 -4.918,0 -8.707,0.8203 -11.449,2.4687 -2.692,1.6406 -4.758,3.9024 -6.168,6.793 -1.403,2.8476 -2.231,6.207 -2.461,10 -0.231,3.75 -0.352,7.7381 -0.43,11.9181 0,4.289 0.16,8.39 0.43,12.219 0.269,3.832 1.089,7.191 2.461,10.082 1.367,2.89 3.437,5.16 6.25,6.8 2.847,1.637 6.839,2.457 11.949,2.539 11.879,0 17.82,-6.058 17.82,-18.171 v -2.11 h -12.543 v 1.371 c 0,6.371 -2.027,9.571 -6.098,9.571 -1.832,0 -3.199,-0.551 -4.179,-1.68 -0.93,-1.133 -1.672,-2.731 -2.18,-4.762 -0.512,-2.039 -0.82,-4.461 -0.941,-7.269 -0.121,-2.852 -0.16,-6.02 -0.16,-9.489 0,-3.05 0.039,-5.8629 0.16,-8.4019 0.121,-2.5391 0.39,-4.7696 0.859,-6.7188 0.43,-1.9101 1.211,-3.3594 2.262,-4.3008 1.097,-0.9687 2.5,-1.5195 4.258,-1.5976 1.57,0 2.781,0.3867 3.64,1.1679 0.852,0.7813 1.481,1.8008 1.949,3.0508 0.473,1.25 0.743,2.5782 0.864,3.9883 0.117,1.4024 0.148,2.6914 0.148,3.8203 h 12.621 z" /><path
         id="path62"
         style="fill:#ffffff;fill-opacity:1;fill-rule:nonzero;stroke:none"
         d="M 188.16,75.0781 V 102.031 H 173.672 V 75.0781 h -12.891 v 61.2109 h 12.891 v -24.258 h 14.488 v 24.258 h 12.86 V 75.0781 Z" /><path
         id="path64"
         style="fill:#ffffff;fill-opacity:1;fill-rule:nonzero;stroke:none"
         d="m 244.41,75.0781 -3.39,13.5938 h -17.469 l -3.473,-13.5938 h -12.617 l 16.949,61.2109 h 16.879 L 257.891,75.0781 Z M 232.031,124.488 226.02,97.8906 h 12.378 z" /><path
         id="path66"
         style="fill:#ffffff;fill-opacity:1;fill-rule:nonzero;stroke:none"
         d="M 292.73,75.0781 275.941,119.84 V 75.0781 h -11.882 v 61.2109 h 17.23 L 297.66,93.9102 v 42.3788 h 11.828 V 75.0781 Z" /><path
         id="path68"
         style="fill:#ffffff;fill-opacity:1;fill-rule:nonzero;stroke:none"
         d="m 320.43,75.0781 h 12.8086 V 136.289 H 320.43 Z" /><path
         id="path70"
         style="fill:#ffffff;fill-opacity:1;fill-rule:nonzero;stroke:none"
         d="m 382.809,93.9102 c 0,-13.0118 -6.36,-19.5 -19.059,-19.5 -4.922,0 -8.75,0.8203 -11.449,2.4687 -2.692,1.6406 -4.762,3.9024 -6.172,6.793 -1.438,2.8476 -2.219,6.207 -2.457,10 -0.231,3.75 -0.391,7.7381 -0.434,11.9181 0,4.289 0.121,8.39 0.434,12.219 0.277,3.832 1.098,7.191 2.457,10.082 1.332,2.89 3.441,5.16 6.25,6.8 2.851,1.637 6.801,2.457 11.961,2.539 11.871,0 17.808,-6.058 17.808,-18.171 v -2.11 h -12.539 v 1.371 c 0,6.371 -2.031,9.571 -6.129,9.571 -1.8,0 -3.171,-0.551 -4.14,-1.68 -0.942,-1.133 -1.68,-2.731 -2.192,-4.762 -0.507,-2.039 -0.82,-4.461 -0.937,-7.269 -0.121,-2.852 -0.191,-6.02 -0.191,-9.489 0,-3.05 0.07,-5.8629 0.191,-8.4019 0.117,-2.5391 0.391,-4.7696 0.859,-6.7188 0.43,-1.9101 1.211,-3.3594 2.27,-4.3008 1.09,-0.9687 2.5,-1.5195 4.25,-1.5976 1.57,0 2.781,0.3867 3.64,1.1679 0.86,0.7813 1.481,1.8008 1.95,3.0508 0.429,1.25 0.742,2.5782 0.82,3.9883 0.121,1.4024 0.199,2.6914 0.199,3.8203 h 12.61 z" /><path
         id="path72"
         style="fill:#ffffff;fill-opacity:1;fill-rule:nonzero;stroke:none"
         d="m 423.398,75.0781 -3.359,13.5938 h -17.461 l -3.476,-13.5938 h -12.653 l 16.949,61.2109 h 16.872 l 16.609,-61.2109 z m -12.347,49.4099 -6.012,-26.5974 h 12.34 z" /><path
         id="path74"
         style="fill:#ffffff;fill-opacity:1;fill-rule:nonzero;stroke:none"
         d="m 442.891,75.0781 v 61.2109 h 12.968 V 85.2695 H 474.84 V 75.0781 Z" /><path
         id="path76"
         style="fill:#ffffff;fill-opacity:1;fill-rule:nonzero;stroke:none"
         d="m 499.34,75.0781 v 61.2109 h 33.39 v -9.41 h -20.582 v -15.078 h 18.981 v -9.422 H 512.148 V 84.6914 h 21.25 v -9.6133 z" /><path
         id="path78"
         style="fill:#ffffff;fill-opacity:1;fill-rule:nonzero;stroke:none"
         d="M 570.551,75.0781 553.75,119.84 V 75.0781 h -11.871 v 61.2109 h 17.223 l 16.367,-42.3788 v 42.3788 h 11.832 V 75.0781 Z" /><path
         id="path80"
         style="fill:#ffffff;fill-opacity:1;fill-rule:nonzero;stroke:none"
         d="M 634.34,75.6992 C 632.191,75.2695 630,75 627.73,74.7695 c -2.261,-0.2382 -4.492,-0.3906 -6.679,-0.4297 -2.031,0 -4.102,0.1485 -6.211,0.4297 -2.07,0.2696 -4.059,0.8203 -6.012,1.6016 -1.918,0.7773 -3.598,1.8281 -5.078,3.1172 -1.449,1.332 -2.66,3.0508 -3.551,5.2812 -0.429,1.25 -0.859,2.5313 -1.179,3.9024 -0.348,1.3281 -0.579,2.8476 -0.782,4.5664 -0.148,1.6836 -0.308,3.6015 -0.429,5.7422 -0.11,2.1485 -0.149,4.6915 -0.149,7.5395 0,4.07 0.149,7.968 0.5,11.718 0.36,3.711 1.25,7.071 2.699,10 1.481,2.934 3.672,5.242 6.563,6.961 2.848,1.68 6.84,2.531 11.84,2.61 6.328,0 11.207,-1.598 14.566,-4.758 3.402,-3.172 5.121,-7.66 5.192,-13.563 v -1.597 h -12.731 v 2.968 c 0,2.422 -0.668,4.34 -2.027,5.782 -1.332,1.41 -3.09,2.109 -5.242,2.109 -1.989,0 -3.551,-0.551 -4.68,-1.602 -1.102,-1.097 -1.961,-2.578 -2.539,-4.418 -0.551,-1.871 -0.903,-4.058 -1.02,-6.601 -0.121,-2.578 -0.16,-5.309 -0.16,-8.32 v -2.61 c 0,-3.289 0.039,-6.2498 0.16,-8.9099 0.117,-2.6602 0.469,-4.961 1.02,-6.8789 0.578,-1.9102 1.519,-3.3907 2.808,-4.4102 1.289,-1.0195 3.051,-1.5586 5.231,-1.6016 2.269,0 4.461,0.3907 6.57,1.1719 v 13.4805 h -7.07 v 9.4882 h 19.68 V 76.5195 Z" /><path
         id="path82"
         style="fill:#ffffff;fill-opacity:1;fill-rule:nonzero;stroke:none"
         d="m 650.039,75.0781 h 12.7695 V 136.289 H 650.039 Z" /><path
         id="path84"
         style="fill:#ffffff;fill-opacity:1;fill-rule:nonzero;stroke:none"
         d="M 702.422,75.0781 685.621,119.84 V 75.0781 H 673.75 v 61.2109 h 17.23 L 707.301,93.9102 V 136.289 H 719.18 V 75.0781 Z" /><path
         id="path86"
         style="fill:#ffffff;fill-opacity:1;fill-rule:nonzero;stroke:none"
         d="m 730.121,75.0781 v 61.2109 h 33.399 v -9.41 h -20.59 v -15.078 h 18.98 v -9.422 H 742.93 V 84.6914 h 21.25 v -9.6133 z" /><path
         id="path88"
         style="fill:#ffffff;fill-opacity:1;fill-rule:nonzero;stroke:none"
         d="m 772.5,75.0781 v 61.2109 h 33.398 v -9.41 h -20.589 v -15.078 h 18.992 v -9.422 H 785.309 V 84.6914 h 21.25 v -9.6133 z" /><path
         id="path90"
         style="fill:#ffffff;fill-opacity:1;fill-rule:nonzero;stroke:none"
         d="m 841.211,75.0781 c -0.699,1.5235 -1.09,2.8516 -1.172,3.9024 -0.039,1.0976 -0.117,2.3086 -0.16,3.6797 v 8.039 c 0,1.8399 -0.149,3.4024 -0.43,4.6524 -0.269,1.25 -0.777,2.2265 -1.519,2.9687 -0.739,0.7383 -1.758,1.25 -3.051,1.6016 -1.328,0.3481 -2.969,0.5081 -5,0.5081 H 827.5 V 75.0781 h -12.891 v 61.2109 h 21.09 c 2.461,0 4.692,-0.269 6.723,-0.777 2.027,-0.512 3.789,-1.371 5.238,-2.621 1.481,-1.25 2.649,-2.891 3.469,-5 0.859,-2.071 1.293,-4.692 1.293,-7.813 0,-4.379 -0.902,-7.808 -2.731,-10.238 -1.8,-2.418 -4.613,-3.981 -8.48,-4.641 2.891,-0.359 5.078,-1.019 6.559,-1.961 1.449,-0.968 2.539,-2.218 3.21,-3.7497 0.661,-1.5195 1.051,-3.3164 1.168,-5.4297 0.122,-2.0703 0.274,-4.4102 0.43,-7.0273 l 0.274,-4.3008 c 0.117,-1.25 0.199,-2.5313 0.238,-3.8203 0.07,-1.2891 0.269,-2.5821 0.699,-3.8321 z m -1.602,43.4729 c 0,1.961 -0.199,3.48 -0.589,4.609 -0.391,1.141 -1.051,1.918 -1.95,2.43 -0.898,0.539 -1.992,0.859 -3.281,1.051 -1.328,0.16 -2.809,0.238 -4.488,0.238 H 827.5 V 109.84 h 3.121 c 1.527,0 2.859,0.121 3.988,0.359 1.129,0.192 2.071,0.66 2.813,1.321 0.738,0.71 1.25,1.601 1.598,2.742 0.359,1.129 0.55,2.578 0.589,4.289 z" /><path
         id="path92"
         style="fill:#ffffff;fill-opacity:1;fill-rule:nonzero;stroke:none"
         d="m 861.988,75.0781 h 12.8125 V 136.289 H 861.988 Z" /><path
         id="path94"
         style="fill:#ffffff;fill-opacity:1;fill-rule:nonzero;stroke:none"
         d="M 914.379,75.0781 897.578,119.84 V 75.0781 h -11.879 v 61.2109 h 17.231 l 16.371,-42.3788 v 42.3788 h 11.828 V 75.0781 Z" /><path
         id="path96"
         style="fill:#ffffff;fill-opacity:1;fill-rule:nonzero;stroke:none"
         d="m 978.199,75.6992 c -2.148,-0.4297 -4.371,-0.6992 -6.64,-0.9297 -2.258,-0.2382 -4.489,-0.3906 -6.68,-0.4297 -2.027,0 -4.098,0.1485 -6.168,0.4297 -2.109,0.2696 -4.102,0.8203 -6.051,1.6016 -1.922,0.7773 -3.601,1.8281 -5.082,3.1172 -1.449,1.332 -2.656,3.0508 -3.558,5.2812 -0.43,1.25 -0.86,2.5313 -1.168,3.9024 -0.352,1.3281 -0.582,2.8476 -0.782,4.5664 -0.16,1.6836 -0.308,3.6015 -0.429,5.7422 -0.082,2.1485 -0.161,4.6915 -0.161,7.5395 0,4.07 0.161,7.968 0.508,11.718 0.352,3.711 1.25,7.071 2.742,10 1.442,2.934 3.629,5.242 6.52,6.961 2.852,1.68 6.84,2.531 11.84,2.61 6.32,0 11.211,-1.598 14.609,-4.758 3.352,-3.172 5.071,-7.66 5.153,-13.563 v -1.597 h -12.731 v 2.968 c 0,2.422 -0.672,4.34 -2.031,5.782 -1.328,1.41 -3.09,2.109 -5.238,2.109 -1.993,0 -3.551,-0.551 -4.692,-1.602 -1.09,-1.097 -1.949,-2.578 -2.539,-4.418 -0.543,-1.871 -0.891,-4.058 -1.012,-6.601 -0.121,-2.578 -0.16,-5.309 -0.16,-8.32 v -2.61 c 0,-3.289 0.039,-6.2498 0.16,-8.9099 0.121,-2.6602 0.469,-4.961 1.012,-6.8789 0.59,-1.9102 1.527,-3.3907 2.82,-4.4102 1.289,-1.0195 3.039,-1.5586 5.27,-1.6016 2.23,0 4.41,0.3907 6.519,1.1719 v 13.4805 h -7.031 v 9.4882 h 19.653 V 76.5195 Z" /></g></g></svg>