<?xml version="1.0" encoding="UTF-8" standalone="no"?>
<svg
   xmlns:dc="http://purl.org/dc/elements/1.1/"
   xmlns:cc="http://creativecommons.org/ns#"
   xmlns:rdf="http://www.w3.org/1999/02/22-rdf-syntax-ns#"
   xmlns:svg="http://www.w3.org/2000/svg"
   xmlns="http://www.w3.org/2000/svg"
   viewBox="0 0 117.33333 74.666664"
   height="74.666664"
   width="117.33333"
   xml:space="preserve"
   id="svg2"
   version="1.1"><metadata
     id="metadata8"><rdf:RDF><cc:Work
         rdf:about=""><dc:format>image/svg+xml</dc:format><dc:type
           rdf:resource="http://purl.org/dc/dcmitype/StillImage" /></cc:Work></rdf:RDF></metadata><defs
     id="defs6" /><g
     transform="matrix(1.3333333,0,0,-1.3333333,0,74.666667)"
     id="g10"><g
       transform="scale(0.1)"
       id="g12"><path
         id="path14"
         style="fill:#ffffff;fill-opacity:1;fill-rule:nonzero;stroke:none"
         d="m 712.539,8.94922 v 1.71098 c 2.191,0.1601 3.832,0.3203 3.832,2.0703 0,0.6289 -0.16,1.3281 -0.351,1.8789 l -0.942,3.2812 h -11.25 l -0.937,-2.7695 c -0.231,-0.6719 -0.43,-1.293 -0.43,-1.9609 0,-2.2618 2.379,-2.4219 4.34,-2.5 V 8.94922 h -13.09 v 1.71098 c 3.32,0.1601 4.379,0.8203 5.629,4.1406 l 8.59,23.5976 -0.508,0.7813 c 3.668,1.2109 4.726,1.7617 6.328,2.9297 0.59,-2.1485 0.699,-2.418 1.41,-4.6875 l 7.031,-21.6016 c 1.25,-3.832 1.829,-4.7695 5.188,-5.1211 V 8.94922 Z m -2.848,25.49998 -4.652,-13.1601 h 9.141 z M 599.02,16.0195 c -1.442,-2.2695 -4.801,-7.92966 -13.59,-7.92966 -9.532,0 -15.782,7.07036 -15.782,16.35936 0,8.6016 5.274,17.0703 16.012,17.0703 5.668,0 8.641,-2.3789 10.469,-3.8203 l 2.191,1.9922 0.2,-9.6133 -1.45,-0.3086 c -0.55,1.8711 -1.371,3.3516 -3.398,5.5821 -1.012,1.0586 -3.363,3.1289 -6.684,3.1289 -5.738,0 -10.269,-4.6914 -10.269,-12.9297 0,-7 3.75,-13.5625 11.09,-13.5625 5.55,0 7.66,3.0898 9.3,5.4726 z m 5.359,-7.07028 v 1.71098 c 3.59,0.3203 3.633,1.1015 3.633,4.1406 0.039,1.1406 0.039,2.2695 0.039,3.3984 v 13.3203 c 0,2.0703 0,4.1407 -0.121,5.1211 -0.2,1.9102 -1.09,2.1875 -3.551,2.3789 v 1.7188 h 13.59 v -1.7188 c -2.66,-0.2304 -3.629,-0.3476 -3.949,-2.0703 -0.231,-1.0508 -0.309,-3.3984 -0.309,-5.3086 v -4.3711 c 2.769,-0.1601 4.687,-0.1992 7.34,-0.1992 2.738,0 4.847,0.0781 7.539,0.1992 v 5.3516 c -0.039,5.7773 -0.07,6.0078 -4.371,6.3984 v 1.7188 h 13.75 V 39.0195 C 634.301,38.5898 634.301,38.5508 634.301,32.5 V 19.1016 c 0,-1.25 0.039,-5.2735 0.148,-6.211 0.242,-1.6797 1.172,-1.9922 3.52,-2.2304 V 8.94922 h -13.75 v 1.71098 c 3.16,0.3593 4.019,0.4687 4.301,2.6601 0.07,0.9414 0.07,2.1094 0.07,4.4102 v 5.8593 c -2.5,0.0821 -4.61,0.1993 -7.219,0.1993 -2.742,0 -4.891,-0.0782 -7.66,-0.1993 v -5.8593 c 0.078,-6.6016 0.16,-6.6016 4.258,-7.0313 V 8.94922 Z m 39.211,0 v 1.71098 c 3.129,0.4296 3.75,0.789 3.789,4.1093 v 16.9493 c -0.039,6.6015 -0.039,6.8007 -3.789,7.3007 v 1.7188 h 13.25 v -1.7188 c -3.75,-0.3476 -3.75,-0.5 -3.75,-7.3007 V 18.8711 c 0,-1.1406 0.031,-4.6914 0.148,-5.6328 0.203,-1.9492 1.102,-2.3789 3.602,-2.5781 V 8.94922 Z m -90.539,0 v 1.71098 c 3.078,0.4296 3.711,0.789 3.75,4.1093 v 16.9493 c -0.039,6.6015 -0.039,6.8007 -3.75,7.3007 v 1.7188 h 13.16 v -1.7188 c -3.75,-0.3476 -3.75,-0.5 -3.75,-7.3007 V 18.8711 c 0,-1.1406 0.078,-4.6914 0.16,-5.6328 0.231,-1.9492 1.129,-2.3789 3.59,-2.5781 V 8.94922 Z m -20.039,0 v 1.71098 c 3.976,0.2812 3.976,0.4687 4.058,6.3281 V 33.0117 L 525.941,8.55078 h -2.82 L 512.93,33.3594 512.699,14.6484 c 0,-3.1289 0.352,-3.707 3.75,-3.9492 V 8.94922 h -11.058 v 1.74998 c 2.578,0.1211 3.558,0.4727 3.75,2.6211 0.121,0.8594 0.238,3.5586 0.269,5.3086 l 0.43,13.2813 c 0.039,1.0586 0.039,2.5781 0.039,3.7109 0,3.168 -0.578,3.3984 -3.43,3.3984 v 1.7188 h 10 l 9.879,-24.0977 10.902,24.0977 h 9.68 v -1.8672 c -3.789,-0.2422 -3.82,-0.6328 -3.789,-5.5898 V 20.1992 c 0,-2.1875 0.078,-4.8906 0.16,-6.5273 0.199,-2.3008 1.098,-2.7305 3.629,-2.9727 V 8.98047 h -13.898 z m 196.437,0 v 1.71098 c 2.66,0.1601 3.641,0.1992 3.992,2 0.469,2.1093 0.579,20.9687 0.618,24.289 -1.758,1.6016 -2.457,1.9219 -4.61,2.0703 v 1.7188 h 9.571 c 2.66,-3.7891 3.25,-4.6094 7.929,-10.4297 l 8.871,-11.0078 v 14.25 c -0.039,5.039 -0.16,5.3203 -5.199,5.4687 v 1.7188 h 12.5 v -1.7188 c -3.473,-0.039 -3.742,-0.7382 -3.82,-5.9297 l -0.43,-24.53902 h -1.922 l -2.847,3.55862 c -1.442,1.8008 -2.891,3.5898 -4.332,5.3515 L 737.23,32.9688 V 16.4805 c 0,-5.1094 0.348,-5.3086 5.192,-5.7813 V 8.94922 Z M 464.219,24.8789 c 0,-10.9687 -7.5,-16.71874 -15.899,-16.71874 -9.261,0 -16.48,6.67964 -16.48,16.80074 0,8.668 5.82,16.5196 16.051,16.4883 9.609,-0.039 16.328,-6.9179 16.328,-16.5703 z M 448.32,11.0898 c 1.84,0.0391 4.379,0.8985 6.328,3.9493 2.231,3.4414 2.692,6.5625 2.582,10.7422 -0.121,4.0976 -1.25,7.6171 -3.64,10.1171 -1.012,1.0899 -3,2.6524 -5.66,2.6211 -2.66,0 -4.61,-1.6797 -5.629,-2.8203 -2.223,-2.539 -3.281,-6.0898 -3.281,-10.1875 0,-4.1406 0.55,-7.3125 2.89,-10.6719 2.07,-2.9609 4.61,-3.75 6.41,-3.75 z m 19.102,-0.3906 V 8.94922 h 13.168 v 1.74998 c -3.289,0.3203 -3.711,0.6719 -3.789,4.1016 l 0.039,9.1094 h 3.512 c 3.558,0 5.429,-0.3594 5.668,-3.9102 h 1.519 v 10.5117 h -1.519 c -0.2,-3.4414 -1.141,-3.7929 -5,-3.7929 h -4.18 v 11.0117 c 1.09,0.1601 1.75,0.1601 3.781,0.1601 6.219,0 8.207,0.0391 9.07,-4.9218 h 1.559 l -0.512,7.7695 h -23.316 v -1.7188 c 2.269,-0.1914 3.277,-0.3476 3.598,-1.8281 0.23,-0.9805 0.269,-4.4922 0.269,-5.7812 V 20.2305 c 0,-0.8203 -0.039,-4.6797 -0.117,-5.4297 -0.082,-3.4297 -0.473,-3.7813 -3.75,-4.1016 z M 194.102,9.17969 v 1.71871 c 3.128,0.3907 3.75,0.7422 3.789,4.1016 v 16.9102 c -0.039,6.6406 -0.039,6.8398 -3.789,7.3515 v 1.7188 h 13.199 V 39.2617 C 203.59,38.9102 203.59,38.75 203.59,31.9102 V 19.1016 c 0,-1.1328 0.039,-4.6914 0.16,-5.6211 0.199,-1.961 1.09,-2.3907 3.59,-2.5821 V 9.17969 Z m 140.078,0 v 1.71871 c 3.09,0.3907 3.75,0.7422 3.789,4.1016 v 16.9102 c -0.039,6.6406 -0.039,6.8398 -3.789,7.3515 v 1.7188 h 13.199 v -1.7188 c -3.75,-0.3515 -3.75,-0.5117 -3.75,-7.3515 V 19.1016 c 0,-1.1328 0.043,-4.6914 0.16,-5.6211 0.231,-1.961 1.133,-2.3907 3.59,-2.5821 V 9.17969 Z m -178.789,0 v 1.71871 c 2.66,0.1211 3.589,0.1914 3.988,1.9922 0.422,2.1094 0.582,20.9805 0.582,24.2578 -1.723,1.6407 -2.461,1.9102 -4.57,2.1133 v 1.7188 h 9.57 c 2.617,-3.7891 3.238,-4.6524 7.891,-10.4688 l 8.91,-10.9804 V 33.75 c -0.043,5.0781 -0.203,5.3086 -5.242,5.5117 v 1.7188 h 12.5 v -1.7188 c -3.43,-0.0429 -3.75,-0.7812 -3.79,-5.9414 L 184.77,8.75 h -1.879 l -2.852,3.5898 c -1.449,1.8008 -2.891,3.6016 -4.34,5.3594 l -12.539,15.5 V 16.7188 c 0,-5.1172 0.36,-5.3086 5.238,-5.7774 V 9.17969 Z m 152.5,9.92191 1.64,0.1601 c 1.758,-5.1601 4.688,-7.9726 9.449,-7.9726 3.36,0 6.372,1.4414 6.372,4.8398 0,3.6406 -3.442,5.043 -5.043,5.7109 -1.25,0.461 -2.579,0.8907 -3.86,1.3985 -2.578,0.9414 -7.5,2.9726 -7.5,9.1406 0,5.9414 4.68,9.2617 10.11,9.2617 2.152,0 4.613,-0.3906 7.312,-2.1523 l 1.949,1.4101 1.059,-9.4492 -1.609,-0.3203 c -0.54,2.0703 -0.969,3.0117 -2.219,4.7305 -1.492,1.9492 -3.641,2.8906 -6.172,2.8906 -3.399,0 -5.359,-1.6406 -5.359,-4.1406 0,-3.7891 3.71,-5.0781 7.269,-6.25 1.801,-0.5899 3.281,-1.0899 4.57,-1.8399 2.539,-1.4804 4.61,-4.289 4.61,-8.0781 0,-5.5117 -4.528,-10.04296 -11.207,-10.04296 -4.301,0 -6.961,1.72266 -8.242,2.49996 l -2.622,1.9102 z m 52.308,-9.92191 v 1.37111 c 2.922,0.0703 3.711,1.0898 3.711,3.6289 v 23.4414 h -3.949 c -3.59,0 -5.981,0.1094 -6.25,-5.5508 h -1.641 l 0.231,8.9102 h 28.91 l 0.269,-8.9102 h -1.71 c -0.239,5.6602 -2.661,5.5508 -6.219,5.5508 H 369.57 V 14.1797 c 0,-2.5391 0.821,-3.5899 3.75,-3.6289 V 9.17969 Z M 131.051,40.9805 v -1.7188 c -4.211,-0.2812 -4.211,-0.4336 -4.25,-7.2304 v -7.461 c 0,-3.8711 0.078,-7.1914 2.148,-10.1601 1.602,-2.3789 4.371,-2.6485 5.742,-2.6485 4.571,0 7.071,2.3399 8.161,6.0899 0.898,2.9687 0.937,8.5586 0.937,12.2265 0,1.1719 0,4.961 -0.039,5.9727 -0.199,2.9297 -1.68,2.9687 -4.531,3.25 v 1.7187 h 12.109 v -1.7187 c -2.969,0.039 -3.598,-0.6719 -3.789,-3.832 -0.039,-0.7383 -0.391,-9.5704 -0.43,-10.9375 -0.078,-2.4219 -0.23,-4.8008 -0.738,-7.1094 -2.191,-8.55081 -10.512,-8.98049 -12.742,-8.98049 -1.719,0 -5.348,0.26953 -8.32,2.25779 -4.719,3.1719 -4.758,7.9727 -4.758,13.0899 v 7.1914 c -0.039,3.4297 -0.039,5 -0.16,5.7812 -0.231,1.9883 -1.25,2.3789 -3.629,2.5 v 1.7188 z m 112.738,0 v -1.7188 c -3.051,-0.4336 -3.48,-1.2929 -6.09,-7.6211 L 228.012,8.55078 h -1.723 l -8.668,23.43752 c -2.152,6.0625 -2.422,6.8008 -5.633,7.2734 v 1.7188 h 15.082 v -1.7188 c -2.582,-0.082 -4.218,-0.1601 -4.218,-1.9922 0,-0.9414 0.238,-1.6797 1.097,-4.3789 l 5.539,-16.1289 6.453,16.7188 c 0.43,1.1289 0.969,2.539 0.969,3.3593 0,2.3008 -2.262,2.379 -4.25,2.4219 v 1.7188 z M 394.531,9.17969 v 1.71871 c 2.457,0.2735 3.438,0.3516 4.059,0.9805 0.711,0.6992 0.711,1.5195 0.75,5 v 5.582 l -8.442,13.1289 c -2.308,3.4297 -2.347,3.5118 -5.386,3.6719 v 1.7578 h 16.519 v -1.7578 c -3.32,-0.082 -4.801,-0.1601 -4.801,-1.6836 0,-0.8984 0.579,-1.8789 1.399,-3.1992 l 4.851,-7.9687 4.489,7.9296 c 0.82,1.5586 1.293,2.5 1.293,3.2383 0,1.5235 -1.332,1.5625 -3.524,1.7227 v 1.75 h 12.383 v -1.75 c -3.199,-0.1211 -4.101,-1.0625 -7.73,-7 l -4.961,-8.2813 v -6.6406 c 0,-5.7773 0,-6.207 4.769,-6.4805 V 9.17969 Z m -123.48,0 c 0,2.30081 0.359,6.08981 0.668,8.24221 h -1.559 c -1.058,-5.7031 -4.262,-5.4336 -8.871,-5.4336 -4.219,0 -5.078,1.1719 -5.078,3.2422 v 8.8711 h 3.437 c 3.903,0 5.043,-0.3125 5.043,-3.8711 h 1.52 v 10.4687 h -1.52 c -0.312,-2.8086 -0.902,-3.75 -5,-3.75 h -3.48 v 11.211 h 3.91 c 5.43,0 7.34,-0.4297 8.078,-4.7188 h 1.41 l -0.16,7.5391 h -22.648 v -1.7188 c 2.301,-0.2422 3.277,-0.3515 3.59,-1.8398 0.23,-0.9727 0.269,-4.4922 0.269,-5.7422 v -11.168 c 0,-0.8633 -0.039,-4.6914 -0.07,-5.4726 -0.121,-3.4375 -0.512,-3.7891 -3.789,-4.0977 V 9.17969 Z M 692.109,23.0117 v -1.7226 c -2.89,-0.1602 -2.89,-0.9805 -2.968,-7.0274 V 11.8789 C 686.68,10.3516 683.16,8.16016 676.91,8.16016 c -10.93,0 -16.172,8.28904 -16.172,16.60934 0,10.1914 6.883,16.8321 15.512,16.8321 5.43,0 8.551,-2.0703 11.172,-3.6328 l 1.637,1.871 0.242,-9.9179 -1.289,-0.2305 c -0.672,1.8672 -1.602,4.0586 -4.032,6.4805 -1.05,1.0195 -3.082,2.3476 -6.281,2.3476 -5.551,0 -10.16,-4.6914 -10.16,-13.8281 0,-7.3125 3.59,-13.6016 9.801,-13.6016 3.558,0 5.359,2.5 5.512,2.6993 0.589,0.8203 0.699,1.6015 0.668,2.9726 -0.161,4.0586 -0.711,4.1797 -4.219,4.5274 v 1.7226 z M 285.82,26.25 c 0.821,-0.1992 2.032,-0.3086 2.969,-0.3086 3.59,-0.043 6.332,2.8086 6.441,5.3477 0.239,3.6718 -1.64,6.8711 -7.5,6.8711 -0.781,0 -1.281,-0.0391 -1.91,-0.1485 z m 0,-6.9492 c 0.039,-7.3125 0.039,-8.2813 3.828,-8.3594 V 9.17969 h -13.277 v 1.76171 c 3.43,0.2695 3.789,0.8203 3.859,4.2578 0.04,1.2813 0.04,2.7696 0.04,4.0625 v 11.5196 c 0,3.8281 -0.04,5.1601 -0.192,6.207 -0.238,1.7617 -1.098,2.0703 -3.707,2.2734 v 1.7188 l 14.449,-0.0391 c 7.809,0 10.309,-3.7109 10.309,-8.1719 0,-3.039 -1.91,-7.0312 -6.289,-8.3906 l 5.629,-9.7695 c 2.07,-3.75 3.121,-4.6094 5.703,-4.96096 V 8.55078 c -0.66,-0.03125 -1.371,-0.07031 -2.07,-0.07031 -6.012,0 -8.481,2.07033 -10.981,7.41793 l -1.793,3.711 c -1.879,4.0195 -2.5,3.832 -5.508,3.832 z" /><path
         id="path16"
         style="fill:#ffcb05;fill-opacity:1;fill-rule:nonzero;stroke:none"
         d="m 439.961,308.238 -87.34,119.383 v -86.84 H 387.34 V 255 H 226.719 v 85.781 h 32.582 V 474.262 H 226.719 V 560 H 352.891 L 439.961,439.77 527.031,560 H 653.199 V 474.262 H 620.59 V 340.781 h 32.609 V 255 h -160.66 v 85.781 h 34.762 v 86.84 z" /><path
         id="path18"
         style="fill:#ffffff;fill-opacity:1;fill-rule:nonzero;stroke:none"
         d="m 47.6211,150.66 v 47.192 L 35.6602,150.66 H 23.4805 L 12.1094,197.852 V 150.66 H 0 v 61.18 h 20.2695 l 9.6524,-41.61 10.2383,41.61 h 19.9179 v -61.18 z" /><path
         id="path20"
         style="fill:#ffffff;fill-opacity:1;fill-rule:nonzero;stroke:none"
         d="M 70.8594,150.672 H 83.6289 V 211.84 H 70.8594 Z" /><path
         id="path22"
         style="fill:#ffffff;fill-opacity:1;fill-rule:nonzero;stroke:none"
         d="m 133.238,169.449 c 0,-12.969 -6.359,-19.488 -19.097,-19.488 -4.879,0 -8.711,0.82 -11.411,2.461 -2.73,1.637 -4.8003,3.906 -6.2105,6.797 -1.3984,2.89 -2.2187,6.211 -2.4609,10 -0.2305,3.793 -0.3477,7.769 -0.4297,11.953 0,4.297 0.1602,8.359 0.4297,12.187 0.2812,3.871 1.1016,7.231 2.4609,10.082 1.3711,2.887 3.4414,5.149 6.2895,6.789 2.812,1.649 6.8,2.5 11.961,2.54 11.832,0 17.769,-6.051 17.769,-18.122 v -2.109 H 120 v 1.332 c 0,6.399 -2.031,9.57 -6.09,9.57 -1.801,0 -3.211,-0.55 -4.14,-1.679 -0.981,-1.141 -1.719,-2.703 -2.231,-4.731 -0.508,-2.031 -0.82,-4.492 -0.937,-7.301 -0.122,-2.82 -0.153,-5.98 -0.153,-9.5 0,-3.039 0.031,-5.851 0.153,-8.39 0.117,-2.539 0.386,-4.77 0.859,-6.68 0.469,-1.922 1.211,-3.359 2.309,-4.34 1.05,-0.941 2.46,-1.48 4.21,-1.601 1.61,0 2.821,0.39 3.641,1.172 0.859,0.82 1.52,1.839 1.949,3.05 0.469,1.25 0.739,2.579 0.86,3.981 0.121,1.449 0.16,2.699 0.16,3.828 h 12.648 z" /><path
         id="path24"
         style="fill:#ffffff;fill-opacity:1;fill-rule:nonzero;stroke:none"
         d="m 169.34,150.66 v 26.961 h -14.5 V 150.66 h -12.891 v 61.18 h 12.891 v -24.219 h 14.5 v 24.219 h 12.89 v -61.18 z" /><path
         id="path26"
         style="fill:#ffffff;fill-opacity:1;fill-rule:nonzero;stroke:none"
         d="m 193.32,150.672 h 12.7695 V 211.84 H 193.32 Z" /><path
         id="path28"
         style="fill:#ffffff;fill-opacity:1;fill-rule:nonzero;stroke:none"
         d="m 252.969,151.25 c -2.149,-0.391 -4.34,-0.699 -6.598,-0.941 -2.269,-0.231 -4.492,-0.348 -6.68,-0.43 -2.031,0 -4.101,0.16 -6.211,0.43 -2.07,0.281 -4.101,0.82 -6.019,1.601 -1.91,0.82 -3.59,1.84 -5.082,3.168 -1.481,1.293 -2.649,3.043 -3.551,5.231 -0.469,1.25 -0.859,2.543 -1.168,3.91 -0.359,1.371 -0.629,2.89 -0.781,4.57 -0.16,1.723 -0.32,3.633 -0.43,5.781 -0.121,2.149 -0.16,4.649 -0.16,7.539 0,4.063 0.16,7.969 0.512,11.68 0.347,3.75 1.25,7.07 2.687,10 1.492,2.93 3.672,5.27 6.532,6.949 2.89,1.684 6.832,2.582 11.871,2.621 6.328,0 11.168,-1.558 14.57,-4.73 3.398,-3.16 5.117,-7.688 5.199,-13.551 v -1.637 h -12.738 v 2.969 c 0,2.461 -0.66,4.371 -2.031,5.781 -1.371,1.399 -3.09,2.11 -5.231,2.11 -2,0 -3.558,-0.551 -4.691,-1.602 -1.129,-1.097 -1.949,-2.539 -2.539,-4.418 -0.551,-1.871 -0.899,-4.062 -1.02,-6.601 -0.109,-2.539 -0.148,-5.309 -0.148,-8.321 v -2.621 c 0,-3.277 0.039,-6.25 0.148,-8.898 0.121,-2.66 0.469,-4.93 1.02,-6.879 0.59,-1.91 1.48,-3.359 2.808,-4.371 1.293,-1.02 3.051,-1.57 5.242,-1.641 2.258,0 4.45,0.43 6.52,1.211 v 13.469 h -7.031 v 9.492 h 19.691 v -31.012 z" /><path
         id="path30"
         style="fill:#ffffff;fill-opacity:1;fill-rule:nonzero;stroke:none"
         d="m 300.941,150.66 -3.402,13.559 h -17.418 l -3.48,-13.559 H 263.98 l 16.961,61.18 h 16.868 l 16.601,-61.18 z m -12.39,49.418 -6.012,-26.637 h 12.383 z" /><path
         id="path32"
         style="fill:#ffffff;fill-opacity:1;fill-rule:nonzero;stroke:none"
         d="m 349.262,150.66 -16.801,44.731 V 150.66 h -11.84 v 61.18 h 17.188 l 16.371,-42.391 v 42.391 h 11.871 v -61.18 z" /><path
         id="path34"
         style="fill:#ffffff;fill-opacity:1;fill-rule:nonzero;stroke:none"
         d="m 395.781,150.66 v 61.18 h 33.399 v -9.418 H 408.59 V 187.34 h 18.988 v -9.41 H 408.59 v -17.7 h 21.25 v -9.57 z" /><path
         id="path36"
         style="fill:#ffffff;fill-opacity:1;fill-rule:nonzero;stroke:none"
         d="m 466.949,150.66 -16.75,44.731 V 150.66 H 438.32 v 61.18 h 17.231 l 16.328,-42.391 v 42.391 h 11.871 v -61.18 z" /><path
         id="path38"
         style="fill:#ffffff;fill-opacity:1;fill-rule:nonzero;stroke:none"
         d="m 530.781,151.25 c -2.152,-0.391 -4.332,-0.699 -6.601,-0.941 -2.27,-0.231 -4.489,-0.348 -6.68,-0.43 -2.031,0 -4.102,0.16 -6.211,0.43 -2.07,0.281 -4.098,0.82 -6.019,1.601 -1.911,0.82 -3.59,1.84 -5.071,3.168 -1.488,1.293 -2.66,3.043 -3.558,5.231 -0.469,1.25 -0.86,2.543 -1.211,3.91 -0.309,1.371 -0.59,2.89 -0.739,4.57 -0.16,1.723 -0.312,3.633 -0.429,5.781 -0.121,2.149 -0.16,4.649 -0.16,7.539 0,4.063 0.16,7.969 0.507,11.68 0.313,3.75 1.25,7.07 2.692,10 1.488,2.93 3.679,5.27 6.527,6.949 2.891,1.684 6.832,2.582 11.871,2.621 6.332,0 11.18,-1.558 14.571,-4.73 3.402,-3.16 5.121,-7.688 5.199,-13.551 v -1.637 H 522.73 v 2.969 c 0,2.461 -0.66,4.371 -2.031,5.781 -1.359,1.399 -3.121,2.11 -5.23,2.11 -1.989,0 -3.559,-0.551 -4.688,-1.602 -1.133,-1.097 -1.953,-2.539 -2.543,-4.418 -0.539,-1.871 -0.898,-4.062 -1.008,-6.601 -0.121,-2.539 -0.16,-5.309 -0.16,-8.321 v -2.621 c 0,-3.277 0.039,-6.25 0.16,-8.898 0.11,-2.66 0.469,-4.93 1.008,-6.879 0.59,-1.91 1.492,-3.359 2.813,-4.371 1.289,-1.02 3.051,-1.57 5.238,-1.641 2.262,0 4.449,0.43 6.52,1.211 v 13.469 h -7.028 v 9.492 h 19.688 v -31.012 z" /><path
         id="path40"
         style="fill:#ffffff;fill-opacity:1;fill-rule:nonzero;stroke:none"
         d="m 546.48,150.672 h 12.7695 V 211.84 H 546.48 Z" /><path
         id="path42"
         style="fill:#ffffff;fill-opacity:1;fill-rule:nonzero;stroke:none"
         d="M 598.828,150.66 582.07,195.391 V 150.66 h -11.871 v 61.18 h 17.18 l 16.371,-42.391 v 42.391 h 11.871 v -61.18 z" /><path
         id="path44"
         style="fill:#ffffff;fill-opacity:1;fill-rule:nonzero;stroke:none"
         d="m 626.559,150.66 v 61.18 h 33.402 v -9.418 H 639.34 V 187.34 h 18.98 v -9.41 h -18.98 v -17.7 h 21.281 v -9.57 z" /><path
         id="path46"
         style="fill:#ffffff;fill-opacity:1;fill-rule:nonzero;stroke:none"
         d="m 668.949,150.66 v 61.18 h 33.352 v -9.418 H 681.719 V 187.34 h 18.98 v -9.41 h -18.98 v -17.7 h 21.293 v -9.57 z" /><path
         id="path48"
         style="fill:#ffffff;fill-opacity:1;fill-rule:nonzero;stroke:none"
         d="m 737.66,150.66 c -0.75,1.531 -1.14,2.82 -1.18,3.91 -0.07,1.051 -0.109,2.27 -0.191,3.629 v 8.051 c 0,1.871 -0.117,3.441 -0.391,4.648 -0.308,1.25 -0.82,2.223 -1.519,2.973 -0.75,0.738 -1.758,1.289 -3.09,1.641 -1.289,0.308 -2.93,0.508 -5,0.508 h -2.34 v -25.36 h -12.898 v 61.18 h 21.097 c 2.422,0 4.692,-0.238 6.723,-0.75 2.027,-0.5 3.75,-1.399 5.231,-2.649 1.488,-1.211 2.617,-2.89 3.476,-5 0.863,-2.07 1.293,-4.691 1.293,-7.781 0,-4.41 -0.941,-7.808 -2.742,-10.269 -1.789,-2.422 -4.609,-3.981 -8.469,-4.653 2.891,-0.347 5.07,-0.968 6.52,-1.949 1.48,-0.937 2.539,-2.187 3.242,-3.711 0.668,-1.527 1.058,-3.359 1.168,-5.43 0.121,-2.109 0.281,-4.449 0.43,-7.027 l 0.242,-4.34 c 0.117,-1.25 0.187,-2.5 0.269,-3.832 0.039,-1.289 0.27,-2.539 0.668,-3.789 z m -1.609,43.481 c 0,1.91 -0.192,3.437 -0.582,4.57 -0.391,1.129 -1.059,1.949 -1.949,2.461 -0.899,0.508 -2,0.859 -3.321,1.019 -1.289,0.149 -2.777,0.231 -4.5,0.231 h -1.75 v -17.031 h 3.121 c 1.52,0 2.852,0.121 3.981,0.347 1.14,0.242 2.07,0.672 2.82,1.371 0.699,0.661 1.25,1.563 1.598,2.692 0.312,1.14 0.551,2.578 0.582,4.34 z" /><path
         id="path50"
         style="fill:#ffffff;fill-opacity:1;fill-rule:nonzero;stroke:none"
         d="m 758.441,150.672 h 12.7695 V 211.84 H 758.441 Z" /><path
         id="path52"
         style="fill:#ffffff;fill-opacity:1;fill-rule:nonzero;stroke:none"
         d="m 810.82,150.66 -16.8,44.731 V 150.66 h -11.872 v 61.18 h 17.231 l 16.32,-42.391 v 42.391 h 11.879 v -61.18 z" /><path
         id="path54"
         style="fill:#ffffff;fill-opacity:1;fill-rule:nonzero;stroke:none"
         d="m 874.609,151.25 c -2.148,-0.391 -4.339,-0.699 -6.597,-0.941 -2.274,-0.231 -4.492,-0.348 -6.684,-0.43 -2.027,0 -4.098,0.16 -6.207,0.43 -2.07,0.281 -4.101,0.82 -6.019,1.601 -1.911,0.82 -3.59,1.84 -5.082,3.168 -1.481,1.293 -2.649,3.043 -3.551,5.231 -0.469,1.25 -0.86,2.543 -1.168,3.91 -0.352,1.371 -0.629,2.89 -0.781,4.57 -0.161,1.723 -0.321,3.633 -0.43,5.781 -0.121,2.149 -0.16,4.649 -0.16,7.539 0,4.063 0.16,7.969 0.511,11.68 0.348,3.75 1.25,7.07 2.688,10 1.492,2.93 3.672,5.27 6.531,6.949 2.891,1.684 6.828,2.582 11.871,2.621 6.328,0 11.168,-1.558 14.571,-4.73 3.398,-3.16 5.117,-7.688 5.199,-13.551 v -1.637 h -12.742 v 2.969 c 0,2.461 -0.661,4.371 -2.028,5.781 -1.371,1.399 -3.082,2.11 -5.23,2.11 -2,0 -3.563,-0.551 -4.692,-1.602 -1.129,-1.097 -1.949,-2.539 -2.539,-4.418 -0.55,-1.871 -0.898,-4.062 -1.019,-6.601 -0.11,-2.539 -0.153,-5.309 -0.153,-8.321 v -2.621 c 0,-3.277 0.043,-6.25 0.153,-8.898 0.121,-2.66 0.469,-4.93 1.019,-6.879 0.59,-1.91 1.481,-3.359 2.809,-4.371 1.293,-1.02 3.051,-1.57 5.242,-1.641 2.258,0 4.449,0.43 6.52,1.211 v 13.469 h -7.032 v 9.492 h 19.692 v -31.012 z" /><path
         id="path56"
         style="fill:#ffffff;fill-opacity:1;fill-rule:nonzero;stroke:none"
         d="m 290.309,75.0781 c -0.739,1.5235 -1.129,2.8516 -1.168,3.9024 -0.082,1.0976 -0.121,2.3086 -0.192,3.6797 v 8.039 c 0,1.8399 -0.121,3.4024 -0.429,4.6524 -0.282,1.25 -0.79,2.2265 -1.532,2.9687 -0.699,0.7383 -1.718,1.25 -3.039,1.6016 -1.289,0.3481 -2.969,0.5081 -5,0.5081 h -2.39 V 75.0781 h -12.848 v 61.2109 h 21.09 c 2.429,0 4.648,-0.269 6.679,-0.777 2.04,-0.512 3.79,-1.371 5.282,-2.621 1.437,-1.25 2.617,-2.891 3.468,-5 0.86,-2.071 1.25,-4.692 1.25,-7.813 0,-4.379 -0.89,-7.808 -2.691,-10.238 -1.801,-2.418 -4.648,-3.981 -8.48,-4.641 2.89,-0.359 5.043,-1.019 6.531,-1.961 1.48,-0.968 2.539,-2.218 3.199,-3.7497 0.699,-1.5195 1.09,-3.3164 1.211,-5.4297 0.121,-2.0703 0.23,-4.4102 0.43,-7.0273 l 0.23,-4.3008 c 0.121,-1.25 0.199,-2.5313 0.281,-3.8203 0.039,-1.2891 0.27,-2.5821 0.661,-3.8321 z m -1.598,43.4729 c 0,1.961 -0.191,3.48 -0.59,4.609 -0.422,1.141 -1.051,1.918 -1.949,2.43 -0.902,0.539 -2.031,0.859 -3.32,1.051 -1.293,0.16 -2.813,0.238 -4.493,0.238 h -1.8 V 109.84 h 3.171 c 1.52,0 2.848,0.121 3.981,0.359 1.129,0.192 2.07,0.66 2.769,1.321 0.75,0.71 1.29,1.601 1.641,2.742 0.32,1.129 0.508,2.578 0.59,4.289 z" /><path
         id="path58"
         style="fill:#ffffff;fill-opacity:1;fill-rule:nonzero;stroke:none"
         d="m 352.852,106.09 c 0,-4.488 -0.122,-8.7111 -0.352,-12.6095 -0.199,-3.9102 -1.02,-7.3086 -2.422,-10.2422 -1.449,-2.9688 -3.598,-5.1875 -6.449,-6.7891 -2.891,-1.5703 -6.988,-2.3906 -12.301,-2.4687 -4.957,0 -8.828,0.8984 -11.598,2.6211 -2.781,1.7578 -4.89,4.0976 -6.289,7.0703 -1.41,2.9297 -2.269,6.4062 -2.543,10.3867 -0.277,4.0312 -0.429,8.1714 -0.507,12.4614 0,4.261 0.16,8.281 0.507,12.031 0.352,3.789 1.25,7.148 2.731,10 1.449,2.898 3.562,5.16 6.332,6.801 2.769,1.636 6.641,2.5 11.519,2.539 5.2,0 9.258,-0.782 12.149,-2.379 2.851,-1.563 5,-3.793 6.332,-6.684 1.367,-2.887 2.187,-6.207 2.461,-10 0.308,-3.789 0.43,-8.008 0.43,-12.738 z m -13.051,0.941 c 0,3.278 -0.031,6.25 -0.071,8.91 -0.082,2.649 -0.351,4.918 -0.859,6.789 -0.512,1.84 -1.293,3.321 -2.391,4.418 -1.05,1.051 -2.652,1.602 -4.8,1.602 -2.032,0 -3.59,-0.512 -4.692,-1.449 -1.047,-0.973 -1.867,-2.461 -2.457,-4.492 -0.551,-2.028 -0.859,-4.571 -0.902,-7.61 -0.078,-3.051 -0.109,-6.648 -0.188,-10.789 0,-3.43 0.079,-6.4803 0.188,-9.1405 0.121,-2.6484 0.473,-4.8789 1.101,-6.7187 0.622,-1.7891 1.399,-3.1602 2.379,-4.0625 0.942,-0.8985 2.422,-1.3672 4.371,-1.4375 2.04,0 3.641,0.5 4.77,1.4375 1.129,0.9805 1.949,2.4609 2.461,4.4922 0.508,2.039 0.82,4.539 0.937,7.4687 0.122,2.9297 0.153,6.4808 0.153,10.5818 z" /><path
         id="path60"
         style="fill:#ffffff;fill-opacity:1;fill-rule:nonzero;stroke:none"
         d="m 404.57,91.7188 c 0,-3.2774 -0.468,-6.0196 -1.371,-8.168 -0.898,-2.1406 -2.219,-3.8203 -3.898,-5.0703 -1.68,-1.25 -3.711,-2.1094 -6.02,-2.6211 -2.301,-0.5078 -4.922,-0.7813 -7.812,-0.7813 h -22.457 v 61.2109 h 21.047 c 2.66,0 5.16,-0.199 7.543,-0.59 2.347,-0.39 4.418,-1.129 6.168,-2.219 1.761,-1.058 3.171,-2.621 4.218,-4.652 1.102,-2.027 1.602,-4.687 1.563,-7.969 0,-7.847 -3.473,-12.5 -10.43,-13.98 3.988,-0.629 6.918,-2.109 8.719,-4.5 1.789,-2.379 2.73,-5.9298 2.73,-10.6602 z m -13.48,27.5432 c 0,2.027 -0.352,3.59 -1.012,4.648 -0.699,1.09 -1.637,1.789 -2.808,2.219 -1.18,0.391 -2.5,0.59 -3.989,0.672 -1.48,0.039 -3.011,0.078 -4.57,0.078 h -2.973 v -15.59 h 7.192 c 2.66,0 4.691,0.59 6.019,1.762 1.36,1.211 2.071,2.969 2.141,5.347 z m 0.672,-25.9417 c 0,1.7578 -0.203,3.1992 -0.59,4.3399 -0.391,1.0898 -1.051,1.9882 -1.953,2.6098 -0.899,0.628 -1.949,1.058 -3.129,1.25 -1.211,0.242 -2.649,0.359 -4.41,0.359 h -5.942 V 84.4883 h 3.641 c 1.871,0 3.551,0.082 5,0.2031 1.48,0.0781 2.769,0.3867 3.902,0.8984 1.129,0.5 1.989,1.3985 2.539,2.6485 0.59,1.25 0.899,2.9336 0.942,5.082 z" /><path
         id="path62"
         style="fill:#ffffff;fill-opacity:1;fill-rule:nonzero;stroke:none"
         d="m 456.41,106.09 c 0,-4.488 -0.121,-8.7111 -0.32,-12.6095 -0.231,-3.9102 -1.051,-7.3086 -2.461,-10.2422 -1.399,-2.9688 -3.551,-5.1875 -6.438,-6.7891 -2.89,-1.5703 -6.992,-2.3906 -12.312,-2.4687 -4.957,0 -8.828,0.8984 -11.598,2.6211 -2.769,1.7578 -4.84,4.0976 -6.25,7.0703 -1.441,2.9297 -2.261,6.4062 -2.582,10.3867 -0.269,4.0312 -0.429,8.1714 -0.5,12.4614 0,4.261 0.192,8.281 0.5,12.031 0.352,3.789 1.25,7.148 2.742,10 1.438,2.898 3.59,5.16 6.36,6.801 2.738,1.636 6.609,2.5 11.527,2.539 5.192,0 9.223,-0.782 12.113,-2.379 2.887,-1.563 5,-3.793 6.36,-6.684 1.328,-2.887 2.148,-6.207 2.469,-10 0.269,-3.789 0.39,-8.008 0.39,-12.738 z m -13.051,0.941 c 0,3.278 0,6.25 -0.078,8.91 -0.043,2.649 -0.351,4.918 -0.859,6.789 -0.512,1.84 -1.293,3.321 -2.344,4.418 -1.098,1.051 -2.699,1.602 -4.848,1.602 -2.031,0 -3.589,-0.512 -4.64,-1.449 -1.102,-0.973 -1.918,-2.461 -2.469,-4.492 -0.582,-2.028 -0.891,-4.571 -0.93,-7.61 -0.082,-3.051 -0.121,-6.648 -0.16,-10.789 0,-3.43 0.039,-6.4803 0.16,-9.1405 0.11,-2.6484 0.469,-4.8789 1.09,-6.7187 0.629,-1.7891 1.41,-3.1602 2.379,-4.0625 0.942,-0.8985 2.43,-1.3672 4.418,-1.4375 2.031,0 3.594,0.5 4.723,1.4375 1.14,0.9805 1.961,2.4609 2.469,4.4922 0.5,2.039 0.82,4.539 0.929,7.4687 0.121,2.9297 0.16,6.4808 0.16,10.5818 z" /><path
         id="path64"
         style="fill:#ffffff;fill-opacity:1;fill-rule:nonzero;stroke:none"
         d="M 488.629,126.371 V 75.0781 H 475.66 v 51.2929 h -14.058 v 9.918 h 41.25 v -9.918 z" /><path
         id="path66"
         style="fill:#ffffff;fill-opacity:1;fill-rule:nonzero;stroke:none"
         d="m 508.789,75.0781 h 12.8125 V 136.289 H 508.789 Z" /><path
         id="path68"
         style="fill:#ffffff;fill-opacity:1;fill-rule:nonzero;stroke:none"
         d="m 571.172,93.9102 c 0,-13.0118 -6.371,-19.5 -19.063,-19.5 -4.918,0 -8.75,0.8203 -11.449,2.4687 -2.691,1.6406 -4.762,3.9024 -6.172,6.793 -1.437,2.8476 -2.258,6.207 -2.457,10 -0.23,3.75 -0.39,7.7381 -0.429,11.9181 0,4.289 0.117,8.39 0.429,12.219 0.27,3.832 1.09,7.191 2.457,10.082 1.332,2.89 3.442,5.16 6.25,6.8 2.813,1.637 6.801,2.457 11.961,2.539 11.871,0 17.813,-6.058 17.813,-18.171 v -2.11 h -12.543 v 1.371 c 0,6.371 -2.071,9.571 -6.129,9.571 -1.801,0 -3.168,-0.551 -4.141,-1.68 -0.98,-1.133 -1.679,-2.731 -2.187,-4.762 -0.512,-2.039 -0.821,-4.461 -0.942,-7.269 -0.121,-2.852 -0.191,-6.02 -0.191,-9.489 0,-3.05 0.07,-5.8629 0.191,-8.4019 0.121,-2.5391 0.391,-4.7696 0.821,-6.7188 0.468,-1.9101 1.25,-3.3594 2.308,-4.3008 1.09,-0.9687 2.5,-1.5195 4.25,-1.5976 1.571,0 2.781,0.3867 3.641,1.1679 0.859,0.7813 1.48,1.8008 1.949,3.0508 0.43,1.25 0.742,2.5782 0.82,3.9883 0.121,1.4024 0.192,2.6914 0.192,3.8203 h 12.621 z" /><path
         id="path70"
         style="fill:#ffffff;fill-opacity:1;fill-rule:nonzero;stroke:none"
         d="m 617.539,91.6016 c 0,-3.3203 -0.508,-6.0899 -1.519,-8.3633 -1.02,-2.2578 -2.5,-4.0586 -4.418,-5.4297 -1.911,-1.3594 -4.141,-2.2969 -6.602,-2.8867 -2.5,-0.543 -5.309,-0.8633 -8.48,-0.9414 -2.848,0 -5.391,0.2812 -7.649,0.8593 -2.23,0.5508 -4.18,1.5313 -5.82,2.8907 -1.641,1.3281 -2.891,3.0078 -3.75,5 -0.821,1.9609 -1.289,4.4179 -1.332,7.3476 v 3.9024 h 12.972 v -1.6016 c 0,-3.1992 0.508,-5.5391 1.598,-6.9492 1.051,-1.4102 2.852,-2.1484 5.313,-2.1914 2.148,0 3.828,0.5898 5,1.7617 1.207,1.2109 1.796,2.8516 1.796,5 0,1.6406 -0.347,3.0508 -1.097,4.1797 -0.742,1.1289 -1.949,2.2305 -3.629,3.2812 l -7.152,4.3401 c -2.418,1.437 -4.489,2.808 -6.168,4.058 -1.723,1.25 -3.122,2.539 -4.332,3.911 -1.18,1.32 -2.04,2.89 -2.54,4.57 -0.511,1.68 -0.82,3.75 -0.941,6.172 -0.039,3.039 0.43,5.66 1.441,7.808 1.02,2.149 2.5,3.871 4.418,5.16 1.911,1.321 4.063,2.258 6.442,2.891 2.39,0.617 5,0.93 7.89,0.93 11.84,0 17.782,-5.192 17.782,-15.582 v -2.809 h -12.543 v 1.52 c 0,5.269 -2.071,7.89 -6.168,7.89 -1.879,0 -3.36,-0.621 -4.5,-1.871 -1.129,-1.25 -1.711,-2.898 -1.711,-4.929 0,-2.77 1.398,-5 4.18,-6.68 l 12.101,-7.692 c 1.57,-1.058 2.969,-2.027 4.149,-2.968 1.21,-0.981 2.14,-2.071 2.89,-3.321 0.738,-1.2496 1.32,-2.5777 1.789,-3.9801 0.43,-1.4101 0.629,-3.168 0.59,-5.2773 z" /></g></g></svg>