<svg version="1.2" xmlns="http://www.w3.org/2000/svg" viewBox="0 0 275 56" width="275" height="56">
	<title>informal-eps</title>
	<defs>
		<clipPath clipPathUnits="userSpaceOnUse" id="cp1">
			<path d="m0 0h275v56h-275z"/>
		</clipPath>
	</defs>
	<style>
		.s0 { fill: #00274c } 
		.s1 { fill: #ffcb05 } 
	</style>
	<g id="Page 1" clip-path="url(#cp1)">
		<path id="Path 1" class="s0" d="m90.9 0.3h0.8v54.1h-0.8z"/>
		<path id="Path 2" class="s1" d="m37.9 45l-15.5-21.2v15.4h6.1v15.2h-28.5v-15.2h5.8v-23.7h-5.8v-15.2h22.4l15.5 21.3 15.4-21.3h22.4v15.2h-5.8v23.7h5.8v15.2h-28.5v-15.2h6.2v-15.4z"/>
		<path id="Path 3" fill-rule="evenodd" class="s0" d="m119.2 54.4v-23q0-3-3.3-3h-3.7v26h-5v-54.1h10.2q3.4 0 4.9 1.7 1.5 1.7 1.5 5v13.5q0 2.8-1.2 4.2-1.2 1.3-4 1.6 3.5 0 4.5 1.7 1.1 1.6 1.1 4.8v21.6zm-0.3-46.4q0-1.9-0.6-2.7-0.6-0.7-2.3-0.7h-3.8v19.5h3.1q2 0 2.8-0.7 0.8-0.8 0.8-2.7zm30.5 39q0 4.1-2.5 6-2.4 1.9-6.1 1.9-4.2 0-6.4-2.3-2.2-2.2-2.2-6.6v-37.2q0-4.7 2-6.9 2-2.2 6.6-2.2 8.6 0 8.6 9.2zm-4.9-37.5q0-3-0.8-4.3-0.9-1.3-2.8-1.4-1.2 0-1.9 0.4-0.7 0.5-1.1 1.3-0.5 0.8-0.6 1.7-0.2 0.9-0.2 2v36.9q0 4.7 3.5 4.7 3.9 0 3.9-5.2zm29.9 37.7q0 2.5-0.7 4-0.7 1.4-2 2.1-1.4 0.8-3 1-1.7 0.2-3.8 0.2h-7.5v-54.1h10.5q1.9 0 3.1 0.6 1.2 0.6 2 1.6 0.7 1.1 0.9 2.4 0.1 1.2 0.3 2.4v12.9q0 3.2-1.2 4.5-1.2 1.2-4.2 1.4 1.8 0.3 2.8 0.7 1.1 0.4 1.7 1 0.7 0.6 0.9 1.6 0.1 1.1 0.2 2.5zm-5.2-38.4q0-2.4-1-3.3-0.9-0.9-3.3-0.9h-2.7v19.7h2.4q2.7 0 3.6-0.8 0.9-0.7 1-3.1zm0.2 23.2q0-1.4-0.4-2.4-0.4-0.9-1.4-1.1-1.1-0.2-3.8-0.3h-1.6v22h3q2.1 0 3.2-0.7 1-0.7 1-3zm30.1 15q-0.1 4.1-2.5 6-2.5 1.9-6.2 1.9-4.2 0-6.4-2.3-2.1-2.2-2.2-6.6v-37.2q0-4.7 2-6.9 2-2.1 6.6-2.1 8.6 0 8.7 9.2zm-5-37.6q0-2.9-0.8-4.3-0.9-1.3-2.8-1.4-1.2 0-1.9 0.4-0.7 0.5-1.1 1.3-0.5 0.8-0.6 1.7-0.2 0.9-0.2 2v36.9q0 4.7 3.5 4.7 3.9 0 3.9-5.2zm21-4.8v49.8h-4.9v-49.8h-5.6v-4.3h16.1v4.3zm11.2-4.3h4.9v54.1h-4.9zm28 46.8q0 3.3-1.8 5.6-1.8 2.2-6 2.2-2.3 0-3.7-0.6-1.4-0.6-2.3-1.7-0.9-1.1-1.3-2.4-0.4-1.3-0.4-2.9v-40.4q0-1.3 0.5-2.6 0.4-1.3 1.3-2.2 0.9-1 2.3-1.7 1.5-0.7 3.5-0.6 2.2 0 3.7 0.6 1.5 0.6 2.4 1.7 0.9 1.2 1.3 2.6 0.5 1.4 0.5 3.1v6.6h-5v-6.7q0-1.4-0.4-2.6-0.3-1.2-2.2-1.3-1 0-1.5 0.4-0.5 0.3-0.9 0.9-0.4 0.6-0.4 1.5 0 0.8-0.1 1.5v39.4q0 3.5 2.5 3.5 3 0 3-3.8v-7.6h5zm20.1-0.2q0 1.6-0.4 3-0.5 1.4-1.4 2.6-1 1.1-2.6 1.8-1.6 0.6-3.7 0.7-4.1 0-6-2.1-2-2.1-2-5.1v-8.3h5v7.1q0 1.6 0.5 2.9 0.5 1.2 2.5 1.3 2 0 2.6-1.3 0.6-1.2 0.6-3v-6.8q0-1.9-0.5-3.4-0.4-1.5-0.9-2.4l-7.3-12.7q-1.3-2.1-1.7-3.7-0.3-1.6-0.4-4v-5.7q0-8 7.9-8 2.4 0 3.9 0.6 1.5 0.6 2.3 1.7 0.8 1 1.2 2.5 0.4 1.4 0.3 2.9v6.8h-5v-6.8q0-3.7-2.7-3.7-3 0-3 3.8c0 0.8 0 6.5 0 7q0 0.8 0.3 1.5 0.2 0.7 0.5 1.4 0.3 0.6 0.9 1.7l7.3 12.6q1.2 2 1.5 3.7 0.3 1.6 0.3 3.6z"/>
	</g>
</svg>